<?xml version="1.0" encoding="utf-8"?>
<!-- Generator: Adobe Illustrator 23.0.0, SVG Export Plug-In . SVG Version: 6.00 Build 0)  -->
<svg version="1.1" id="图层_1" xmlns="http://www.w3.org/2000/svg" xmlns:xlink="http://www.w3.org/1999/xlink" x="0px" y="0px"
	 viewBox="0 0 61.6 61.6" style="enable-background:new 0 0 61.6 61.6;" xml:space="preserve">
<style type="text/css">
	.st0{fill:#565555;}
</style>
<g id="西向支路">
	<polygon class="st0" points="0,33.4 45,33.4 45,40.2 61.6,30.7 45,21.4 45,28 0,28 	"/>
</g>
<g id="西直行">
	<polygon class="st0" points="3.1,43.9 45.5,29 47.8,35.4 60.3,20.9 41.5,17.7 43.7,23.9 1.3,38.8 	"/>
</g>
<g id="东向支路">
	<polygon class="st0" points="61.6,28.2 16.6,28.2 16.6,21.4 0,30.9 16.6,40.2 16.6,33.6 61.6,33.6 	"/>
</g>
<g id="东直行">
	<polygon class="st0" points="58.5,17.7 16.1,32.6 13.8,26.2 1.3,40.7 20.1,43.9 17.9,37.7 60.3,22.8 	"/>
</g>
<g id="北向支路">
	<polygon class="st0" points="28.2,0 28.2,45 21.4,45 30.9,61.6 40.2,45 33.6,45 33.6,0 	"/>
</g>
<g id="北直行">
	<polygon class="st0" points="17.7,3.1 32.6,45.5 26.2,47.8 40.7,60.3 43.9,41.5 37.7,43.7 22.8,1.3 	"/>
</g>
<g id="南向支路">
	<polygon class="st0" points="33.4,61.6 33.4,16.6 40.2,16.6 30.7,0 21.4,16.6 28,16.6 28,61.6 	"/>
</g>
<g id="南直行">
	<polygon class="st0" points="43.9,58.5 29,16.1 35.4,13.8 20.9,1.3 17.7,20.1 23.9,17.9 38.8,60.3 	"/>
</g>
</svg>
