<?xml version="1.0" encoding="utf-8"?>
<!-- Generator: Adobe Illustrator 21.1.0, SVG Export Plug-In . SVG Version: 6.00 Build 0)  -->
<svg version="1.1" id="图层_1" xmlns="http://www.w3.org/2000/svg" xmlns:xlink="http://www.w3.org/1999/xlink" x="0px" y="0px"
	 viewBox="0 0 26 36" style="enable-background:new 0 0 26 36;" xml:space="preserve">
<style type="text/css">
	.st0{fill:#606060;}
</style>
<path id="南左转" class="st0" d="M18.9,11v24h3V10.9c0-3.1-2.6-5.7-5.7-5.8l-2.9-0.4L13.8,1L4.1,4.9l8.2,6.5l0.5-3.7l3.3,0.5
	C17.6,8.2,18.9,9.4,18.9,11L18.9,11z"/>
<path id="南右转" class="st0" d="M10.2,8.1l3-0.4l0.5,3.7l8.2-6.5L12.2,1l0.5,3.7L9.8,5.1c-3.2,0-5.7,2.6-5.7,5.8V35h3V10.9
	c0-1.5,1.3-2.8,2.8-2.8H10.2z"/>
<polygon id="南直行" class="st0" points="14.5,35 14.5,10.1 18.2,10.1 13,0.9 7.8,10.1 11.5,10.1 11.5,35 "/>
<path id="南掉头" class="st0" d="M8.5,19.4v4.3H4.7l5.2,9.1l5.2-9.1h-3.7v-4.3c0-1.5,1.7-2.8,3.7-2.8s3.7,1.3,3.7,2.8V35h3V19.4
	c0-3.2-3-5.8-6.7-5.8C11.5,13.6,8.5,16.2,8.5,19.4z"/>
</svg>
