<?xml version="1.0" encoding="utf-8"?>
<!-- Generator: Adobe Illustrator 21.1.0, SVG Export Plug-In . SVG Version: 6.00 Build 0)  -->
<svg version="1.1" id="图层_1" xmlns="http://www.w3.org/2000/svg" xmlns:xlink="http://www.w3.org/1999/xlink" x="0px" y="0px"
	 viewBox="0 0 36 26" style="enable-background:new 0 0 36 26;" xml:space="preserve">
<style type="text/css">
	.st0{fill:#606060;}
</style>
<path id="西左转" class="st0" d="M25,18.9H1v3h24.1c3.1,0,5.7-2.6,5.8-5.7l0.4-2.9l3.7,0.5l-3.9-9.7l-6.5,8.2l3.7,0.5l-0.5,3.3
	C27.8,17.6,26.6,18.9,25,18.9L25,18.9z"/>
<path id="西右转" class="st0" d="M27.9,10.2l0.4,3l-3.7,0.5l6.5,8.2l3.9-9.7l-3.7,0.5l-0.4-2.9c0-3.2-2.6-5.7-5.8-5.7H1v3h24.1
	c1.5,0,2.8,1.3,2.8,2.8V10.2z"/>
<polygon id="西直行" class="st0" points="1,14.5 26,14.5 26,18.2 35.1,13 26,7.8 26,11.5 1,11.5 "/>
<path id="西掉头" class="st0" d="M16.6,8.5h-4.3V4.7L3.3,10l9.1,5.2v-3.7h4.3c1.5,0,2.8,1.7,2.8,3.7s-1.3,3.7-2.8,3.7H1v3h15.6
	c3.2,0,5.8-3,5.8-6.7C22.4,11.5,19.8,8.5,16.6,8.5z"/>
</svg>
