<?xml version="1.0" encoding="utf-8"?>
<!-- Generator: Adobe Illustrator 21.1.0, SVG Export Plug-In . SVG Version: 6.00 Build 0)  -->
<svg version="1.1" id="图层_1" xmlns="http://www.w3.org/2000/svg" xmlns:xlink="http://www.w3.org/1999/xlink" x="0px" y="0px"
	 viewBox="0 0 26 36" style="enable-background:new 0 0 26 36;" xml:space="preserve">
<style type="text/css">
	.st0{fill:#606060;}
</style>
<path id="北左转" class="st0" d="M7.1,25V1h-3v24.1c0,3.1,2.6,5.7,5.7,5.8l2.9,0.4L12.2,35l9.7-3.9l-8.2-6.5l-0.5,3.7l-3.3-0.5
	C8.4,27.8,7.1,26.6,7.1,25L7.1,25z"/>
<path id="北右转" class="st0" d="M15.8,27.9l-3,0.4l-0.5-3.7l-8.2,6.5l9.7,3.9l-0.5-3.7l2.9-0.4c3.2,0,5.7-2.6,5.7-5.8V1h-3v24.1
	c0,1.5-1.3,2.8-2.8,2.8H15.8z"/>
<polygon id="北直行" class="st0" points="11.5,0.9 11.5,25.9 7.8,25.9 13,35 18.2,25.9 14.5,25.9 14.5,0.9 "/>
<path id="北掉头" class="st0" d="M17.5,16.6v-4.3h3.7L16,3.3l-5.2,9.1h3.7v4.3c0,1.5-1.7,2.8-3.7,2.8s-3.7-1.3-3.7-2.8V1h-3v15.6
	c0,3.2,3,5.8,6.7,5.8C14.5,22.4,17.5,19.8,17.5,16.6z"/>
</svg>
