<?xml version="1.0" encoding="utf-8"?>
<!-- Generator: Adobe Illustrator 23.0.0, SVG Export Plug-In . SVG Version: 6.00 Build 0)  -->
<svg version="1.1" id="图层_1" xmlns="http://www.w3.org/2000/svg" xmlns:xlink="http://www.w3.org/1999/xlink" x="0px" y="0px"
	 viewBox="0 0 50 50" style="enable-background:new 0 0 50 50;" xml:space="preserve">
<style type="text/css">
	.st0{fill:#040000;}
</style>
<g id="组-左行">
	<path id="东右转-左行" class="st0" d="M32.7,36.3c-1.1,0-1.9-0.8-2.1-1.9l-0.3-2.2l2.5-0.3l-4.3-5.4l-2.6,6.4l2.5-0.3l0.3,1.9
		c0.1,2.1,1.8,3.8,3.9,3.8h16v-2H32.7L32.7,36.3z"/>
	<path id="东左转-左行" class="st0" d="M32.7,38.3h15.9v-2h-16c-2.1,0-3.8,1.7-3.9,3.8L28.4,42l-2.5-0.3l2.6,6.4l4.3-5.4
		l-2.5-0.3l0.3-2.2C30.8,39.1,31.6,38.3,32.7,38.3L32.7,38.3z"/>
	<polygon id="东直行-左行" class="st0" points="48.6,36.3 25.4,36.3 25.4,33.9 19.3,37.3 25.4,40.8 25.4,38.3 48.6,38.3 	"/>
	<path id="东调头-左行" class="st0" d="M34.3,33.8c0,2.5,1.8,4.5,3.9,4.5h10.4v-2H38.2c-1,0-1.9-1.2-1.9-2.5
		c0-1.4,0.9-2.5,1.9-2.5h2.9v2.5l6-3.5l-6-3.5v2.4h-2.9C36.1,29.2,34.4,31.2,34.3,33.8z"/>
	<path id="南右转-左行" class="st0" d="M13.2,34.1c0-1.1,0.9-1.9,1.9-2l2.2-0.3l0.3,2.5L23,30l-6.4-2.7l0.3,2.5L15,30.1
		c-2.1,0.1-3.8,1.8-3.8,3.9v16h2V34.1L13.2,34.1z"/>
	<path id="南左转-左行_1_" class="st0" d="M9.3,32c1,0,1.9,0.9,1.9,1.9V50h2V34c0-2.2-1.7-3.9-3.8-3.9l-1.9-0.3l0.3-2.5
		l-6.4,2.6l5.4,4.3l0.3-2.5l2,0.3H9.3z"/>
	<polygon id="南直行-左行" class="st0" points="13.2,50 13.2,26.8 15.7,26.8 12.2,20.7 8.8,26.8 11.2,26.8 11.2,50 	"/>
	<path id="南调头-左行" class="st0" d="M15.7,35.7c-2.5,0-4.5,1.8-4.5,3.9V50h2V39.6c0-1,1.2-1.9,2.5-1.9
		c1.4,0,2.5,0.9,2.5,1.9v2.9h-2.5l3.5,6l3.5-6h-2.5v-2.9C20.2,37.5,18.2,35.8,15.7,35.7z"/>
	<path id="西右转-左行" class="st0" d="M17.3,13.7c1.1,0,1.9,0.8,2,1.9l0.3,2.2l-2.5,0.3l4.3,5.4l2.6-6.4l-2.4,0.3l-0.3-1.9
		c-0.1-2.1-1.8-3.8-3.9-3.8h-16v2L17.3,13.7L17.3,13.7z"/>
	<path id="西左转-左行" class="st0" d="M17.3,11.7H1.4v2h16c2.1,0,3.8-1.7,3.9-3.8L21.6,8L24,8.3l-2.6-6.4l-4.3,5.4l2.5,0.3
		l-0.3,2.2C19.2,10.9,18.4,11.7,17.3,11.7L17.3,11.7z"/>
	<polygon id="西直行-左行" class="st0" points="1.4,13.7 24.6,13.7 24.6,16.1 30.7,12.7 24.6,9.2 24.6,11.7 1.4,11.7 	"/>
	<path id="西调头-左行" class="st0" d="M15.7,16.2c0-2.5-1.8-4.5-3.9-4.5H1.4v2h10.4c1,0,1.9,1.2,1.9,2.5
		c0,1.4-0.9,2.5-1.9,2.5H8.9v-2.5l-6,3.5l6,3.5v-2.4h2.9C13.9,20.8,15.7,18.7,15.7,16.2z"/>
	<path id="北右转-左行_1_" class="st0" d="M36.8,15.9c0,1.1-0.9,1.9-1.9,2l-2.2,0.3l-0.3-2.5L27,20l6.4,2.7l-0.3-2.5l1.9-0.3
		c2.1-0.1,3.8-1.8,3.8-3.9V0h-2L36.8,15.9L36.8,15.9z"/>
	<path id="北左转-左行" class="st0" d="M40.7,17.9c-1,0-1.9-0.9-1.9-1.9V0h-2v15.9c0,2.2,1.7,3.9,3.8,3.9l1.9,0.3l-0.3,2.5
		l6.4-2.6l-5.5-4.3l-0.3,2.5l-2-0.3C40.8,17.9,40.7,17.9,40.7,17.9z"/>
	<polygon id="北直行-左行" class="st0" points="36.8,0 36.8,23.2 34.3,23.2 37.8,29.3 41.2,23.2 38.8,23.2 38.8,0 	"/>
	<path id="北调头-左行" class="st0" d="M34.3,14.3c2.5,0,4.5-1.8,4.5-3.9V0h-2v10.4c0,1-1.1,1.9-2.5,1.9s-2.5-0.9-2.5-1.9V7.5
		h2.5l-3.5-6l-3.5,6h2.5v2.9C29.8,12.5,31.8,14.2,34.3,14.3z"/>
</g>
</svg>
