<?xml version="1.0" encoding="utf-8"?>
<!-- Generator: Adobe Illustrator 23.0.0, SVG Export Plug-In . SVG Version: 6.00 Build 0)  -->
<svg version="1.1" id="图层_1" xmlns="http://www.w3.org/2000/svg" xmlns:xlink="http://www.w3.org/1999/xlink" x="0px" y="0px"
	 viewBox="0 0 870 650" style="enable-background:new 0 0 870 650;" xml:space="preserve">
<style type="text/css">
	.st0{fill:#3D3939;}
	.st1{fill:#E5E5D8;}
	.st2{fill:#CCB63A;}
	.st3{fill:#DDDDDD;}
</style>
<g>
	<path class="st0" d="M870,432.6v-18V235.1v-18H563.2L307.7,217H0v18v179.6v18h307.5c0.6,0,1.3,0,1.9,0.1H870V432.6z"/>
	<g>
		<path class="st1" d="M0,198.4h870l0,0v-1H0"/>
	</g>
	<rect y="214.9" class="st2" width="870" height="3"/>
	<g>
		<path class="st1" d="M870,451.6H0l0,0v1h870"/>
	</g>
	<g>
		<g>
			<rect x="742.8" y="379.4" class="st3" width="11" height="2"/>
			<rect x="719.7" y="379.4" class="st3" width="11.6" height="2"/>
			<rect x="604.2" y="379.4" class="st3" width="11.6" height="2"/>
			<rect x="627.3" y="379.4" class="st3" width="11.6" height="2"/>
			<rect x="673.5" y="379.4" class="st3" width="11.6" height="2"/>
			<rect x="650.4" y="379.4" class="st3" width="11.6" height="2"/>
			<rect x="696.6" y="379.4" class="st3" width="11.6" height="2"/>
			<rect x="581" y="379.4" class="st3" width="11.6" height="2"/>
			<rect x="555.5" y="379.4" class="st3" width="14" height="2"/>
			<rect x="650.4" y="349.1" class="st3" width="11.6" height="2"/>
			<rect x="627.3" y="349.1" class="st3" width="11.6" height="2"/>
			<rect x="581" y="349.1" class="st3" width="11.6" height="2"/>
			<rect x="604.2" y="349.1" class="st3" width="11.6" height="2"/>
			<rect x="696.6" y="349.1" class="st3" width="11.6" height="2"/>
			<rect x="673.5" y="349.1" class="st3" width="11.6" height="2"/>
			<rect x="719.7" y="349.1" class="st3" width="11.6" height="2"/>
			<rect x="742.8" y="349.1" class="st3" width="11" height="2"/>
			<rect x="856.8" y="379.4" class="st3" width="11" height="2"/>
			<rect x="833.7" y="379.4" class="st3" width="11.6" height="2"/>
			<rect x="787.5" y="379.4" class="st3" width="11.6" height="2"/>
			<rect x="764.4" y="379.4" class="st3" width="11.6" height="2"/>
			<rect x="810.6" y="379.4" class="st3" width="11.6" height="2"/>
			<rect x="764.4" y="349.1" class="st3" width="11.6" height="2"/>
			<rect x="810.6" y="349.1" class="st3" width="11.6" height="2"/>
			<rect x="787.5" y="349.1" class="st3" width="11.6" height="2"/>
			<rect x="833.7" y="349.1" class="st3" width="11.6" height="2"/>
			<rect x="856.8" y="349.1" class="st3" width="11" height="2"/>
			<rect x="870" y="379.4" class="st3" width="0" height="2"/>
			<rect x="870" y="349.1" class="st3" width="0" height="2"/>
			<rect x="555.5" y="349.1" class="st3" width="14" height="2"/>
			<rect x="533.3" y="379.4" class="st3" width="11.6" height="2"/>
			<rect x="507.8" y="379.4" class="st3" width="14" height="2"/>
			<rect x="533.3" y="349.1" class="st3" width="11.6" height="2"/>
			<rect x="507.8" y="349.1" class="st3" width="14" height="2"/>
			<rect x="482.7" y="379.4" class="st3" width="14" height="2"/>
			<rect x="482.7" y="349.1" class="st3" width="14" height="2"/>
		</g>
		<g>
			<g>
				<rect x="483.7" y="320.1" class="st2" width="386.2" height="2"/>
			</g>
			<rect x="484.7" y="291.8" class="st3" width="385.2" height="2"/>
			<rect x="484.7" y="263.4" class="st3" width="385.2" height="2"/>
			<rect x="484.7" y="235" class="st3" width="385.2" height="2"/>
			<rect x="483.8" y="410" class="st3" width="386.1" height="2"/>
			<polyline class="st3" points="484.7,322.1 482.7,322.1 482.7,217.5 484.7,217.5 			"/>
		</g>
	</g>
	<g>
		<g>
			<rect x="116.2" y="268.3" class="st3" width="11" height="2"/>
			<rect x="138.7" y="268.3" class="st3" width="11.6" height="2"/>
			<rect x="254.2" y="268.3" class="st3" width="11.6" height="2"/>
			<rect x="231.1" y="268.3" class="st3" width="11.6" height="2"/>
			<rect x="184.9" y="268.3" class="st3" width="11.6" height="2"/>
			<rect x="208" y="268.3" class="st3" width="11.6" height="2"/>
			<rect x="161.8" y="268.3" class="st3" width="11.6" height="2"/>
			<rect x="277.4" y="268.3" class="st3" width="11.6" height="2"/>
			<rect x="300.5" y="268.3" class="st3" width="14" height="2"/>
			<rect x="208" y="298.5" class="st3" width="11.6" height="2"/>
			<rect x="231.1" y="298.5" class="st3" width="11.6" height="2"/>
			<rect x="277.4" y="298.5" class="st3" width="11.6" height="2"/>
			<rect x="254.2" y="298.5" class="st3" width="11.6" height="2"/>
			<rect x="161.8" y="298.5" class="st3" width="11.6" height="2"/>
			<rect x="184.9" y="298.5" class="st3" width="11.6" height="2"/>
			<rect x="138.7" y="298.5" class="st3" width="11.6" height="2"/>
			<rect x="116.2" y="298.5" class="st3" width="11" height="2"/>
			<rect x="24.2" y="268.3" class="st3" width="11" height="2"/>
			<rect x="46.7" y="268.3" class="st3" width="11.6" height="2"/>
			<rect x="92.9" y="268.3" class="st3" width="11.6" height="2"/>
			<rect x="69.8" y="268.3" class="st3" width="11.6" height="2"/>
			<rect x="69.8" y="298.5" class="st3" width="11.6" height="2"/>
			<rect x="92.9" y="298.5" class="st3" width="11.6" height="2"/>
			<rect x="46.7" y="298.5" class="st3" width="11.6" height="2"/>
			<rect x="24.2" y="298.5" class="st3" width="11" height="2"/>
			<rect x="2.2" y="268.3" class="st3" width="11" height="2"/>
			<rect x="2.2" y="298.5" class="st3" width="11" height="2"/>
			<rect y="268.3" class="st3" width="0" height="2"/>
			<rect y="298.5" class="st3" width="0" height="2"/>
			<rect x="300.5" y="298.5" class="st3" width="14" height="2"/>
			<rect x="325.1" y="268.3" class="st3" width="11.6" height="2"/>
			<rect x="348.2" y="268.3" class="st3" width="14" height="2"/>
			<rect x="325.1" y="298.5" class="st3" width="11.6" height="2"/>
			<rect x="348.2" y="298.5" class="st3" width="14" height="2"/>
			<rect x="373.2" y="268.3" class="st3" width="14" height="2"/>
			<rect x="373.2" y="298.5" class="st3" width="14" height="2"/>
		</g>
		<g>
			<g>
				<rect y="327.5" class="st2" width="386.3" height="2"/>
			</g>
			<rect y="355.9" class="st3" width="385.3" height="2"/>
			<rect y="384.4" class="st3" width="385.3" height="2"/>
			<rect y="412.8" class="st3" width="385.3" height="2"/>
			<rect y="237.6" class="st3" width="386.1" height="2"/>
			<polyline class="st3" points="385.2,327.5 387.2,327.5 387.2,432.1 385.2,432.1 			"/>
		</g>
	</g>
	<rect y="432.1" class="st2" width="870" height="3"/>
</g>
</svg>
