<?xml version="1.0" encoding="utf-8"?>
<!-- Generator: Adobe Illustrator 23.0.0, SVG Export Plug-In . SVG Version: 6.00 Build 0)  -->
<svg version="1.1" id="图层_1" xmlns="http://www.w3.org/2000/svg" xmlns:xlink="http://www.w3.org/1999/xlink" x="0px" y="0px"
	 viewBox="0 0 870 650" style="enable-background:new 0 0 870 650;" xml:space="preserve">
<style type="text/css">
	.st0{fill:#3D3939;}
	.st1{fill:#E5E5D8;}
	.st2{fill:#CCB63A;}
	.st3{fill:#DDDDDD;}
</style>
<g>
	<path class="st0" d="M542.7,1h-18H345.1h-18v196.7L327,453.2v197.7h18h179.6h18V453.3c0-0.6,0-1.3,0.1-1.9L542.7,1L542.7,1z"/>
	<g>
		<path class="st1" d="M308.3,651V1l0,0h-1v650"/>
	</g>
	<rect x="324.8" y="1" class="st2" width="3" height="650"/>
	<g>
		<path class="st1" d="M561.7,1v650l0,0h1V1"/>
	</g>
	<g>
		<g>
			<rect x="489.5" y="7" class="st3" width="2" height="11"/>
			<rect x="489.5" y="29.5" class="st3" width="2" height="11.6"/>
			<rect x="489.5" y="145" class="st3" width="2" height="11.6"/>
			<rect x="489.5" y="121.9" class="st3" width="2" height="11.6"/>
			<rect x="489.5" y="75.7" class="st3" width="2" height="11.6"/>
			<rect x="489.5" y="98.8" class="st3" width="2" height="11.6"/>
			<rect x="489.5" y="52.6" class="st3" width="2" height="11.6"/>
			<rect x="489.5" y="168.2" class="st3" width="2" height="11.6"/>
			<rect x="489.5" y="191.3" class="st3" width="2" height="14"/>
			<rect x="459.2" y="98.8" class="st3" width="2" height="11.6"/>
			<rect x="459.2" y="121.9" class="st3" width="2" height="11.6"/>
			<rect x="459.2" y="168.2" class="st3" width="2" height="11.6"/>
			<rect x="459.2" y="145" class="st3" width="2" height="11.6"/>
			<rect x="459.2" y="52.6" class="st3" width="2" height="11.6"/>
			<rect x="459.2" y="75.7" class="st3" width="2" height="11.6"/>
			<rect x="459.2" y="29.5" class="st3" width="2" height="11.6"/>
			<rect x="459.2" y="7" class="st3" width="2" height="11"/>
			<rect x="489.5" y="1" class="st3" width="2" height="0.9"/>
			<rect x="459.2" y="1" class="st3" width="2" height="0.9"/>
			<rect x="459.2" y="191.3" class="st3" width="2" height="14"/>
			<rect x="489.5" y="215.9" class="st3" width="2" height="11.6"/>
			<rect x="489.5" y="239" class="st3" width="2" height="14"/>
			<rect x="459.2" y="215.9" class="st3" width="2" height="11.6"/>
			<rect x="459.2" y="239" class="st3" width="2" height="14"/>
			<rect x="489.5" y="264.1" class="st3" width="2" height="14"/>
			<rect x="459.2" y="264.1" class="st3" width="2" height="14"/>
		</g>
		<g>
			<g>
				<rect x="430.2" y="0.7" class="st2" width="2" height="276.4"/>
			</g>
			<rect x="401.8" y="0.7" class="st3" width="2" height="275.4"/>
			<rect x="373.4" y="0.7" class="st3" width="2" height="275.4"/>
			<rect x="345" y="0.7" class="st3" width="2" height="275.4"/>
			<rect x="520.1" y="0.7" class="st3" width="2" height="276.3"/>
			<polyline class="st3" points="432.2,276.1 432.2,278.1 327.6,278.1 327.6,276.1 			"/>
		</g>
	</g>
	<g>
		<g>
			<rect x="378.3" y="633.7" class="st3" width="2" height="11"/>
			<rect x="378.3" y="610.6" class="st3" width="2" height="11.6"/>
			<rect x="378.3" y="495.1" class="st3" width="2" height="11.6"/>
			<rect x="378.3" y="518.2" class="st3" width="2" height="11.6"/>
			<rect x="378.3" y="564.4" class="st3" width="2" height="11.6"/>
			<rect x="378.3" y="541.3" class="st3" width="2" height="11.6"/>
			<rect x="378.3" y="587.5" class="st3" width="2" height="11.6"/>
			<rect x="378.3" y="471.9" class="st3" width="2" height="11.6"/>
			<rect x="378.3" y="446.4" class="st3" width="2" height="14"/>
			<rect x="408.6" y="541.3" class="st3" width="2" height="11.6"/>
			<rect x="408.6" y="518.2" class="st3" width="2" height="11.6"/>
			<rect x="408.6" y="471.9" class="st3" width="2" height="11.6"/>
			<rect x="408.6" y="495.1" class="st3" width="2" height="11.6"/>
			<rect x="408.6" y="587.5" class="st3" width="2" height="11.6"/>
			<rect x="408.6" y="564.4" class="st3" width="2" height="11.6"/>
			<rect x="408.6" y="610.6" class="st3" width="2" height="11.6"/>
			<rect x="408.6" y="633.7" class="st3" width="2" height="11"/>
			<rect x="378.3" y="649.8" class="st3" width="2" height="0.9"/>
			<rect x="408.6" y="649.8" class="st3" width="2" height="0.9"/>
			<rect x="408.6" y="446.4" class="st3" width="2" height="14"/>
			<rect x="378.3" y="424.2" class="st3" width="2" height="11.6"/>
			<rect x="378.3" y="398.7" class="st3" width="2" height="14"/>
			<rect x="408.6" y="424.2" class="st3" width="2" height="11.6"/>
			<rect x="408.6" y="398.7" class="st3" width="2" height="14"/>
			<rect x="378.3" y="373.6" class="st3" width="2" height="14"/>
			<rect x="408.6" y="373.6" class="st3" width="2" height="14"/>
		</g>
		<g>
			<g>
				<rect x="437.6" y="374.6" class="st2" width="2" height="276.4"/>
			</g>
			<rect x="466" y="375.6" class="st3" width="2" height="275.4"/>
			<rect x="494.4" y="375.6" class="st3" width="2" height="275.4"/>
			<rect x="522.8" y="375.6" class="st3" width="2" height="275.4"/>
			<rect x="347.7" y="374.7" class="st3" width="2" height="276.3"/>
			<polyline class="st3" points="437.6,375.6 437.6,373.6 542.2,373.6 542.2,375.6 			"/>
		</g>
	</g>
	<rect x="542.2" y="1" class="st2" width="3" height="650"/>
</g>
</svg>
