<?xml version="1.0" encoding="utf-8"?>
<!-- Generator: Adobe Illustrator 23.0.0, SVG Export Plug-In . SVG Version: 6.00 Build 0)  -->
<svg version="1.1" id="图层_1" xmlns="http://www.w3.org/2000/svg" xmlns:xlink="http://www.w3.org/1999/xlink" x="0px" y="0px"
	 viewBox="0 0 50 50" style="enable-background:new 0 0 50 50;" xml:space="preserve">
<style type="text/css">
	.st0{fill:#040000;}
</style>
<g id="组">
	<path id="西左转_3_" class="st0" d="M17.3,36.3H1.4v2h16c2.1,0,3.8-1.7,3.9-3.8l0.3-1.9l2.5,0.3l-2.6-6.4l-4.3,5.4l2.5,0.3
		l-0.3,2.2C19.2,35.5,18.4,36.3,17.3,36.3L17.3,36.3z"/>
	<path id="西右转" class="st0" d="M17.3,38.3c1.1,0,1.9,0.8,2.1,1.9l0.3,2.2l-2.5,0.3l4.3,5.4l2.6-6.4L21.6,42l-0.3-1.9
		c-0.1-2.1-1.8-3.8-3.9-3.8h-16v2H17.3L17.3,38.3z"/>
	<polygon id="西直行_1_" class="st0" points="1.4,38.3 24.6,38.3 24.6,40.8 30.7,37.3 24.6,33.9 24.6,36.3 1.4,36.3 	"/>
	<path id="西调头_1_" class="st0" d="M11.8,29.2H8.9v-2.4l-6,3.5l6,3.5v-2.5h2.9c1,0,1.9,1.1,1.9,2.5c0,1.3-0.9,2.5-1.9,2.5H1.4
		v2h10.4c2.1,0,3.9-2,3.9-4.5C15.6,31.2,13.9,29.2,11.8,29.2z"/>
	<path id="南左转_1_" class="st0" d="M36.8,34.1V50h2V34c0-2.1-1.7-3.8-3.8-3.9l-1.9-0.3l0.3-2.5L27,30l5.4,4.3l0.3-2.5l2.2,0.3
		C35.9,32.2,36.8,33,36.8,34.1L36.8,34.1z"/>
	<path id="南右转_1_" class="st0" d="M40.9,32l2-0.3l0.3,2.5l5.4-4.3l-6.4-2.6l0.3,2.5l-1.9,0.3c-2.1,0-3.8,1.7-3.8,3.9v16h2
		V33.9c0-1,0.9-1.9,1.9-1.9H40.9z"/>
	<polygon id="南直行_1_" class="st0" points="38.8,50 38.8,26.8 41.2,26.8 37.8,20.7 34.3,26.8 36.8,26.8 36.8,50 	"/>
	<path id="南调头_1_" class="st0" d="M29.8,39.6v2.9h-2.5l3.5,6l3.5-6h-2.5v-2.9c0-1,1.1-1.9,2.5-1.9c1.3,0,2.5,0.9,2.5,1.9V50h2
		V39.6c0-2.1-2-3.9-4.5-3.9C31.8,35.8,29.8,37.5,29.8,39.6z"/>
	<path id="东左转_3_" class="st0" d="M32.7,13.7h15.9v-2h-16c-2.1,0-3.8,1.7-3.9,3.8l-0.3,1.9L26,17.1l2.6,6.4l4.3-5.4l-2.5-0.3
		l0.3-2.2C30.8,14.5,31.6,13.7,32.7,13.7L32.7,13.7z"/>
	<path id="东右转" class="st0" d="M32.7,11.7c-1.1,0-1.9-0.8-2-1.9l-0.3-2.2l2.5-0.3l-4.3-5.4L26,8.3L28.4,8l0.3,1.9
		c0.1,2.1,1.8,3.8,3.9,3.8h16v-2H32.7L32.7,11.7z"/>
	<polygon id="东直行_1_" class="st0" points="48.6,11.7 25.4,11.7 25.4,9.2 19.3,12.7 25.4,16.1 25.4,13.7 48.6,13.7 	"/>
	<path id="东调头_1_" class="st0" d="M38.2,20.8h2.9v2.4l6-3.5l-6-3.5v2.5h-2.9c-1,0-1.9-1.1-1.9-2.5c0-1.3,0.9-2.5,1.9-2.5h10.4
		v-2H38.2c-2.1,0-3.9,2-3.9,4.5S36.1,20.8,38.2,20.8z"/>
	<path id="北左转_1_" class="st0" d="M13.2,15.9V0l-2,0v16c0,2.1,1.7,3.8,3.8,3.9l1.9,0.3l-0.3,2.5L23,20l-5.4-4.3l-0.3,2.5
		l-2.2-0.3C14.1,17.8,13.2,17,13.2,15.9L13.2,15.9z"/>
	<path id="北右转_1_" class="st0" d="M9.2,17.9l-2,0.3l-0.3-2.5L1.4,20l6.4,2.6l-0.3-2.5l1.9-0.3c2.1,0,3.8-1.7,3.8-3.9V0l-2,0
		v16c0,1-0.9,1.9-1.9,1.9C9.3,17.9,9.2,17.9,9.2,17.9z"/>
	<polygon id="北直行_1_" class="st0" points="11.2,0 11.2,23.2 8.8,23.2 12.2,29.3 15.7,23.2 13.2,23.2 13.2,0 	"/>
	<path id="北调头_1_" class="st0" d="M20.2,10.4V7.5h2.5l-3.5-6l-3.5,6h2.5v2.9c0,1-1.1,1.9-2.5,1.9s-2.5-0.9-2.5-1.9V0l-2,0
		v10.4c0,2.1,2,3.9,4.5,3.9C18.2,14.2,20.2,12.5,20.2,10.4z"/>
</g>
</svg>
