<svg xmlns="http://www.w3.org/2000/svg" viewBox="0 0 252.1 250.2"><defs><style>.cls-1{fill:#7bd66b;}.cls-2{fill:#e24b4b;}</style></defs><title>人行道</title><g id="图层_2" data-name="图层 2"><g id="图层_1-2" data-name="图层 1"><g id="人行道"><g id="北边人行道"><rect class="cls-1" x="37.5" width="4" height="16.3"/><rect class="cls-1" x="29.7" width="4" height="16.3"/><rect class="cls-1" x="22.2" width="4" height="16.3"/><rect class="cls-1" x="45.3" width="4" height="16.3"/><rect class="cls-1" x="53.1" width="4" height="16.3"/><rect class="cls-1" x="60.9" width="4" height="16.3"/><rect class="cls-1" x="68.7" width="4" height="16.3"/><rect class="cls-1" x="76.5" width="4" height="16.3"/><rect class="cls-1" x="84.3" width="4" height="16.3"/><rect class="cls-1" x="92.1" width="4" height="16.3"/><rect class="cls-1" x="99.9" width="4" height="16.3"/><rect class="cls-1" x="107.7" width="4" height="16.3"/><rect class="cls-1" x="115.6" width="4" height="16.3"/><rect class="cls-1" x="123.4" width="4" height="16.3"/><rect class="cls-1" x="131.2" width="4" height="16.3"/><rect class="cls-1" x="139" width="4" height="16.3"/><rect class="cls-1" x="146.8" width="4" height="16.3"/><rect class="cls-1" x="154.6" width="4" height="16.3"/><rect class="cls-1" x="162.4" width="4" height="16.3"/><rect class="cls-1" x="170.2" width="4" height="16.3"/><rect class="cls-1" x="178" width="4" height="16.3"/><rect class="cls-1" x="185.8" width="4" height="16.3"/><rect class="cls-1" x="193.6" width="4" height="16.3"/><rect class="cls-1" x="201.4" width="4" height="16.3"/><rect class="cls-1" x="209.2" width="4" height="16.3"/><rect class="cls-1" x="217.2" width="4" height="16.3"/><rect class="cls-1" x="225.1" width="4" height="16.3"/></g><g id="东边人行道"><rect class="cls-2" x="235.6" y="37.7" width="16.5" height="4"/><rect class="cls-2" x="235.6" y="29.9" width="16.5" height="4"/><rect class="cls-2" x="235.6" y="22.1" width="16.5" height="4"/><rect class="cls-2" x="235.6" y="45.5" width="16.5" height="4"/><rect class="cls-2" x="235.6" y="53.2" width="16.5" height="4"/><rect class="cls-2" x="235.6" y="60.9" width="16.5" height="4"/><rect class="cls-2" x="235.6" y="68.6" width="16.5" height="4"/><rect class="cls-2" x="235.6" y="76.4" width="16.5" height="4"/><rect class="cls-2" x="235.6" y="84.1" width="16.5" height="4"/><rect class="cls-2" x="235.6" y="91.8" width="16.5" height="4"/><rect class="cls-2" x="235.6" y="99.5" width="16.5" height="4"/><rect class="cls-2" x="235.6" y="107.2" width="16.5" height="4"/><rect class="cls-2" x="235.6" y="115" width="16.5" height="4"/><rect class="cls-2" x="235.6" y="122.7" width="16.5" height="4"/><rect class="cls-2" x="235.6" y="130.4" width="16.5" height="4"/><rect class="cls-2" x="235.6" y="138.1" width="16.5" height="4"/><rect class="cls-2" x="235.6" y="145.9" width="16.5" height="4"/><rect class="cls-2" x="235.6" y="153.6" width="16.5" height="4"/><rect class="cls-2" x="235.6" y="161.3" width="16.5" height="4"/><rect class="cls-2" x="235.6" y="169" width="16.5" height="4"/><rect class="cls-2" x="235.6" y="176.7" width="16.5" height="4"/><rect class="cls-2" x="235.6" y="184.5" width="16.5" height="4"/><rect class="cls-2" x="235.6" y="192.2" width="16.5" height="4"/><rect class="cls-2" x="235.6" y="199.9" width="16.5" height="4"/><rect class="cls-2" x="235.6" y="207.6" width="16.5" height="4"/><rect class="cls-2" x="235.6" y="215.9" width="16.5" height="4"/><rect class="cls-2" x="235.6" y="223.9" width="16.5" height="4"/></g><g id="西边人行道"><rect class="cls-2" y="37.7" width="16.5" height="4"/><rect class="cls-2" y="29.4" width="16.5" height="4"/><rect class="cls-2" y="21.5" width="16.5" height="4"/><rect class="cls-2" y="45.5" width="16.5" height="4"/><rect class="cls-2" y="53.2" width="16.5" height="4"/><rect class="cls-2" y="60.9" width="16.5" height="4"/><rect class="cls-2" y="68.6" width="16.5" height="4"/><rect class="cls-2" y="76.4" width="16.5" height="4"/><rect class="cls-2" y="84.1" width="16.5" height="4"/><rect class="cls-2" y="91.8" width="16.5" height="4"/><rect class="cls-2" y="99.5" width="16.5" height="4"/><rect class="cls-2" y="107.2" width="16.5" height="4"/><rect class="cls-2" y="115" width="16.5" height="4"/><rect class="cls-2" y="122.7" width="16.5" height="4"/><rect class="cls-2" y="130.4" width="16.5" height="4"/><rect class="cls-2" y="138.1" width="16.5" height="4"/><rect class="cls-2" y="145.9" width="16.5" height="4"/><rect class="cls-2" y="153.6" width="16.5" height="4"/><rect class="cls-2" y="161.3" width="16.5" height="4"/><rect class="cls-2" y="169" width="16.5" height="4"/><rect class="cls-2" y="176.7" width="16.5" height="4"/><rect class="cls-2" y="184.5" width="16.5" height="4"/><rect class="cls-2" y="192.2" width="16.5" height="4"/><rect class="cls-2" y="199.9" width="16.5" height="4"/><rect class="cls-2" y="207.6" width="16.5" height="4"/><rect class="cls-2" y="215.3" width="16.5" height="4"/><rect class="cls-2" y="223.6" width="16.5" height="4"/></g><g id="南边人行道"><rect class="cls-1" x="210.1" y="233.9" width="4" height="16.3"/><rect class="cls-1" x="218.1" y="233.9" width="4" height="16.3"/><rect class="cls-1" x="225.6" y="233.9" width="4" height="16.3"/><rect class="cls-1" x="202.3" y="233.9" width="4" height="16.3"/><rect class="cls-1" x="194.5" y="233.9" width="4" height="16.3"/><rect class="cls-1" x="186.7" y="233.9" width="4" height="16.3"/><rect class="cls-1" x="178.9" y="233.9" width="4" height="16.3"/><rect class="cls-1" x="171.1" y="233.9" width="4" height="16.3"/><rect class="cls-1" x="163.3" y="233.9" width="4" height="16.3"/><rect class="cls-1" x="155.5" y="233.9" width="4" height="16.3"/><rect class="cls-1" x="147.7" y="233.9" width="4" height="16.3"/><rect class="cls-1" x="139.9" y="233.9" width="4" height="16.3"/><rect class="cls-1" x="132" y="233.9" width="4" height="16.3"/><rect class="cls-1" x="124.2" y="233.9" width="4" height="16.3"/><rect class="cls-1" x="116.4" y="233.9" width="4" height="16.3"/><rect class="cls-1" x="108.6" y="233.9" width="4" height="16.3"/><rect class="cls-1" x="100.8" y="233.9" width="4" height="16.3"/><rect class="cls-1" x="93" y="233.9" width="4" height="16.3"/><rect class="cls-1" x="85.2" y="233.9" width="4" height="16.3"/><rect class="cls-1" x="77.4" y="233.9" width="4" height="16.3"/><rect class="cls-1" x="69.6" y="233.9" width="4" height="16.3"/><rect class="cls-1" x="61.8" y="233.9" width="4" height="16.3"/><rect class="cls-1" x="54" y="233.9" width="4" height="16.3"/><rect class="cls-1" x="46.2" y="233.9" width="4" height="16.3"/><rect class="cls-1" x="38.4" y="233.9" width="4" height="16.3"/><rect class="cls-1" x="30.9" y="233.9" width="4" height="16.3"/><rect class="cls-1" x="23.5" y="233.9" width="4" height="16.3"/></g></g></g></g></svg>