<?xml version="1.0" standalone="no"?><!DOCTYPE svg PUBLIC "-//W3C//DTD SVG 1.1//EN" "http://www.w3.org/Graphics/SVG/1.1/DTD/svg11.dtd"><svg t="1608104199853" class="icon" viewBox="0 0 1024 1024" version="1.1" xmlns="http://www.w3.org/2000/svg" p-id="6025" xmlns:xlink="http://www.w3.org/1999/xlink" width="200" height="200"><defs><style type="text/css"></style></defs><path d="M0 195.047619h170.666667v48.761905H0zM0 268.190476h170.666667v48.761905H0zM0 341.333333h170.666667v48.761905H0zM0 414.47619h170.666667v48.761905H0zM0 487.619048h170.666667v48.761904H0zM0 560.761905h170.666667v48.761905H0zM0 633.904762h170.666667v48.761905H0zM0 707.047619h170.666667v48.761905H0zM0 780.190476h170.666667v48.761905H0zM853.333333 195.047619h170.666667v48.761905h-170.666667zM853.333333 268.190476h170.666667v48.761905h-170.666667zM853.333333 341.333333h170.666667v48.761905h-170.666667zM853.333333 414.47619h170.666667v48.761905h-170.666667zM853.333333 487.619048h170.666667v48.761904h-170.666667zM853.333333 560.761905h170.666667v48.761905h-170.666667zM853.333333 633.904762h170.666667v48.761905h-170.666667zM853.333333 707.047619h170.666667v48.761905h-170.666667zM853.333333 780.190476h170.666667v48.761905h-170.666667z" fill="#CBD3DB" p-id="6026"></path><path d="M195.047619 853.333333h48.761905v170.666667H195.047619zM268.190476 853.333333h48.761905v170.666667h-48.761905zM341.333333 853.333333h48.761905v170.666667h-48.761905zM414.47619 853.333333h48.761905v170.666667h-48.761905zM487.619048 853.333333h48.761904v170.666667h-48.761904zM560.761905 853.333333h48.761905v170.666667h-48.761905zM633.904762 853.333333h48.761905v170.666667h-48.761905zM707.047619 853.333333h48.761905v170.666667h-48.761905zM780.190476 853.333333h48.761905v170.666667h-48.761905z" fill="#303133" p-id="6027"></path><path d="M195.047619 0h48.761905v170.666667H195.047619zM268.190476 0h48.761905v170.666667h-48.761905zM341.333333 0h48.761905v170.666667h-48.761905zM414.47619 0h48.761905v170.666667h-48.761905zM487.619048 0h48.761904v170.666667h-48.761904zM560.761905 0h48.761905v170.666667h-48.761905zM633.904762 0h48.761905v170.666667h-48.761905zM707.047619 0h48.761905v170.666667h-48.761905zM780.190476 0h48.761905v170.666667h-48.761905z" fill="#CBD3DB" p-id="6028"></path></svg>