<?xml version="1.0" encoding="utf-8"?>
<!-- Generator: Adobe Illustrator 23.0.0, SVG Export Plug-In . SVG Version: 6.00 Build 0)  -->
<svg version="1.1" id="图层_1" xmlns="http://www.w3.org/2000/svg" xmlns:xlink="http://www.w3.org/1999/xlink" x="0px" y="0px"
	 viewBox="0 0 870 650" style="enable-background:new 0 0 870 650;" xml:space="preserve">
<style type="text/css">
	.st0{fill:#3D3939;}
	.st1{opacity:0.9;}
	.st2{fill:#F2F2F2;}
	.st3{fill:#DDDDDD;}
	.st4{fill:#CCB63A;}
	.st5{fill:#1EAA39;}
	.st6{fill:#E5E5D8;}
</style>
<path class="st0" d="M305.9,217.4H-0.4l0,0v18V413v18l0,0h306.2c11.5,0,20.9,9.4,21,21v197.7l0,0h18h179.6h18l0,0V452
	c0-11.6,9.4-21,21-21h306.5l0,0v-18V235.4v-18l0,0H563.5"/>
<g id="人行道">
	<g class="st1">
		<rect x="544.6" y="236.8" class="st2" width="16.5" height="4"/>
		<rect x="544.6" y="229" class="st2" width="16.5" height="4"/>
		<rect x="544.6" y="221.2" class="st2" width="16.5" height="4"/>
		<rect x="544.6" y="244.6" class="st2" width="16.5" height="4"/>
		<rect x="544.6" y="252.3" class="st2" width="16.5" height="4"/>
		<rect x="544.6" y="260" class="st2" width="16.5" height="4"/>
		<rect x="544.6" y="267.7" class="st2" width="16.5" height="4"/>
		<rect x="544.6" y="275.5" class="st2" width="16.5" height="4"/>
		<rect x="544.6" y="283.2" class="st2" width="16.5" height="4"/>
		<rect x="544.6" y="290.9" class="st2" width="16.5" height="4"/>
		<rect x="544.6" y="298.6" class="st2" width="16.5" height="4"/>
		<rect x="544.6" y="306.3" class="st2" width="16.5" height="4"/>
		<rect x="544.6" y="314.1" class="st2" width="16.5" height="4"/>
		<rect x="544.6" y="321.8" class="st2" width="16.5" height="4"/>
		<rect x="544.6" y="329.5" class="st2" width="16.5" height="4"/>
		<rect x="544.6" y="337.2" class="st2" width="16.5" height="4"/>
		<rect x="544.6" y="345" class="st2" width="16.5" height="4"/>
		<rect x="544.6" y="352.7" class="st2" width="16.5" height="4"/>
		<rect x="544.6" y="360.4" class="st2" width="16.5" height="4"/>
		<rect x="544.6" y="368.1" class="st2" width="16.5" height="4"/>
		<rect x="544.6" y="375.8" class="st2" width="16.5" height="4"/>
		<rect x="544.6" y="383.6" class="st2" width="16.5" height="4"/>
		<rect x="544.6" y="391.3" class="st2" width="16.5" height="4"/>
		<rect x="544.6" y="399" class="st2" width="16.5" height="4"/>
		<rect x="544.6" y="406.7" class="st2" width="16.5" height="4"/>
		<rect x="544.6" y="415" class="st2" width="16.5" height="4"/>
		<rect x="544.6" y="423" class="st2" width="16.5" height="4"/>
	</g>
	<g class="st1">
		<rect x="309" y="236.8" class="st2" width="16.5" height="4"/>
		<rect x="309" y="228.5" class="st2" width="16.5" height="4"/>
		<rect x="309" y="220.6" class="st2" width="16.5" height="4"/>
		<rect x="309" y="244.6" class="st2" width="16.5" height="4"/>
		<rect x="309" y="252.3" class="st2" width="16.5" height="4"/>
		<rect x="309" y="260" class="st2" width="16.5" height="4"/>
		<rect x="309" y="267.7" class="st2" width="16.5" height="4"/>
		<rect x="309" y="275.5" class="st2" width="16.5" height="4"/>
		<rect x="309" y="283.2" class="st2" width="16.5" height="4"/>
		<rect x="309" y="290.9" class="st2" width="16.5" height="4"/>
		<rect x="309" y="298.6" class="st2" width="16.5" height="4"/>
		<rect x="309" y="306.3" class="st2" width="16.5" height="4"/>
		<rect x="309" y="314.1" class="st2" width="16.5" height="4"/>
		<rect x="309" y="321.8" class="st2" width="16.5" height="4"/>
		<rect x="309" y="329.5" class="st2" width="16.5" height="4"/>
		<rect x="309" y="337.2" class="st2" width="16.5" height="4"/>
		<rect x="309" y="345" class="st2" width="16.5" height="4"/>
		<rect x="309" y="352.7" class="st2" width="16.5" height="4"/>
		<rect x="309" y="360.4" class="st2" width="16.5" height="4"/>
		<rect x="309" y="368.1" class="st2" width="16.5" height="4"/>
		<rect x="309" y="375.8" class="st2" width="16.5" height="4"/>
		<rect x="309" y="383.6" class="st2" width="16.5" height="4"/>
		<rect x="309" y="391.3" class="st2" width="16.5" height="4"/>
		<rect x="309" y="399" class="st2" width="16.5" height="4"/>
		<rect x="309" y="406.7" class="st2" width="16.5" height="4"/>
		<rect x="309" y="414.4" class="st2" width="16.5" height="4"/>
		<rect x="309" y="422.7" class="st2" width="16.5" height="4"/>
	</g>
	<g class="st1">
		<g>
			<rect x="519.1" y="433" class="st2" width="4" height="16.3"/>
		</g>
		<g>
			<rect x="527.1" y="433" class="st2" width="4" height="16.3"/>
		</g>
		<g>
			<rect x="534.6" y="433" class="st2" width="4" height="16.3"/>
		</g>
		<g>
			<rect x="511.3" y="433" class="st2" width="4" height="16.3"/>
		</g>
		<g>
			<rect x="503.5" y="433" class="st2" width="4" height="16.3"/>
		</g>
		<g>
			<rect x="495.7" y="433" class="st2" width="4" height="16.3"/>
		</g>
		<g>
			<rect x="487.9" y="433" class="st2" width="4" height="16.3"/>
		</g>
		<g>
			<rect x="480.1" y="433" class="st2" width="4" height="16.3"/>
		</g>
		<g>
			<rect x="472.3" y="433" class="st2" width="4" height="16.3"/>
		</g>
		<g>
			<rect x="464.5" y="433" class="st2" width="4" height="16.3"/>
		</g>
		<g>
			<rect x="456.7" y="433" class="st2" width="4" height="16.3"/>
		</g>
		<g>
			<rect x="448.9" y="433" class="st2" width="4" height="16.3"/>
		</g>
		<g>
			<rect x="441" y="433" class="st2" width="4" height="16.3"/>
		</g>
		<g>
			<rect x="433.2" y="433" class="st2" width="4" height="16.3"/>
		</g>
		<g>
			<rect x="425.4" y="433" class="st2" width="4" height="16.3"/>
		</g>
		<g>
			<rect x="417.6" y="433" class="st2" width="4" height="16.3"/>
		</g>
		<g>
			<rect x="409.8" y="433" class="st2" width="4" height="16.3"/>
		</g>
		<g>
			<rect x="402" y="433" class="st2" width="4" height="16.3"/>
		</g>
		<g>
			<rect x="394.2" y="433" class="st2" width="4" height="16.3"/>
		</g>
		<g>
			<rect x="386.4" y="433" class="st2" width="4" height="16.3"/>
		</g>
		<g>
			<rect x="378.6" y="433" class="st2" width="4" height="16.3"/>
		</g>
		<g>
			<rect x="370.8" y="433" class="st2" width="4" height="16.3"/>
		</g>
		<g>
			<rect x="363" y="433" class="st2" width="4" height="16.3"/>
		</g>
		<g>
			<rect x="355.2" y="433" class="st2" width="4" height="16.3"/>
		</g>
		<g>
			<rect x="347.4" y="433" class="st2" width="4" height="16.3"/>
		</g>
		<g>
			<rect x="339.9" y="433" class="st2" width="4" height="16.3"/>
		</g>
		<g>
			<rect x="332.5" y="433" class="st2" width="4" height="16.3"/>
		</g>
	</g>
</g>
<g>
	<rect x="106.8" y="266.8" class="st3" width="11.6" height="2"/>
	<rect x="129.9" y="266.8" class="st3" width="11.6" height="2"/>
	<rect x="245.4" y="266.8" class="st3" width="11.6" height="2"/>
	<rect x="222.3" y="266.8" class="st3" width="11.6" height="2"/>
	<rect x="83.7" y="266.8" class="st3" width="11.6" height="2"/>
	<rect x="176.1" y="266.8" class="st3" width="11.6" height="2"/>
	<rect x="199.2" y="266.8" class="st3" width="11.6" height="2"/>
	<rect x="153" y="266.8" class="st3" width="11.6" height="2"/>
	<rect x="14.3" y="266.8" class="st3" width="11.6" height="2"/>
	<rect x="-0.3" y="266.8" class="st3" width="3.1" height="2"/>
	<rect x="37.4" y="266.8" class="st3" width="11.6" height="2"/>
	<rect x="268.6" y="266.8" class="st3" width="11.6" height="2"/>
	<rect x="60.5" y="266.8" class="st3" width="11.6" height="2"/>
	<rect x="291.7" y="266.8" class="st3" width="6" height="2"/>
	<rect x="199.2" y="297.1" class="st3" width="11.6" height="2"/>
	<rect x="222.3" y="297.1" class="st3" width="11.6" height="2"/>
	<rect x="268.6" y="297.1" class="st3" width="11.6" height="2"/>
	<rect x="245.4" y="297.1" class="st3" width="11.6" height="2"/>
	<rect x="153" y="297.1" class="st3" width="11.6" height="2"/>
	<rect x="60.5" y="297.1" class="st3" width="11.6" height="2"/>
	<rect x="14.3" y="297.1" class="st3" width="11.6" height="2"/>
	<rect x="37.4" y="297.1" class="st3" width="11.6" height="2"/>
	<rect x="176.1" y="297.1" class="st3" width="11.6" height="2"/>
	<rect x="-0.3" y="297.1" class="st3" width="3.1" height="2"/>
	<rect x="129.9" y="297.1" class="st3" width="11.6" height="2"/>
	<rect x="106.8" y="297.1" class="st3" width="11.6" height="2"/>
	<rect x="83.7" y="297.1" class="st3" width="11.6" height="2"/>
	<rect x="291.7" y="297.1" class="st3" width="6" height="2"/>
</g>
<g>
	<g>
		<rect x="-0.3" y="326.1" class="st4" width="298.2" height="2"/>
	</g>
	<rect x="-0.3" y="354.5" class="st3" width="297.2" height="2"/>
	<rect x="-0.3" y="236.1" class="st3" width="298" height="2"/>
	<rect x="-0.3" y="382.9" class="st3" width="297.2" height="2"/>
	<rect x="-0.3" y="411.3" class="st3" width="297.2" height="2"/>
	<polygon class="st3" points="296.9,400.7 296.9,398.2 296.9,364.6 296.9,362.2 296.9,326.1 298.9,326.1 298.9,431 296.9,431 	"/>
</g>
<g>
	<rect x="750.5" y="379.6" class="st3" width="11.6" height="2"/>
	<rect x="727.4" y="379.6" class="st3" width="11.6" height="2"/>
	<rect x="611.9" y="379.6" class="st3" width="11.6" height="2"/>
	<rect x="635" y="379.6" class="st3" width="11.6" height="2"/>
	<rect x="773.6" y="379.6" class="st3" width="11.6" height="2"/>
	<rect x="681.2" y="379.6" class="st3" width="11.6" height="2"/>
	<rect x="658.1" y="379.6" class="st3" width="11.6" height="2"/>
	<rect x="704.3" y="379.6" class="st3" width="11.6" height="2"/>
	<rect x="843" y="379.6" class="st3" width="11.6" height="2"/>
	<rect x="866.1" y="379.6" class="st3" width="3.8" height="2"/>
	<rect x="819.9" y="379.6" class="st3" width="11.6" height="2"/>
	<rect x="588.7" y="379.6" class="st3" width="11.6" height="2"/>
	<rect x="796.8" y="379.6" class="st3" width="11.6" height="2"/>
	<rect x="571.2" y="379.6" class="st3" width="6" height="2"/>
	<rect x="658.1" y="349.3" class="st3" width="11.6" height="2"/>
	<rect x="635" y="349.3" class="st3" width="11.6" height="2"/>
	<rect x="588.7" y="349.3" class="st3" width="11.6" height="2"/>
	<rect x="611.9" y="349.3" class="st3" width="11.6" height="2"/>
	<rect x="704.3" y="349.3" class="st3" width="11.6" height="2"/>
	<rect x="796.8" y="349.3" class="st3" width="11.6" height="2"/>
	<rect x="843" y="349.3" class="st3" width="11.6" height="2"/>
	<rect x="819.9" y="349.3" class="st3" width="11.6" height="2"/>
	<rect x="681.2" y="349.3" class="st3" width="11.6" height="2"/>
	<rect x="866.1" y="349.3" class="st3" width="3.8" height="2"/>
	<rect x="727.4" y="349.3" class="st3" width="11.6" height="2"/>
	<rect x="750.5" y="349.3" class="st3" width="11.6" height="2"/>
	<rect x="773.6" y="349.3" class="st3" width="11.6" height="2"/>
	<rect x="571.2" y="349.3" class="st3" width="6" height="2"/>
</g>
<g>
	<g>
		<rect x="570.6" y="319.6" class="st4" width="299.4" height="2"/>
	</g>
	<rect x="571.6" y="291.2" class="st3" width="298.4" height="2"/>
	<rect x="571.2" y="409.7" class="st3" width="298.7" height="2"/>
	<rect x="571.6" y="262.8" class="st3" width="298.4" height="2"/>
	<rect x="570.2" y="234.4" class="st3" width="299.8" height="2"/>
	<polygon class="st3" points="571.6,247.1 571.6,249.5 571.6,283.1 571.6,285.6 571.6,321.6 569.6,321.6 569.6,217.4 571.6,217.4 	
		"/>
</g>
<g>
	<rect x="377.5" y="640.5" class="st3" width="2" height="9.2"/>
	<rect x="377.5" y="617.4" class="st3" width="2" height="11.6"/>
	<rect x="377.5" y="501.9" class="st3" width="2" height="11.6"/>
	<rect x="377.5" y="525" class="st3" width="2" height="11.6"/>
	<rect x="377.5" y="571.2" class="st3" width="2" height="11.6"/>
	<rect x="377.5" y="548.1" class="st3" width="2" height="11.6"/>
	<rect x="377.5" y="594.3" class="st3" width="2" height="11.6"/>
	<rect x="377.5" y="478.7" class="st3" width="2" height="11.6"/>
	<rect x="377.5" y="461.2" class="st3" width="2" height="6"/>
	<rect x="407.8" y="548.1" class="st3" width="2" height="11.6"/>
	<rect x="407.8" y="525" class="st3" width="2" height="11.6"/>
	<rect x="407.8" y="478.7" class="st3" width="2" height="11.6"/>
	<rect x="407.8" y="501.9" class="st3" width="2" height="11.6"/>
	<rect x="407.8" y="594.3" class="st3" width="2" height="11.6"/>
	<rect x="407.8" y="571.2" class="st3" width="2" height="11.6"/>
	<rect x="407.8" y="617.4" class="st3" width="2" height="11.6"/>
	<rect x="407.8" y="640.5" class="st3" width="2" height="9.2"/>
	<rect x="407.8" y="461.2" class="st3" width="2" height="6"/>
</g>
<g>
	<g>
		<rect x="436.9" y="461" class="st4" width="2" height="188.7"/>
	</g>
	<rect x="465.3" y="462" class="st3" width="2" height="187.7"/>
	<rect x="347.1" y="461.2" class="st3" width="2" height="188.2"/>
	<rect x="493.7" y="462" class="st3" width="2" height="187.7"/>
	<rect x="522.1" y="462" class="st3" width="2" height="187.7"/>
	<polygon class="st3" points="511.6,462 509.2,462 475.5,462 473.1,462 436.9,462 436.9,460 542,460 542,462 	"/>
</g>
<path class="st5" d="M0.9,226.4L0.9,226.4C1,226.4,1.1,226.4,0.9,226.4z"/>
<path class="st5" d="M0.9,226.4L0.9,226.4C0.8,226.4,0.7,226.4,0.9,226.4z"/>
<path class="st6" d="M869.9,450H574c-6.9,0-12.5,5.6-12.5,12.5v187.2l0,0h1V462.5c0-6.3,5.1-11.5,11.5-11.5h295.9V450z"/>
<path class="st4" d="M869.9,434H561.6c-9.2,0-16.6,7.5-16.6,16.6v199.1h-3V450.6c0-10.8,8.8-19.6,19.6-19.6h308.3L869.9,434
	L869.9,434z"/>
<path class="st6" d="M-0.4,451h296c6.3,0,11.5,5.1,11.5,11.5v187.2h1l0,0V462.5c0-6.9-5.6-12.5-12.5-12.5h-296
	C-0.4,450-0.4,451-0.4,451z"/>
<path class="st4" d="M-0.4,434H308c9.2,0,16.6,7.5,16.6,16.6v199.1h3V450.6c0-10.8-8.8-19.6-19.6-19.6H-0.4V434z"/>
<g>
	<path class="st6" d="M869.9,197.4H-0.4v1h870.3"/>
</g>
<path class="st4" d="M869.9,217.4H-0.4v-3h870.3"/>
</svg>
