<?xml version="1.0" encoding="utf-8"?>
<!-- Generator: Adobe Illustrator 23.0.0, SVG Export Plug-In . SVG Version: 6.00 Build 0)  -->
<svg version="1.1" id="图层_1" xmlns="http://www.w3.org/2000/svg" xmlns:xlink="http://www.w3.org/1999/xlink" x="0px" y="0px"
	 viewBox="0 0 870 650" style="enable-background:new 0 0 870 650;" xml:space="preserve">
<style type="text/css">
	.st0{fill:#3D3939;}
	.st1{fill:#DDDDDD;}
	.st2{fill:#CCB63A;}
	.st3{fill:#E5E5D8;}
</style>
<g>
	<path class="st0" d="M326.8,451.9v197.7l0,0h18h179.6h18l0,0V452c0-11.6,9.4-21,21-21h306.5l0,0v-18V235.4v-18l0,0H563.5
		c-11.4,0-21-9.6-21-21V-0.3l0,0h-18H344.9h-18l0,0v196.7"/>
	<g>
		<rect x="750.5" y="379.6" class="st1" width="11.6" height="2"/>
		<rect x="727.4" y="379.6" class="st1" width="11.6" height="2"/>
		<rect x="611.9" y="379.6" class="st1" width="11.6" height="2"/>
		<rect x="635" y="379.6" class="st1" width="11.6" height="2"/>
		<rect x="773.6" y="379.6" class="st1" width="11.6" height="2"/>
		<rect x="681.2" y="379.6" class="st1" width="11.6" height="2"/>
		<rect x="658.1" y="379.6" class="st1" width="11.6" height="2"/>
		<rect x="704.3" y="379.6" class="st1" width="11.6" height="2"/>
		<rect x="843" y="379.6" class="st1" width="11.6" height="2"/>
		<rect x="866.1" y="379.6" class="st1" width="3.8" height="2"/>
		<rect x="819.9" y="379.6" class="st1" width="11.6" height="2"/>
		<rect x="588.7" y="379.6" class="st1" width="11.6" height="2"/>
		<rect x="796.8" y="379.6" class="st1" width="11.6" height="2"/>
		<rect x="571.2" y="379.6" class="st1" width="6" height="2"/>
		<rect x="658.1" y="349.3" class="st1" width="11.6" height="2"/>
		<rect x="635" y="349.3" class="st1" width="11.6" height="2"/>
		<rect x="588.7" y="349.3" class="st1" width="11.6" height="2"/>
		<rect x="611.9" y="349.3" class="st1" width="11.6" height="2"/>
		<rect x="704.3" y="349.3" class="st1" width="11.6" height="2"/>
		<rect x="796.8" y="349.3" class="st1" width="11.6" height="2"/>
		<rect x="843" y="349.3" class="st1" width="11.6" height="2"/>
		<rect x="819.9" y="349.3" class="st1" width="11.6" height="2"/>
		<rect x="681.2" y="349.3" class="st1" width="11.6" height="2"/>
		<rect x="866.1" y="349.3" class="st1" width="3.8" height="2"/>
		<rect x="727.4" y="349.3" class="st1" width="11.6" height="2"/>
		<rect x="750.5" y="349.3" class="st1" width="11.6" height="2"/>
		<rect x="773.6" y="349.3" class="st1" width="11.6" height="2"/>
		<rect x="571.2" y="349.3" class="st1" width="6" height="2"/>
	</g>
	<g>
		<g>
			<rect x="570.5" y="319.6" class="st2" width="299.4" height="2"/>
		</g>
		<rect x="571.5" y="291.2" class="st1" width="298.4" height="2"/>
		<rect x="571.2" y="409.7" class="st1" width="298.7" height="2"/>
		<rect x="571.5" y="262.8" class="st1" width="298.4" height="2"/>
		<rect x="570.1" y="234.4" class="st1" width="299.8" height="2"/>
		<polygon class="st1" points="571.5,247.1 571.5,249.5 571.5,283.1 571.5,285.6 571.5,321.6 569.5,321.6 569.5,216.8 571.5,216.8 
					"/>
	</g>
	<g>
		<rect x="489.5" y="-0.3" class="st1" width="2" height="9"/>
		<rect x="489.5" y="20.2" class="st1" width="2" height="11.6"/>
		<rect x="489.5" y="135.7" class="st1" width="2" height="11.6"/>
		<rect x="489.5" y="112.6" class="st1" width="2" height="11.6"/>
		<rect x="489.5" y="66.4" class="st1" width="2" height="11.6"/>
		<rect x="489.5" y="89.5" class="st1" width="2" height="11.6"/>
		<rect x="489.5" y="43.3" class="st1" width="2" height="11.6"/>
		<rect x="489.5" y="158.9" class="st1" width="2" height="11.6"/>
		<rect x="489.5" y="182" class="st1" width="2" height="6"/>
		<rect x="459.2" y="89.5" class="st1" width="2" height="11.6"/>
		<rect x="459.2" y="112.6" class="st1" width="2" height="11.6"/>
		<rect x="459.2" y="158.9" class="st1" width="2" height="11.6"/>
		<rect x="459.2" y="135.7" class="st1" width="2" height="11.6"/>
		<rect x="459.2" y="43.3" class="st1" width="2" height="11.6"/>
		<rect x="459.2" y="66.4" class="st1" width="2" height="11.6"/>
		<rect x="459.2" y="20.2" class="st1" width="2" height="11.6"/>
		<rect x="459.2" y="-0.3" class="st1" width="2" height="9"/>
		<rect x="459.2" y="182" class="st1" width="2" height="6"/>
	</g>
	<g>
		<g>
			<rect x="430.2" y="-0.3" class="st2" width="2" height="188.4"/>
		</g>
		<rect x="401.8" y="-0.3" class="st1" width="2" height="187.4"/>
		<rect x="373.4" y="-0.3" class="st1" width="2" height="187.4"/>
		<rect x="345" y="-0.3" class="st1" width="2" height="187.4"/>
		<rect x="520.1" y="-0.3" class="st1" width="2" height="188.3"/>
		<polyline class="st1" points="432.2,187.1 432.2,189.1 327.6,189.1 327.6,187.1 		"/>
	</g>
	<g>
		<rect x="377.5" y="640.5" class="st1" width="2" height="9.2"/>
		<rect x="377.5" y="617.4" class="st1" width="2" height="11.6"/>
		<rect x="377.5" y="501.9" class="st1" width="2" height="11.6"/>
		<rect x="377.5" y="525" class="st1" width="2" height="11.6"/>
		<rect x="377.5" y="571.2" class="st1" width="2" height="11.6"/>
		<rect x="377.5" y="548.1" class="st1" width="2" height="11.6"/>
		<rect x="377.5" y="594.3" class="st1" width="2" height="11.6"/>
		<rect x="377.5" y="478.7" class="st1" width="2" height="11.6"/>
		<rect x="377.5" y="461.2" class="st1" width="2" height="6"/>
		<rect x="407.8" y="548.1" class="st1" width="2" height="11.6"/>
		<rect x="407.8" y="525" class="st1" width="2" height="11.6"/>
		<rect x="407.8" y="478.7" class="st1" width="2" height="11.6"/>
		<rect x="407.8" y="501.9" class="st1" width="2" height="11.6"/>
		<rect x="407.8" y="594.3" class="st1" width="2" height="11.6"/>
		<rect x="407.8" y="571.2" class="st1" width="2" height="11.6"/>
		<rect x="407.8" y="617.4" class="st1" width="2" height="11.6"/>
		<rect x="407.8" y="640.5" class="st1" width="2" height="9.2"/>
		<rect x="407.8" y="461.2" class="st1" width="2" height="6"/>
	</g>
	<g>
		<g>
			<rect x="436.9" y="461" class="st2" width="2" height="188.7"/>
		</g>
		<rect x="465.3" y="462" class="st1" width="2" height="187.7"/>
		<rect x="347" y="461.2" class="st1" width="2" height="188.2"/>
		<rect x="493.7" y="462" class="st1" width="2" height="187.7"/>
		<rect x="522.1" y="462" class="st1" width="2" height="187.7"/>
		<polygon class="st1" points="511.6,462 509.2,462 475.5,462 473,462 436.9,462 436.9,460 542,460 542,462 		"/>
	</g>
	<path class="st3" d="M869.9,197.4h-296c-6.3,0-11.5-5.1-11.5-11.5V-0.3h-1l0,0v186.2c0,6.9,5.6,12.5,12.5,12.5h295.9L869.9,197.4
		L869.9,197.4z"/>
	<path class="st2" d="M869.9,214.4H561.6c-9.2,0-16.6-7.5-16.6-16.6V-0.3h-3v198.1c0,10.8,8.8,19.6,19.6,19.6h308.3L869.9,214.4
		L869.9,214.4z"/>
	<path class="st3" d="M869.9,450h-296c-6.9,0-12.5,5.6-12.5,12.5v187.2l0,0h1V462.5c0-6.3,5.1-11.5,11.5-11.5h295.9L869.9,450
		L869.9,450z"/>
	<path class="st2" d="M869.9,434H561.6c-9.2,0-16.6,7.5-16.6,16.6v199.1h-3V450.6c0-10.8,8.8-19.6,19.6-19.6h308.3L869.9,434
		L869.9,434z"/>
	<g>
		<path class="st3" d="M308.1,649.7v-650l0,0h-1v650"/>
	</g>
	<rect x="324.6" y="-0.3" class="st2" width="3" height="650"/>
</g>
</svg>
