<?xml version="1.0" standalone="no"?><!DOCTYPE svg PUBLIC "-//W3C//DTD SVG 1.1//EN" "http://www.w3.org/Graphics/SVG/1.1/DTD/svg11.dtd"><svg t="1586399912204" class="icon" viewBox="0 0 1024 1024" version="1.1" xmlns="http://www.w3.org/2000/svg" p-id="2431" xmlns:xlink="http://www.w3.org/1999/xlink" width="200" height="200"><defs><style type="text/css"></style></defs><path d="M714.1 618.9c17.3-31.8 27.1-68.3 27.1-106.9 0-123.7-100.3-224-224-224-28.3 0-55.3 5.2-80.1 14.8l57.7 57.8c35.5 35.5 35.5 93.6 0 129-35.5 35.5-93.5 35.5-128.9 0l-57.7-57.8c-9.5 24.9-14.8 51.9-14.8 80.1 0 123.7 100.3 224.1 224 224.1 38.8 0 75.2-9.8 106.9-27.1l163.8 163.8c24.7 24.7 65.2 24.7 89.9 0 24.7-24.7 24.7-65.2 0-89.9L714.1 618.9z m117.8 241.9c-16.7 0-30.3-13.5-30.3-30.3 0-16.7 13.5-30.3 30.3-30.3 16.7 0 30.3 13.5 30.3 30.3-0.1 16.8-13.6 30.3-30.3 30.3zM886 453.2c-4.1-25.9-10.9-50.9-20.1-74.9l68.6-39.7L875.9 237l-68.7 39.7c-16.3-20.1-34.7-38.5-54.8-54.8l39.7-68.8-101.6-58.4-39.6 68.6c-23.8-9.2-48.9-15.9-74.9-20.1V64H458.7v79.3c-25.9 4.1-50.9 10.9-74.9 20.1l-39.7-68.6-101.6 58.7 39.7 68.8c-20.1 16.3-38.5 34.7-54.8 54.8l-68.7-39.7-58.6 101.5 68.6 39.7c-9.2 23.8-15.9 49-20.1 74.9H69.5v117.3h79.3c4.1 25.9 10.9 50.9 20.1 74.9l-68.6 39.7L158.8 787l68.7-39.7c16.3 20.1 34.7 38.5 54.8 54.8l-39.7 68.7 101.6 58.6 39.7-68.7c23.8 9.2 48.9 15.9 74.9 20.1V960H576v-79.3c12.1-1.9 23.8-4.5 35.5-7.5L588 796.6c-22.6 5.6-46.4 8.6-70.7 8.6-162 0-293.2-131.4-293.2-293.3s131.3-293.3 293.2-293.3S810.5 350 810.5 511.9c0 28.4-4.2 55.9-11.7 81.9l75.6 25.8c4.8-15.9 8.7-32.2 11.4-49h68.6V453.2H886z" fill="" p-id="2432"></path></svg>