<svg xmlns="http://www.w3.org/2000/svg" viewBox="0 0 26 26"><defs><style>.cls-1{fill:#459ffc;}.cls-2{fill:#fff;}</style></defs><title>周期</title><g id="图层_2" data-name="图层 2"><g id="图层_1-2" data-name="图层 1"><circle class="cls-1" cx="13" cy="13" r="13"/><path class="cls-2" d="M21.64,6.67l-2.46.9a8.4,8.4,0,1,0-.92,11.84A8.31,8.31,0,0,0,20.18,17,.68.68,0,0,0,19,16.42h0a7.13,7.13,0,1,1-2.86-9.67,7.23,7.23,0,0,1,1.71,1.3l-2.26.83L20.49,13Z"/><path class="cls-2" d="M11,10.27a.64.64,0,0,0-.64.64v4a.64.64,0,0,0,.64.64h4a.65.65,0,0,0,0-1.29H11.66V10.91a.64.64,0,0,0-.64-.64Z"/></g></g></svg>