<svg 
 xmlns="http://www.w3.org/2000/svg"
 xmlns:xlink="http://www.w3.org/1999/xlink"
 width="56px" height="31px">
<path fill-rule="evenodd"  fill="rgb(124, 204, 102)"
 d="M0.902,16.828 L34.321,16.828 L34.321,25.685 L0.902,25.685 L0.902,16.828 Z"/>
<path fill-rule="evenodd"  fill="rgb(124, 204, 102)"
 d="M21.901,16.828 L55.321,16.828 L55.321,25.685 L21.901,25.685 L21.901,16.828 Z"/>
<path fill-rule="evenodd"  fill="rgb(124, 204, 102)"
 d="M24.193,10.000 L19.796,10.000 C18.800,10.000 17.989,9.233 17.989,8.292 L17.989,6.147 C17.989,5.205 18.800,4.439 19.796,4.439 L24.193,4.439 C25.189,4.439 26.000,5.205 26.000,6.147 L26.000,8.292 C26.000,9.233 25.189,10.000 24.193,10.000 ZM23.691,3.725 L23.691,2.798 C23.691,1.914 22.930,1.195 21.994,1.195 C21.059,1.195 20.298,1.914 20.298,2.798 L20.298,3.725 L19.796,3.725 C19.526,3.725 19.269,3.784 19.039,3.885 L19.039,2.798 C19.039,1.258 20.365,0.005 21.994,0.005 C23.624,0.005 24.950,1.258 24.950,2.798 L24.950,3.885 C24.719,3.784 24.463,3.725 24.193,3.725 L23.691,3.725 Z"/>
<path fill-rule="evenodd"  fill="rgb(242, 121, 121)"
 d="M1.321,16.828 L22.094,16.828 L22.094,25.685 L1.321,25.685 L1.321,16.828 Z"/>
<path fill-rule="evenodd"  fill="rgb(124, 204, 102)"
 d="M21.417,12.399 L23.223,12.399 L23.223,30.114 L21.417,30.114 L21.417,12.399 Z"/>
</svg>
