<svg xmlns="http://www.w3.org/2000/svg" viewBox="0 0 26 26"><defs><style>.cls-1{fill:#459ffc;}.cls-2{fill:#fff;}</style></defs><title>时间</title><g id="图层_2" data-name="图层 2"><g id="图层_1-2" data-name="图层 1"><circle class="cls-1" cx="13" cy="13" r="13"/><path class="cls-2" d="M13,4.68A8.31,8.31,0,1,0,21.31,13,8.31,8.31,0,0,0,13,4.68ZM13,20a7,7,0,1,1,7-7h0A7,7,0,0,1,13,20Z"/><path class="cls-2" d="M15.64,13.72H12.28V10.34a.64.64,0,0,0-1.28,0h0v4a.64.64,0,0,0,.64.64h4a.64.64,0,0,0,0-1.28Z"/></g></g></svg>