<?xml version="1.0" standalone="no"?><!DOCTYPE svg PUBLIC "-//W3C//DTD SVG 1.1//EN" "http://www.w3.org/Graphics/SVG/1.1/DTD/svg11.dtd"><svg t="1584326680584" class="icon" viewBox="0 0 1024 1024" version="1.1" xmlns="http://www.w3.org/2000/svg" p-id="4671" xmlns:xlink="http://www.w3.org/1999/xlink" width="200" height="200"><defs><style type="text/css"></style></defs><path d="M667.875206 559.551892a301.599165 301.599165 0 1 0-312.553129 0A456.415201 456.415201 0 0 0 55.18344 987.486784a36.513216 36.513216 0 0 0 36.513216 36.513216 36.513216 36.513216 0 0 0 36.513217-36.513216 383.388769 383.388769 0 1 1 766.777537 0 36.513216 36.513216 0 0 0 73.026432 0 456.415201 456.415201 0 0 0-300.138636-427.934892zM283.025909 302.49885a228.572733 228.572733 0 1 1 228.572732 228.572733 228.572733 228.572733 0 0 1-228.572732-228.572733z" fill="#606060" p-id="4672"></path></svg>