<?xml version="1.0" standalone="no"?>
<!DOCTYPE svg PUBLIC "-//W3C//DTD SVG 1.1//EN" "http://www.w3.org/Graphics/SVG/1.1/DTD/svg11.dtd" >
<!--
2013-9-30: Created.
-->
<svg>
<metadata>
Created by iconfont
</metadata>
<defs>

<font id="iconfont" horiz-adv-x="1024" >
  <font-face
    font-family="iconfont"
    font-weight="500"
    font-stretch="normal"
    units-per-em="1024"
    ascent="896"
    descent="-128"
  />
    <missing-glyph />
    
    <glyph glyph-name="xihangren1" unicode="&#59045;" d="M0 700.952381h170.666667v-48.761905H0zM0 627.809524h170.666667v-48.761905H0zM0 554.666667h170.666667v-48.761905H0zM0 481.52381h170.666667v-48.761905H0zM0 408.380952h170.666667v-48.761904H0zM0 335.238095h170.666667v-48.761905H0zM0 262.095238h170.666667v-48.761905H0zM0 188.952381h170.666667v-48.761905H0zM0 115.809524h170.666667v-48.761905H0zM853.333333 700.952381h170.666667v-48.761905h-170.666667zM853.333333 627.809524h170.666667v-48.761905h-170.666667zM853.333333 554.666667h170.666667v-48.761905h-170.666667zM853.333333 481.52381h170.666667v-48.761905h-170.666667zM853.333333 408.380952h170.666667v-48.761904h-170.666667zM853.333333 335.238095h170.666667v-48.761905h-170.666667zM853.333333 262.095238h170.666667v-48.761905h-170.666667zM853.333333 188.952381h170.666667v-48.761905h-170.666667zM853.333333 115.809524h170.666667v-48.761905h-170.666667zM195.047619 42.666667h48.761905v-170.666667H195.047619zM268.190476 42.666667h48.761905v-170.666667h-48.761905zM341.333333 42.666667h48.761905v-170.666667h-48.761905zM414.47619 42.666667h48.761905v-170.666667h-48.761905zM487.619048 42.666667h48.761904v-170.666667h-48.761904zM560.761905 42.666667h48.761905v-170.666667h-48.761905zM633.904762 42.666667h48.761905v-170.666667h-48.761905zM707.047619 42.666667h48.761905v-170.666667h-48.761905zM780.190476 42.666667h48.761905v-170.666667h-48.761905zM195.047619 896h48.761905v-170.666667H195.047619zM268.190476 896h48.761905v-170.666667h-48.761905zM341.333333 896h48.761905v-170.666667h-48.761905zM414.47619 896h48.761905v-170.666667h-48.761905zM487.619048 896h48.761904v-170.666667h-48.761904zM560.761905 896h48.761905v-170.666667h-48.761905zM633.904762 896h48.761905v-170.666667h-48.761905zM707.047619 896h48.761905v-170.666667h-48.761905zM780.190476 896h48.761905v-170.666667h-48.761905z"  horiz-adv-x="1024" />

    
    <glyph glyph-name="donghangren" unicode="&#59041;" d="M0 700.952381h170.666667v-48.761905H0zM0 627.809524h170.666667v-48.761905H0zM0 554.666667h170.666667v-48.761905H0zM0 481.52381h170.666667v-48.761905H0zM0 408.380952h170.666667v-48.761904H0zM0 335.238095h170.666667v-48.761905H0zM0 262.095238h170.666667v-48.761905H0zM0 188.952381h170.666667v-48.761905H0zM0 115.809524h170.666667v-48.761905H0zM853.333333 700.952381h170.666667v-48.761905h-170.666667zM853.333333 627.809524h170.666667v-48.761905h-170.666667zM853.333333 554.666667h170.666667v-48.761905h-170.666667zM853.333333 481.52381h170.666667v-48.761905h-170.666667zM853.333333 408.380952h170.666667v-48.761904h-170.666667zM853.333333 335.238095h170.666667v-48.761905h-170.666667zM853.333333 262.095238h170.666667v-48.761905h-170.666667zM853.333333 188.952381h170.666667v-48.761905h-170.666667zM853.333333 115.809524h170.666667v-48.761905h-170.666667zM195.047619 42.666667h48.761905v-170.666667H195.047619zM268.190476 42.666667h48.761905v-170.666667h-48.761905zM341.333333 42.666667h48.761905v-170.666667h-48.761905zM414.47619 42.666667h48.761905v-170.666667h-48.761905zM487.619048 42.666667h48.761904v-170.666667h-48.761904zM560.761905 42.666667h48.761905v-170.666667h-48.761905zM633.904762 42.666667h48.761905v-170.666667h-48.761905zM707.047619 42.666667h48.761905v-170.666667h-48.761905zM780.190476 42.666667h48.761905v-170.666667h-48.761905zM195.047619 896h48.761905v-170.666667H195.047619zM268.190476 896h48.761905v-170.666667h-48.761905zM341.333333 896h48.761905v-170.666667h-48.761905zM414.47619 896h48.761905v-170.666667h-48.761905zM487.619048 896h48.761904v-170.666667h-48.761904zM560.761905 896h48.761905v-170.666667h-48.761905zM633.904762 896h48.761905v-170.666667h-48.761905zM707.047619 896h48.761905v-170.666667h-48.761905zM780.190476 896h48.761905v-170.666667h-48.761905z"  horiz-adv-x="1024" />

    
    <glyph glyph-name="nanhangren" unicode="&#59042;" d="M0 700.952381h170.666667v-48.761905H0zM0 627.809524h170.666667v-48.761905H0zM0 554.666667h170.666667v-48.761905H0zM0 481.52381h170.666667v-48.761905H0zM0 408.380952h170.666667v-48.761904H0zM0 335.238095h170.666667v-48.761905H0zM0 262.095238h170.666667v-48.761905H0zM0 188.952381h170.666667v-48.761905H0zM0 115.809524h170.666667v-48.761905H0zM853.333333 700.952381h170.666667v-48.761905h-170.666667zM853.333333 627.809524h170.666667v-48.761905h-170.666667zM853.333333 554.666667h170.666667v-48.761905h-170.666667zM853.333333 481.52381h170.666667v-48.761905h-170.666667zM853.333333 408.380952h170.666667v-48.761904h-170.666667zM853.333333 335.238095h170.666667v-48.761905h-170.666667zM853.333333 262.095238h170.666667v-48.761905h-170.666667zM853.333333 188.952381h170.666667v-48.761905h-170.666667zM853.333333 115.809524h170.666667v-48.761905h-170.666667zM195.047619 42.666667h48.761905v-170.666667H195.047619zM268.190476 42.666667h48.761905v-170.666667h-48.761905zM341.333333 42.666667h48.761905v-170.666667h-48.761905zM414.47619 42.666667h48.761905v-170.666667h-48.761905zM487.619048 42.666667h48.761904v-170.666667h-48.761904zM560.761905 42.666667h48.761905v-170.666667h-48.761905zM633.904762 42.666667h48.761905v-170.666667h-48.761905zM707.047619 42.666667h48.761905v-170.666667h-48.761905zM780.190476 42.666667h48.761905v-170.666667h-48.761905zM195.047619 896h48.761905v-170.666667H195.047619zM268.190476 896h48.761905v-170.666667h-48.761905zM341.333333 896h48.761905v-170.666667h-48.761905zM414.47619 896h48.761905v-170.666667h-48.761905zM487.619048 896h48.761904v-170.666667h-48.761904zM560.761905 896h48.761905v-170.666667h-48.761905zM633.904762 896h48.761905v-170.666667h-48.761905zM707.047619 896h48.761905v-170.666667h-48.761905zM780.190476 896h48.761905v-170.666667h-48.761905z"  horiz-adv-x="1024" />

    
    <glyph glyph-name="beihangren" unicode="&#59044;" d="M0 700.952381h170.666667v-48.761905H0zM0 627.809524h170.666667v-48.761905H0zM0 554.666667h170.666667v-48.761905H0zM0 481.52381h170.666667v-48.761905H0zM0 408.380952h170.666667v-48.761904H0zM0 335.238095h170.666667v-48.761905H0zM0 262.095238h170.666667v-48.761905H0zM0 188.952381h170.666667v-48.761905H0zM0 115.809524h170.666667v-48.761905H0zM853.333333 700.952381h170.666667v-48.761905h-170.666667zM853.333333 627.809524h170.666667v-48.761905h-170.666667zM853.333333 554.666667h170.666667v-48.761905h-170.666667zM853.333333 481.52381h170.666667v-48.761905h-170.666667zM853.333333 408.380952h170.666667v-48.761904h-170.666667zM853.333333 335.238095h170.666667v-48.761905h-170.666667zM853.333333 262.095238h170.666667v-48.761905h-170.666667zM853.333333 188.952381h170.666667v-48.761905h-170.666667zM853.333333 115.809524h170.666667v-48.761905h-170.666667zM195.047619 42.666667h48.761905v-170.666667H195.047619zM268.190476 42.666667h48.761905v-170.666667h-48.761905zM341.333333 42.666667h48.761905v-170.666667h-48.761905zM414.47619 42.666667h48.761905v-170.666667h-48.761905zM487.619048 42.666667h48.761904v-170.666667h-48.761904zM560.761905 42.666667h48.761905v-170.666667h-48.761905zM633.904762 42.666667h48.761905v-170.666667h-48.761905zM707.047619 42.666667h48.761905v-170.666667h-48.761905zM780.190476 42.666667h48.761905v-170.666667h-48.761905zM195.047619 896h48.761905v-170.666667H195.047619zM268.190476 896h48.761905v-170.666667h-48.761905zM341.333333 896h48.761905v-170.666667h-48.761905zM414.47619 896h48.761905v-170.666667h-48.761905zM487.619048 896h48.761904v-170.666667h-48.761904zM560.761905 896h48.761905v-170.666667h-48.761905zM633.904762 896h48.761905v-170.666667h-48.761905zM707.047619 896h48.761905v-170.666667h-48.761905zM780.190476 896h48.761905v-170.666667h-48.761905z"  horiz-adv-x="1024" />

    
    <glyph glyph-name="lvbo" unicode="&#59040;" d="M1008.847414 895.9523a60.419546 60.419546 0 0 1-59.624552-59.624551V593.854572L593.860534 418.955887V836.327749A59.624552 59.624552 0 0 1 476.996413 836.327749v-470.636461L119.249103 194.767573V836.327749A60.419546 60.419546 0 0 1 59.624552 895.9523 60.419546 60.419546 0 0 1 0 836.327749v-904.703197a59.624552 59.624552 0 0 1 119.249103 0v130.379019L476.996413 232.927286v-301.302734a59.624552 59.624552 0 0 1 119.249104 0V290.166856l355.362327 170.923714v-529.466018a59.624552 59.624552 0 0 1 119.249104 0V836.327749a59.624552 59.624552 0 0 1-62.009534 59.624551z"  horiz-adv-x="1070" />

    
    <glyph glyph-name="zishiying" unicode="&#59039;" d="M431.542857 771.657143H157.257143C106.057143 771.657143 62.171429 731.428571 62.171429 676.571429v-585.142858c0-51.2 40.228571-95.085714 95.085714-95.085714h274.285714c51.2 0 95.085714 40.228571 95.085714 95.085714V676.571429c0 54.857143-43.885714 95.085714-95.085714 95.085714z m21.942857-680.228572c0-10.971429-7.314286-21.942857-21.942857-21.942857H157.257143c-10.971429 0-21.942857 7.314286-21.942857 21.942857V676.571429c0 10.971429 7.314286 21.942857 21.942857 21.942857h274.285714c10.971429 0 21.942857-7.314286 21.942857-21.942857v-585.142858zM819.2 724.114286c-14.628571 14.628571-36.571429 14.628571-51.2 0-14.628571-14.628571-14.628571-36.571429 0-51.2 76.8-76.8 120.685714-179.2 120.685714-288.914286s-43.885714-212.114286-120.685714-288.914286c-14.628571-14.628571-14.628571-36.571429 0-51.2 7.314286-7.314286 18.285714-10.971429 25.6-10.971428 10.971429 0 18.285714 3.657143 25.6 10.971428 91.428571 91.428571 142.628571 212.114286 142.628571 340.114286s-51.2 248.685714-142.628571 340.114286zM709.485714 592.457143c-14.628571 14.628571-36.571429 14.628571-51.2 0s-14.628571-36.571429 0-51.2c43.885714-40.228571 65.828571-98.742857 65.828572-157.257143s-21.942857-117.028571-65.828572-157.257143c-14.628571-14.628571-14.628571-36.571429 0-51.2 7.314286-7.314286 18.285714-10.971429 25.6-10.971428 10.971429 0 18.285714 3.657143 25.6 10.971428 54.857143 54.857143 87.771429 131.657143 87.771429 208.457143 0 80.457143-29.257143 153.6-87.771429 208.457143zM610.742857 438.857143h-3.657143c-18.285714 0-32.914286-14.628571-32.914285-32.914286v-40.228571c0-18.285714 14.628571-32.914286 32.914285-32.914286h3.657143c18.285714 0 32.914286 14.628571 32.914286 32.914286v40.228571c0 18.285714-14.628571 32.914286-32.914286 32.914286z"  horiz-adv-x="1024" />

    
    <glyph glyph-name="gengduoguanyu" unicode="&#59038;" d="M512 765.720102m-130.279898 0a130.279898 130.279898 0 1 1 260.559796 0 130.279898 130.279898 0 1 1-260.559796 0ZM512 384m-130.279898 0a130.279898 130.279898 0 1 1 260.559796 0 130.279898 130.279898 0 1 1-260.559796 0ZM512 2.279898m-130.279898 0a130.279898 130.279898 0 1 1 260.559796 0 130.279898 130.279898 0 1 1-260.559796 0Z"  horiz-adv-x="1024" />

    
    <glyph glyph-name="baoheshuju" unicode="&#59036;" d="M894.666503 340.747719a354.987132 354.987132 0 0 1-44.919285 96.077361l-7.486548 11.8537L543.422645 880.403026a39.928254 39.928254 0 0 1-62.387897 0L185.939996 454.293691l-4.367152-5.614911-8.110427-11.8537A374.32738 374.32738 0 0 1 128.543131 340.747719 374.32738 374.32738 0 0 1 114.817794 242.798721a384.309444 384.309444 0 0 1 396.787023-370.584107 384.933323 384.933323 0 0 1 397.410903 370.584107 347.500585 347.500585 0 0 1-14.349217 97.948998zM190.931028 242.798721a264.524682 264.524682 0 0 0 11.229821 76.113234A260.157529 260.157529 0 0 0 239.593588 396.896826l272.635108 394.915386 249.551587-359.978164-499.103174-369.960228a276.378383 276.378383 0 0 0-71.746081 180.924901z"  horiz-adv-x="1024" />

    
    <glyph glyph-name="lukoushuju" unicode="&#59037;" d="M1070.655699 498.296385a76.427097 76.427097 0 0 1-76.427097 76.427096h-262.422243V819.560729a77.103443 77.103443 0 0 1-153.530539 0V422.545634h415.952782a75.750751 75.750751 0 0 1 76.427097 75.750751zM994.228602 346.118538H578.27582V-50.896557a77.103443 77.103443 0 0 1 153.530539 0v244.160901h262.422243a76.427097 76.427097 0 1 1 0 152.854194zM415.952783 895.987826A76.427097 76.427097 0 0 1 338.172994 819.560729v-244.837248H76.427097a76.427097 76.427097 0 0 1 0-152.177847h415.952782V819.560729A77.103443 77.103443 0 0 1 415.952783 895.987826zM0 269.691441a77.103443 77.103443 0 0 1 76.427097-76.427097H338.172994V-50.896557a76.427097 76.427097 0 1 1 152.854193 0V346.118538H76.427097A77.103443 77.103443 0 0 1 0 269.691441z"  horiz-adv-x="1070" />

    
    <glyph glyph-name="lianmengshiyanshilogo" unicode="&#59035;" d="M436.900763 536.591636l-92.587794 92.587793a54.605832 54.605832 0 0 0 0 77.208345l96.118168 96.118168a54.578779 54.578779 0 0 1 0 77.194819l-0.297579 0.311106a54.605832 54.605832 0 0 1-77.208346 0L15.988133 533.061261a54.605832 54.605832 0 0 1 0-77.208345l0.311106-0.29758a54.578779 54.578779 0 0 1 77.194819 0l96.118168 96.118168a54.605832 54.605832 0 0 0 77.208345 0L359.408364 459.099237a54.605832 54.605832 0 0 1 77.208346 0l0.297579 0.29758a54.605832 54.605832 0 0 1-0.013526 77.194819zM344.597023 138.822573l92.425477 92.411951a54.605832 54.605832 0 0 1 0 77.208345l-0.311106 0.29758a54.565253 54.565253 0 0 1-77.194819 0l-92.425477-92.411951a54.578779 54.578779 0 0 0-77.208345 0l-96.118168 96.118168a54.605832 54.605832 0 0 1-77.208346 0l-0.297579-0.311106a54.578779 54.578779 0 0 1 0-77.194819l346.950606-346.950606a54.578779 54.578779 0 0 1 77.194819 0l0.311105 0.29758a54.605832 54.605832 0 0 1 0 77.208345l-96.118167 96.118168a54.605832 54.605832 0 0 0 0 77.208345zM930.50394 312.446666l-96.266957-96.280484a54.605832 54.605832 0 0 0-77.208346 0l-92.398424 92.41195a54.605832 54.605832 0 0 1-77.208345 0 54.605832 54.605832 0 0 1 0-77.208345l92.41195-92.398424a54.605832 54.605832 0 0 0 0-77.208346l-96.280484-96.266957a54.605832 54.605832 0 0 1 0-77.208345l0.311106-0.29758a54.578779 54.578779 0 0 1 77.194819 0l346.950606 346.950606a54.578779 54.578779 0 0 1 0 77.194819l-0.29758 0.311106a54.605832 54.605832 0 0 1-77.208345 0zM1008.266865 533.047735L661.31626 879.984814a54.578779 54.578779 0 0 1-77.208346 0l-0.297579-0.297579a54.605832 54.605832 0 0 1 0-77.208346l96.118168-96.118167a54.578779 54.578779 0 0 0 0-77.194819L587.04313 536.334635a54.605832 54.605832 0 0 1 0-77.235398l0.29758-0.297579a54.605832 54.605832 0 0 1 77.208345 0l92.925952 92.85832a54.578779 54.578779 0 0 0 77.194818 0l96.131695-96.131694a54.578779 54.578779 0 0 1 77.194819 0l0.311105 0.311106a54.605832 54.605832 0 0 1-0.040579 77.208345zM512.120736 384.001001m-55.09278 0a55.09278 55.09278 0 1 1 110.18556 0 55.09278 55.09278 0 1 1-110.18556 0Z"  horiz-adv-x="1024" />

    
    <glyph glyph-name="kaiyuankaifang" unicode="&#59031;" d="M565.47106 884.05448a39.868173 39.868173 0 0 1-56.442583 0L0 384.134462 509.028477-116.382832a39.868173 39.868173 0 0 1 55.994626 56.74122L113.930398 384.134462l451.092705 443.477435A39.868173 39.868173 0 0 1 565.47106 884.05448zM1261.894884 884.502437a39.868173 39.868173 0 1 1-55.994625-56.89054L1657.44092 384.134462 1205.900259-59.641612a39.868173 39.868173 0 1 1 55.994625-56.890539l509.028478 500.666613zM1096.897387 893.01362A39.868173 39.868173 0 0 1 1045.233013 871.213046L658.795436-72.781684a39.868173 39.868173 0 0 1 21.800574-52.112331 41.062726 41.062726 0 0 1 14.9319-2.98638 39.868173 39.868173 0 0 1 36.881794 24.786954L1118.697962 840.901288A40.017492 40.017492 0 0 1 1096.897387 893.01362z"  horiz-adv-x="1771" />

    
    <glyph glyph-name="hudongjiaoliu" unicode="&#59032;" d="M1242.994321 255.933918c0 167.847186-150.665978 306.486319-343.624161 324.19618C861.835829 759.343314 676.410945 896 453.451729 896 203.399071 896 0 724.187919 0 512.726897c0-115.114094 61.720186-224.677336 166.261229-296.44192L127.669592 108.307692a34.362416 34.362416 0 0 1 48.768198-41.631388l146.304595 79.297883a527.859577 527.859577 0 0 1 130.709344-16.256066c16.123903 0 32.115643 0.792979 47.843057 2.246773 57.623129-118.946825 195.601446-202.870418 356.840475-202.870418a454.641198 454.641198 0 0 1 108.770263 13.216314l120.532783-66.08157a34.758906 34.758906 0 0 1 16.388229-4.22922A34.230253 34.230253 0 0 1 1135.677852-82.007228l-30.794011 87.491998c86.963345 61.720186 138.11048 153.573567 138.11048 250.449148z m-789.542592-57.094476a461.249355 461.249355 0 0 0-125.819308 17.445535 35.023232 35.023232 0 0 1-25.771812-2.907589l-79.297883-43.481673 17.70986 49.429014a34.362416 34.362416 0 0 1-14.670108 40.83841C127.14094 319.372225 68.460506 414.001033 68.460506 512.726897c0 173.265875 172.737223 314.283944 384.991223 314.283945 183.706763 0 337.67682-105.730511 375.607641-246.616418-199.037687-12.555498-356.840475-153.309241-356.840475-324.989158a271.59525 271.59525 0 0 1 6.079505-56.037171c-8.061951 0.132163-15.727414-0.528653-24.846671-0.528653zM1045.806918 48.83428A34.362416 34.362416 0 0 1 1030.872483 7.99587l9.780072-27.754259-53.393908 29.47238a33.965927 33.965927 0 0 1-16.388229 4.22922 38.32731 38.32731 0 0 1-9.383583-1.321631 378.779556 378.779556 0 0 0-103.748064-14.273619c-125.422819 0-233.796593 59.737739-285.07589 145.379453a224.677336 224.677336 0 0 0-26.432628 64.363448 215.55808 215.55808 0 0 0-5.550852 47.314404c0 136.788849 132.163139 248.598864 297.367063 256.792979 6.475994 0 13.216314 0.792979 19.427981 0.792979a396.489417 396.489417 0 0 0 48.900361-3.304079c151.458957-19.295818 267.894682-125.819308 267.894683-254.281879 0.264326-80.619515-47.843056-158.067114-128.462571-206.570986z"  horiz-adv-x="1244" />

    
    <glyph glyph-name="ziyuangongxiang" unicode="&#59033;" d="M882.262687 201.214921A165.376067 165.376067 0 0 1 743.999557 125.016003l-314.175979 123.871429a213.948059 213.948059 0 0 1-23.258017 157.02374l245.429906 192.746a162.292131 162.292131 0 0 1 97.657973-32.381328 164.605083 164.605083 0 1 1-164.476586 164.476586 162.549126 162.549126 0 0 1 23.643509-84.679742L367.11688 456.282127A217.674482 217.674482 0 1 1 406.565561 189.264669l313.790487-123.357439a173.599897 173.599897 0 0 1-2.569947-29.297392 164.605083 164.605083 0 1 1 164.476586 164.605083z m100.613412-164.605083a100.613412 100.613412 0 0 0-201.226823 0 108.194754 108.194754 0 0 0 1.027978 12.849733 100.484914 100.484914 0 0 0 200.198845-12.849733zM749.65344 831.751334a100.613412 100.613412 0 1 0-100.613412-100.613412A100.741909 100.741909 0 0 0 749.65344 831.751334zM371.614287 297.973413a154.196799 154.196799 0 0 0-21.587552-78.383373 153.168821 153.168821 0 1 0 21.587552 78.383373z"  horiz-adv-x="1047" />

    
    <glyph glyph-name="zhinengkongzhi" unicode="&#59034;" d="M102.985915 706.042659h69.530139a155.692488 155.692488 0 0 1 303.75667 0h444.692762a34.264853 34.264853 0 0 1 0 68.404651H476.272724a155.692488 155.692488 0 0 1-303.75667 0H102.985915a34.264853 34.264853 0 0 1 0-68.404651z m133.933056 34.139799a87.537945 87.537945 0 1 0 7.003036-34.139799 87.537945 87.537945 0 0 0-7.003036 34.139799zM920.965486 418.167873H806.66594a155.567434 155.567434 0 0 1-303.631615 0H102.985915a34.139799 34.139799 0 1 1 0-68.279597h399.423139a155.567434 155.567434 0 0 1 303.631615 0h114.924817a34.139799 34.139799 0 1 1 0 68.279597zM741.637752 384.028075a86.287403 86.287403 0 0 0-6.877981-34.139799 87.537945 87.537945 0 1 0 0 68.279597 86.287403 86.287403 0 0 0 6.877981-34.139798zM920.965486 62.01349H569.062946a155.567434 155.567434 0 0 1-303.631616 0H102.985915a34.264853 34.264853 0 0 1 0-68.404651h162.57047a155.567434 155.567434 0 0 1 303.631615 0h351.777486a34.264853 34.264853 0 0 1 0 68.404651z m-416.805674-34.264852a86.662566 86.662566 0 0 0-6.877981-34.139799 87.537945 87.537945 0 0 0-161.069819 0 88.538379 88.538379 0 0 0 0 68.404651 87.537945 87.537945 0 0 0 167.9478-34.264852z"  horiz-adv-x="1024" />

    
    <glyph glyph-name="daizhiqin" unicode="&#59029;" d="M512 384m-465.454545 0a465.454545 465.454545 0 1 1 930.90909 0 465.454545 465.454545 0 1 1-930.90909 0ZM512 384m-325.818182 0a325.818182 325.818182 0 1 1 651.636364 0 325.818182 325.818182 0 1 1-651.636364 0ZM512 896C228.072727 896 0 667.927273 0 384s228.072727-512 512-512 512 228.072727 512 512S795.927273 896 512 896z m0-977.454545C256-81.454545 46.545455 128 46.545455 384S256 849.454545 512 849.454545s465.454545-209.454545 465.454545-465.454545-209.454545-465.454545-465.454545-465.454545z"  horiz-adv-x="1024" />

    
    <glyph glyph-name="zhiqinzhong" unicode="&#59030;" d="M512 384m-465.454545 0a465.454545 465.454545 0 1 1 930.90909 0 465.454545 465.454545 0 1 1-930.90909 0ZM512 896C228.072727 896 0 667.927273 0 384s228.072727-512 512-512 512 228.072727 512 512S795.927273 896 512 896z m0-977.454545C256-81.454545 46.545455 128 46.545455 384S256 849.454545 512 849.454545s465.454545-209.454545 465.454545-465.454545-209.454545-465.454545-465.454545-465.454545zM512 709.818182C332.8 709.818182 186.181818 563.2 186.181818 384s146.618182-325.818182 325.818182-325.818182 325.818182 146.618182 325.818182 325.818182S691.2 709.818182 512 709.818182z m211.781818-242.036364l-237.381818-228.072727c-6.981818-6.981818-13.963636-9.309091-23.272727-9.309091s-18.618182 4.654545-23.272728 11.636364L302.545455 388.654545c-11.636364 13.963636-11.636364 34.909091 2.327272 46.545455s34.909091 11.636364 46.545455-2.327273l114.036363-123.345454 211.781819 204.8c13.963636 13.963636 34.909091 11.636364 46.545454 0s11.636364-32.581818 0-46.545455z"  horiz-adv-x="1024" />

    
    <glyph glyph-name="quyuxietiaopingjia" unicode="&#59024;" d="M268.954686 895.999248a100.745888 100.745888 0 0 1-99.242218-81.198178L2.053267-6.202733a101.497723 101.497723 0 0 1 99.242218-121.797267h526.284488C716.296501 225.362442 488.490501 670.448753 348.649194 895.999248z m273.667934-626.278541l-108.264238-105.256898 25.56239-150.366997-133.826627 69.920653-133.826627-69.920653 25.562389 150.366997-108.264238 105.256898 150.366997 21.803214 66.913314 135.330297L393.007458 294.531261zM1196.719056 814.80107A101.497723 101.497723 0 0 1 1097.476838 895.999248H469.694627a2307.381566 2307.381566 0 0 0 235.32435-533.051003c192.469756 23.306885 389.450522 199.236271 516.510634 327.048218zM1362.122753-6.202733l-115.782588 575.905598C1112.513538 444.898258 925.306627 290.772086 729.077696 262.202357a958.589605 958.589605 0 0 0 7.51835-389.450522h526.284489A101.497723 101.497723 0 0 1 1362.122753-6.202733z"  horiz-adv-x="1365" />

    
    <glyph glyph-name="lukoushujumoxing" unicode="&#59026;" d="M980.987915 92.525917a37.330406 37.330406 0 0 1 23.50433 36.639103V591.647273c0 16.591292-10.369557 28.343456-23.50433 24.886937L561.366498 427.116965a36.639102 36.639102 0 0 1-22.813026-35.947799v-493.590925c0-16.591292 10.369557-28.343456 22.813026-24.886937zM461.127445-127.308696L41.506028 92.525917a37.330406 37.330406 0 0 0-23.50433 36.639103V591.647273C18.001698 608.238565 28.371256 617.916818 41.506028 617.916818l419.621417-190.799853a36.639102 36.639102 0 0 0 22.813026-35.947799v-493.590925c0-16.591292-10.369557-28.343456-22.813026-24.886937zM506.753497 456.151725L57.406016 673.912427a22.121722 22.121722 0 0 0 0 42.169533L501.91437 894.438345a22.813026 22.813026 0 0 0 16.591292 0l449.34748-180.430296a22.121722 22.121722 0 0 0 0-42.169533L517.814358 456.151725z"  horiz-adv-x="1024" />

    
    <glyph glyph-name="luxianzuxietiaoyouhua" unicode="&#59027;" d="M747.027308 596.390117A78.564369 78.564369 0 0 1 665.79974 517.825748a77.89857 77.89857 0 0 1 31.292588-61.919376L647.157347 363.360208A115.183355 115.183355 0 0 1 599.219766 372.681404a119.843953 119.843953 0 0 1-77.89857-29.295188L435.43303 426.611183a77.23277 77.23277 0 0 1 15.979194 46.605982 78.564369 78.564369 0 1 1-123.838752-66.579974L272.977893 309.430429a75.235371 75.235371 0 0 1-31.958387 7.323797A78.564369 78.564369 0 1 1 319.583875 238.189857 77.23277 77.23277 0 0 1 290.288687 296.780234l53.929779 102.53316a81.227568 81.227568 0 0 1 28.629388-5.992198 74.569571 74.569571 0 0 1 46.605982 15.979194l83.224968-81.227568A122.507152 122.507152 0 1 1 665.79974 351.375813l52.598179 93.877763a81.227568 81.227568 0 0 1 28.629389-5.326398 78.564369 78.564369 0 0 1 0 156.462939zM858.215865 896H165.784135A166.449935 166.449935 0 0 1 0 730.215865v-692.43173a166.449935 166.449935 0 0 1 165.784135-165.784135h692.43173a166.449935 166.449935 0 0 1 165.784135 165.784135V730.215865A166.449935 166.449935 0 0 1 858.215865 896z m59.921976-858.215865a59.921977 59.921977 0 0 0-59.921976-59.921976H165.784135a59.921977 59.921977 0 0 0-59.921976 59.921976V730.215865a59.921977 59.921977 0 0 0 59.921976 59.921976h692.43173a59.921977 59.921977 0 0 0 59.921976-59.921976z"  horiz-adv-x="1024" />

    
    <glyph glyph-name="luxianxietiaopingjia" unicode="&#59028;" d="M986.604778 138.309898l-148.881911 21.668259-66.40273 134.902389-67.101707-134.902389-148.881911-21.668259 108.341297-105.545393-25.862116-148.182935 133.504437 69.897611 132.80546-69.897611-25.16314 148.182935 107.642321 105.545393zM899.931741 406.716724a69.897611 69.897611 0 0 1-69.897611 69.89761C609.157679 476.614334 451.888055 336.819113 351.235495 204.013652V476.614334H526.678498L281.337884 896 37.395222 476.614334h174.045051v-533.318771a69.897611 69.897611 0 0 1 0-16.775426v-9.785666l6.989761-9.785666a69.897611 69.897611 0 0 1 8.387713-11.882593l6.989762-4.892833a63.606826 63.606826 0 0 1 16.07645-10.484642 69.897611 69.897611 0 0 1 23.066212-4.892833 69.897611 69.897611 0 0 1 23.765187 4.892833l6.989761 3.494881a95.759727 95.759727 0 0 1 13.979523 9.086689l5.591809 5.591809a74.790444 74.790444 0 0 1 10.484641 15.377474v4.892833c0 4.193857 167.754266 419.385666 483.691468 419.385666A69.897611 69.897611 0 0 1 899.931741 406.716724z"  horiz-adv-x="1024" />

    
    <glyph glyph-name="tongji2" unicode="&#59025;" d="M189.168142 486.702065H71.362832a70.230088 70.230088 0 0 1-69.474926-70.230089v-471.221239a70.230088 70.230088 0 0 1 69.474926-70.230088h117.80531a70.230088 70.230088 0 0 1 69.474926 70.230088V416.471976a70.230088 70.230088 0 0 1-69.474926 70.230089z m-6.041298-536.165192H77.40413v460.648968h105.722714zM570.525074 691.351032H454.985251a69.474926 69.474926 0 0 1-69.474927-69.474926v-679.646018a70.230088 70.230088 0 0 1 69.474927-70.230088h115.539823a70.230088 70.230088 0 0 1 70.230088 70.230088v679.646018a70.230088 70.230088 0 0 1-70.230088 69.474926z m-5.286136-740.814159h-105.722714V615.834808h105.722714zM952.637168 896H832.566372a70.230088 70.230088 0 0 1-70.230089-69.474926v-881.274337a70.230088 70.230088 0 0 1 70.230089-70.230088h117.050147a70.230088 70.230088 0 0 1 69.474926 70.230088V826.525074a69.474926 69.474926 0 0 1-66.454277 69.474926z m-6.041298-945.463127h-105.722714V820.483776h105.722714z"  horiz-adv-x="1024" />

    
    <glyph glyph-name="luxianxietiaoyouhua" unicode="&#59009;" d="M1274.051415 896a170.900137 170.900137 0 0 1-170.900137-170.900137 168.098495 168.098495 0 0 1 70.041039-135.179206l-115.567715-205.920657a261.253078 261.253078 0 0 1-280.164159-38.522572L596.05415 526.183311A168.798906 168.798906 0 0 1 631.775081 627.742818a170.900137 170.900137 0 1 1-269.658003-140.082079L241.64649 271.233926a167.398085 167.398085 0 0 1-70.04104 15.409029 170.900137 170.900137 0 1 1 170.199726-170.900137A168.098495 168.098495 0 0 1 281.569882 246.719562l115.567716 222.730506a170.900137 170.900137 0 0 1 62.336525-12.607387A168.798906 168.798906 0 0 1 561.734041 491.863201l180.005472-180.705882a267.556772 267.556772 0 1 1 355.808482 51.129959l114.867305 204.519836a163.896033 163.896033 0 0 1 61.636115-11.906977 170.900137 170.900137 0 0 1 0 341.099863z"  horiz-adv-x="1444" />

    
    <glyph glyph-name="zhuye1" unicode="&#59010;" d="M1015.19633 437.374972L577.919818 870.234549a91.283312 91.283312 0 0 1-127.354943 0L13.288363 437.374972a36.071631 36.071631 0 0 1-11.042336-40.488566 37.543943 37.543943 0 0 1 34.59932-22.084672H75.861602v-382.800986a112.631829 112.631829 0 0 1 103.797959-119.993386h200.970518a36.807787 36.807787 0 0 1 37.543943 36.071631V164.261192a41.960877 41.960877 0 0 0 29.44623 46.377811h133.244189a41.224722 41.224722 0 0 0 30.182386-45.641656v-256.182198a36.807787 36.807787 0 0 1 36.807787-36.807787h200.970518a111.895673 111.895673 0 0 1 103.797959 119.993386v382.800986h36.807788a36.807787 36.807787 0 0 1 33.863164 22.820828 35.335476 35.335476 0 0 1-8.097713 39.75241z"  horiz-adv-x="1026" />

    
    <glyph glyph-name="quyuxietiaoyouhua" unicode="&#59011;" d="M337.963935 570.970866a256.964314 256.964314 0 0 1 27.232631-63.542806l5.586181-8.379271L573.980072 182.033032l201.80078 314.222667 4.887908 8.379271a233.223046 233.223046 0 0 1 27.232631 63.542806 241.602317 241.602317 0 0 1 9.077544 64.241078 245.09368 245.09368 0 1 1-488.790816 0 241.602317 241.602317 0 0 1 8.379271-64.241078zM574.678345 740.651106a101.947799 101.947799 0 1 0-102.646072-100.551253A101.947799 101.947799 0 0 0 574.678345 740.651106zM1047.40889 483.686792h-144.542426v-3.491363l-3.491363-4.887908L573.980072-27.448747 247.886771 479.497156v4.189636H101.947799L0-128h1148.658417z"  horiz-adv-x="1166" />

    
    <glyph glyph-name="xinhaoyanpan" unicode="&#59012;" d="M859.532411 896a108.17945 108.17945 0 0 1-99.287988-115.589001v-908.410999h199.316932V780.410999A108.920405 108.920405 0 0 1 859.532411 896zM509.060631 761.146165a108.920405 108.920405 0 0 1-97.065123-116.329957v-772.816208h199.316932V644.816208A108.920405 108.920405 0 0 1 509.060631 761.146165zM164.516492 525.522431A108.17945 108.17945 0 0 1 64.487548 409.93343v-537.93343h199.316932V409.93343A108.17945 108.17945 0 0 1 164.516492 525.522431z"  horiz-adv-x="1024" />

    
    <glyph glyph-name="lukoufanganpingjia" unicode="&#59013;" d="M538.470748 896l165.790476-337.153741 371.983674-53.638096-268.887075-262.617687 63.390476-370.590476-332.277551 174.846259-332.974149-174.846259 63.390476 370.590476L0 505.208163l371.983673 53.638096L538.470748 896z"  horiz-adv-x="1076" />

    
    <glyph glyph-name="xinhaoyouhua" unicode="&#59014;" d="M1042.464702 879.475245a80.041891 80.041891 0 0 1-86.41691 7.083353L43.711898 409.140591a80.041891 80.041891 0 0 1 9.208359-146.625411l251.459039-92.791927a60.916838 60.916838 0 0 1 76.500215 31.166754v-260.667399a61.625173 61.625173 0 1 1 122.542011 0v167.875472l307.417529-111.916981a77.20855 77.20855 0 0 1 25.500072-4.250012 79.333556 79.333556 0 0 1 39.666778 10.62503 82.166897 82.166897 0 0 1 38.958443 53.833484l157.958777 741.627082a80.041891 80.041891 0 0 1-30.458419 81.458562zM386.546193 222.848402a61.625173 61.625173 0 0 1-39.666778 62.333508l-161.500453 59.500167 571.626605 298.917506L396.462888 237.015108a46.750131 46.750131 0 0 1-8.500024-12.0417z m418.626176-93.500263L548.046647 222.848402l364.084355 410.126151z"  horiz-adv-x="1082" />

    
    <glyph glyph-name="lukoupaihang" unicode="&#59015;" d="M1018.485019-0.790666H61.955163a64.658888 64.658888 0 0 1 0-127.209334h956.529856a64.658888 64.658888 0 0 1 0 127.209334zM109.043701 212.161977l146.185312 146.185312 210.8442-210.8442a63.25326 63.25326 0 0 1 44.980097-18.273164 63.956074 63.956074 0 0 1 45.68291 21.787234L895.492568 544.592999l130.020591-111.044612L1111.959281 896 668.483646 739.975292l130.02059-111.747427L506.133612 286.660261 300.209109 493.287577a64.658888 64.658888 0 0 1-89.257378 0L19.083509 302.122169a62.550446 62.550446 0 0 1 0-89.960192 62.550446 62.550446 0 0 1 89.960192 0z"  horiz-adv-x="1111" />

    
    <glyph glyph-name="yongduyanpan" unicode="&#59016;" d="M927.543131 114.563536a21.922652 21.922652 0 0 1 0 31.116022L682.858048 389.657459a21.21547 21.21547 0 0 1-30.40884 0L562.637054 299.845304a21.922652 21.922652 0 0 1-6.364641-15.558011 19.093923 19.093923 0 0 1 6.364641-14.850829l70.718232-70.718232-212.154697-212.154696a21.922652 21.922652 0 0 1-6.36464-15.558011 22.629834 22.629834 0 0 1 6.36464-16.265194l76.375691-76.37569a24.751381 24.751381 0 0 1 16.265193-6.364641 21.922652 21.922652 0 0 1 15.558011 6.364641l212.154697 212.154696 70.718232-70.718232a21.922652 21.922652 0 0 1 31.116022 0zM598.703352 470.983425l-106.077348-106.077348-11.314917-14.143646 45.966851-46.674033 14.850828-11.314917 105.370166 106.077348 12.022099 14.850828-45.96685 45.966851-14.850829 11.314917zM962.902247 110.320442l-14.850829 11.314917-105.370166-106.077348-5.657458-6.364641v-6.364641l0.707182-8.486188 38.895028-39.60221 14.850829-11.314917 106.077348 106.784531 10.607734 14.143646-45.259668 45.966851zM167.322136 259.535912H354.018269a389.657459 389.657459 0 0 0 45.259669 107.491712H122.76965a15.558011 15.558011 0 0 0-15.558011 16.265194 15.558011 15.558011 0 0 0 15.558011 15.558011h298.430939a379.049724 379.049724 0 0 0 124.464089 104.662983H146.813849a16.265193 16.265193 0 0 0-16.265193 16.265194 16.972376 16.972376 0 0 0 16.265193 16.265193h475.226519a409.458564 409.458564 0 0 0 106.784531 13.436464 380.464088 380.464088 0 0 0 80.618784-7.071823V858.519337a37.480663 37.480663 0 0 1-37.480663 37.480663H52.051418A37.480663 37.480663 0 0 1 14.570755 858.519337v-770.828729a37.480663 37.480663 0 0 1 37.480663-40.309393h306.917127a398.143646 398.143646 0 0 0-16.972375 113.149172 362.077348 362.077348 0 0 0 5.657458 61.524862H167.322136a15.558011 15.558011 0 0 0-15.558011 15.558011 15.558011 15.558011 0 0 0 15.558011 21.922652z m247.513813 418.651933h219.933701a16.265193 16.265193 0 1 0 0-32.530386H414.835949a16.265193 16.265193 0 0 0 0 32.530386z m-282.872929 57.988951a34.651934 34.651934 0 0 0 34.651934 34.651933h126.585635a34.651934 34.651934 0 0 0 34.651934-34.651933v-104.662984a35.359116 35.359116 0 0 0-34.651934-35.359116H167.322136a35.359116 35.359116 0 0 0-34.651933 35.359116z"  horiz-adv-x="1024" />

    
    <glyph glyph-name="caozuojilu" unicode="&#59017;" d="M923.745149-63.520433H105.004604a32.239783 32.239783 0 0 1-32.239784-32.239784 32.239783 32.239783 0 0 1 32.239784-32.239783h818.740545a32.239783 32.239783 0 0 1 32.239784 32.239783 32.239783 32.239783 0 0 1-32.239784 32.239784zM923.745149 65.4387H554.112284a32.239783 32.239783 0 0 1 0-64.479566h369.632865a32.239783 32.239783 0 1 1 0 64.479566zM650.831634 162.158051a32.239783 32.239783 0 0 1 32.239784-32.239784h240.673731a32.239783 32.239783 0 0 1 32.239784 32.239784 32.239783 32.239783 0 0 1-32.239784 32.239783H683.071418a32.239783 32.239783 0 0 1-32.239784-32.239783zM104.254841 17.453906a35.238833 35.238833 0 0 1 20.243585-7.497624h3.748812l270.664228 31.490021a25.491922 25.491922 0 0 1 10.496674 3.748812 16.494773 16.494773 0 0 1 6.747862 5.248337l428.864095 524.833683a86.972439 86.972439 0 0 1-13.495723 122.211272L624.58995 875.931859A80.97434 80.97434 0 0 1 561.609908 895.425682a84.723152 84.723152 0 0 1-58.481468-31.490021L75.014108 334.603404a23.242635 23.242635 0 0 1 0-7.497625 23.992397 23.992397 0 0 1 0-10.496673H67.516484l25.491921-271.413991a30.740259 30.740259 0 0 1 11.246436-27.741209zM161.236784 295.615758l200.936324-161.198916-23.992396-33.739309-184.441552-21.743109-19.493822 181.442501z"  horiz-adv-x="1024" />

    
    <glyph glyph-name="oufayongduyujing" unicode="&#59018;" d="M92.067054 558.637498l154.616428-10.542029A29.517682 29.517682 0 0 1 281.120777 575.504744a30.220484 30.220484 0 0 1-27.409276 31.626088l-154.616427 10.542029a30.220484 30.220484 0 0 1-31.626088-27.409276 29.517682 29.517682 0 0 1 24.598068-31.626087zM314.85527 646.48774a28.81488 28.81488 0 0 1 25.30087-15.461642 30.220484 30.220484 0 0 1 26.003672 44.276522L259.333917 866.464748a30.220484 30.220484 0 0 1-40.059711 11.244831A29.517682 29.517682 0 0 1 210.840583 837.649869zM484.230538 692.169867L491.96136 690.061461a28.81488 28.81488 0 0 1 27.409275 18.975652L577.703197 853.814313A29.517682 29.517682 0 0 1 562.241554 893.874024a28.81488 28.81488 0 0 1-37.951305-16.867246l-56.926957-146.885606a28.81488 28.81488 0 0 1 16.867246-37.951305zM1041.552479-68.964637h-132.829568V314.765224a339.453338 339.453338 0 0 1-678.906676 0v-383.729861H29.517682a29.517682 29.517682 0 0 1 0-59.035363h1012.034797a29.517682 29.517682 0 1 1 0 59.035363zM522.181843 510.144164a56.926957 56.926957 0 0 0 43.573721 17.570048 43.57372 43.57372 0 0 0 44.276522-22.489662 160.941645 160.941645 0 0 0 11.244831-65.360581v-51.304541l-19.678454-187.648119a140.560388 140.560388 0 0 0-11.244831-51.304542 30.220484 30.220484 0 0 0-28.81488-18.27285 28.81488 28.81488 0 0 0-28.81488 17.570048 175.700486 175.700486 0 0 0-11.244831 52.710146l-11.947633 182.728505V460.948028a70.280194 70.280194 0 0 0 12.650435 49.196136z m0-461.740876a59.738165 59.738165 0 0 0 81.525025 0 55.521353 55.521353 0 0 0 17.570049-40.762513 52.710146 52.710146 0 0 0-17.570049-41.465315 56.224155 56.224155 0 0 0-40.05971-15.461642 61.846571 61.846571 0 0 0-40.762513 14.75884 54.818552 54.818552 0 0 0-16.867247 42.168117 57.629759 57.629759 0 0 0 16.164445 42.870918z"  horiz-adv-x="1073" />

    
    <glyph glyph-name="jingtailvbo" unicode="&#59019;" d="M0 896h180.935263v-1024H0zM392.286367 896h180.935263v-1024H392.286367zM785.352628 896h180.935262v-1024h-180.935262zM255.805027 633.175933h62.39147v-137.261234h-62.39147zM255.805027 272.085301h62.39147v-137.261234h-62.39147zM653.550647 633.175933h62.39147v-137.261234h-62.39147zM653.550647 272.085301h62.39147v-137.261234h-62.39147zM1031.798934 676.849962v-136.481341a174.696116 174.696116 0 0 0 98.266565-155.978674 172.356436 172.356436 0 0 0-98.266565-155.978675v-136.481341a301.818736 301.818736 0 0 1 0 585.699924z"  horiz-adv-x="1260" />

    
    <glyph glyph-name="lukouguanli" unicode="&#59020;" d="M81.245421 326.951417a46.07977 46.07977 0 0 1 21.942748 5.119974l146.284983 68.022517a53.394019 53.394019 0 0 1 24.137022 23.405597l7.314249 139.702159a88.502415 88.502415 0 0 0 0 13.165648 83.38244 83.38244 0 0 1-10.971374 64.365393 48.274044 48.274044 0 0 1-37.30267 14.628498H132.445165a51.931169 51.931169 0 0 1-50.468319-40.959795l-51.199744-223.816024a50.468319 50.468319 0 0 1 18.285623-51.931169 48.274044 48.274044 0 0 1 32.182696-11.702798zM658.339679 54.861349a49.736894 49.736894 0 0 1-27.062722 28.525571 51.199744 51.199744 0 0 1-40.22837 0l-55.588294-21.942747a16.091348 16.091348 0 0 0-16.822773 3.657124l-219.427474 219.427475a51.931169 51.931169 0 0 1-60.708268 9.508524L42.479901 193.832082a52.662594 52.662594 0 0 1-28.525572-43.15407L0.057256-69.480887a54.125444 54.125444 0 0 1 13.897073-38.76552 53.394019 53.394019 0 0 1 38.034096-19.748473h596.84273a51.931169 51.931169 0 0 1 43.15407 21.942747 54.125444 54.125444 0 0 1 5.851399 51.199744zM528.877469 223.820504l37.302671-38.765521a49.736894 49.736894 0 0 1 37.30267-16.091348 51.931169 51.931169 0 0 1 29.988422 9.508524L848.510157 332.802816a20.479898 20.479898 0 0 0 9.508523 0H1024.052136a49.736894 49.736894 0 0 1 38.76552 17.554198 50.468319 50.468319 0 0 1 12.434224 40.22837l-27.062722 215.77035a51.199744 51.199744 0 0 1-51.199744 46.07977H768.053416a53.394019 53.394019 0 0 1-50.468319-38.765521l-34.376971-160.913481a22.674172 22.674172 0 0 0-3.657125-7.314249l-146.284983-146.284983a52.662594 52.662594 0 0 1-4.388549-75.336766zM1138.154423-61.435213l-57.051144 262.581544a52.662594 52.662594 0 0 1-50.468319 40.959796h-141.165008a51.199744 51.199744 0 0 1-31.451272-10.971374l-114.833711-85.576715a51.931169 51.931169 0 0 1-17.554198-58.513993l61.439693-177.004829a51.199744 51.199744 0 0 1 49.005469-34.376971h251.61017a51.931169 51.931169 0 0 1 40.228371 19.017047 50.468319 50.468319 0 0 1 10.239949 43.885495zM316.032819 676.572526a173.347705 173.347705 0 0 1 19.748473-44.61692v-5.851399l146.284982-223.816024 141.896434 219.427474v5.851399A173.347705 173.347705 0 0 1 649.56258 676.572526 187.976203 187.976203 0 0 1 658.339679 723.38372a172.61628 172.61628 0 0 1-345.23256 0 187.976203 187.976203 0 0 1 2.9257-46.811194zM482.797699 798.720486a73.142491 73.142491 0 1 0-73.142491-73.142491 73.142491 73.142491 0 0 0 73.142491 73.142491z"  horiz-adv-x="1143" />

    
    <glyph glyph-name="xinhaoguankong" unicode="&#59021;" d="M418.711864 336.99435H600.225989L506.937853 551.774011 418.711864 336.99435zM512 896a512 512 0 1 1 512-512A512 512 0 0 1 512 896z m248.768362-807.050847a62.19209 62.19209 0 0 0-19.525424-3.61582 47.728814 47.728814 0 0 0-44.112994 28.926554l-54.960452 126.553672H378.937853l-52.067797-125.830508a47.728814 47.728814 0 0 0-44.836158-29.649718 40.497175 40.497175 0 0 0-18.079096 3.61582 48.451977 48.451977 0 0 0-26.033898 62.915254l223.457627 540.926553a18.079096 18.079096 0 0 1 0 5.062147v3.61582l4.338983 3.615819H513.446328v-3.615819a18.079096 18.079096 0 0 0 0-5.062147l235.028248-540.926554a48.451977 48.451977 0 0 0 12.293786-66.531073z"  horiz-adv-x="1024" />

    
    <glyph glyph-name="changtaiyongduyujing" unicode="&#59022;" d="M92.067054 558.637498l154.616428-10.542029A29.517682 29.517682 0 0 1 281.120777 575.504744a30.220484 30.220484 0 0 1-27.409276 31.626088l-154.616427 10.542029a30.220484 30.220484 0 0 1-31.626088-27.409276 29.517682 29.517682 0 0 1 24.598068-31.626087zM314.85527 646.48774a28.81488 28.81488 0 0 1 25.30087-15.461642 30.220484 30.220484 0 0 1 26.003672 44.276522L259.333917 866.464748a30.220484 30.220484 0 0 1-40.059711 11.244831A29.517682 29.517682 0 0 1 210.840583 837.649869zM484.230538 692.169867L491.96136 690.061461a28.81488 28.81488 0 0 1 27.409275 18.975652L577.703197 853.814313A29.517682 29.517682 0 0 1 562.241554 893.874024a28.81488 28.81488 0 0 1-37.951305-16.867246l-56.926957-146.885606a28.81488 28.81488 0 0 1 16.867246-37.951305zM1041.552479-68.964637h-132.829568V314.765224a339.453338 339.453338 0 0 1-678.906676 0v-383.729861H29.517682a29.517682 29.517682 0 0 1 0-59.035363h1012.034797a29.517682 29.517682 0 1 1 0 59.035363z"  horiz-adv-x="1073" />

    
    <glyph glyph-name="shebeiguanli" unicode="&#59023;" d="M1005.909963 475.819926a18.892989 18.892989 0 0 1 0 14.358672 17.38155 17.38155 0 0 1-12.847232 6.045756h-210.845757V584.643542a226.715867 226.715867 0 0 1 66.503321 16.625831 266.013284 266.013284 0 0 1 157.189668 186.66273 17.38155 17.38155 0 0 1 0 13.602952 15.870111 15.870111 0 0 1-12.847232 6.801476h-210.845757V863.504059A32.495941 32.495941 0 0 1 749.721033 896H269.839114A32.495941 32.495941 0 0 1 240.366052 863.504059v-55.167528H30.276015a15.114391 15.114391 0 0 1-12.847233-6.801476 15.114391 15.114391 0 0 1 0-13.602952A266.769004 266.769004 0 0 1 170.839852 601.269373a232.005904 232.005904 0 0 1 69.5262-16.625831v-88.419188H30.276015a15.870111 15.870111 0 0 1-12.847233-6.045756 15.870111 15.870111 0 0 1 0-14.358672A262.990406 262.990406 0 0 1 240.366052 272.531365v-64.236162H30.276015a15.870111 15.870111 0 0 1-12.847233-6.045757 15.870111 15.870111 0 0 1 0-14.358671 261.478967 261.478967 0 0 1 226.715867-202.532841v-80.861993a32.495941 32.495941 0 0 1 32.495941-32.495941h473.080443a32.495941 32.495941 0 0 1 32.495941 32.495941v80.861993a262.990406 262.990406 0 0 1 226.715867 202.532841 18.892989 18.892989 0 0 1 0 14.358671 17.38155 17.38155 0 0 1-12.847232 6.045757h-213.868635v64.236162a265.257565 265.257565 0 0 1 223.692989 203.288561z m-492.729151-387.684133A104.289299 104.289299 0 1 0 618.22583 192.425092a104.289299 104.289299 0 0 0-105.045018-104.289299z m0 259.211808A105.045018 105.045018 0 1 0 618.22583 452.39262a105.045018 105.045018 0 0 0-105.045018-105.045019z m0 259.967528A104.289299 104.289299 0 1 0 618.22583 711.604428a104.289299 104.289299 0 0 0-105.045018-104.289299z"  horiz-adv-x="1024" />

    
    <glyph glyph-name="ziyuan1" unicode="&#58920;" d="M590.084737 751.50029a73.664846 73.664846 0 1 1-50.607749 91.04975 73.664846 73.664846 0 0 1 50.607749-91.04975zM956.272688 547.375001a29.465938 29.465938 0 0 1-36.832423 19.226525c-60.699833-19.079195-127.955838-39.410693-159.189733-47.808485-54.953975 84.567243-117.863754 146.814039-147.329693 165.23025-17.016579 10.755068-32.044208 17.016579-71.675895 23.572751-51.565392 8.618787-171.491762-9.797425-228.361023-41.03132-9.797425-5.451199-20.994481-11.565381-85.009233-176.795631a29.465938 29.465938 0 0 1 16.795585-38.084725 28.287301 28.287301 0 0 1 10.607738-2.062616A29.465938 29.465938 0 0 1 282.828663 468.700945c23.278091 59.815855 52.817695 130.386778 63.425433 148.80299 37.642736 18.489876 106.151043 30.791906 151.675918 32.928186L397.156505 322.107901l-88.397816-117.863754-194.696188 153.37021a29.465938 29.465938 0 0 1-36.832424-46.261523l218.047945-172.154746a29.465938 29.465938 0 0 1 18.268882-6.335177 32.117873 32.117873 0 0 1 3.756907 0A29.465938 29.465938 0 0 1 337.414314 144.575622l114.254177 151.970578L665.37021 210.873983l-93.48069-300.626237a29.465938 29.465938 0 0 1 56.279943-17.532234l101.583822 326.335269A29.465938 29.465938 0 0 1 712.589376 255.072891L523.049727 331.316007l85.966876 279.926416A727.808681 727.808681 0 0 0 721.208163 470.174242a29.465938 29.465938 0 0 1 27.403323-13.996321c19.15286 1.546962 126.261546 34.622478 188.434677 54.290992a29.465938 29.465938 0 0 1 19.226525 36.906088z"  horiz-adv-x="1024" />

    
    <glyph glyph-name="zuixin1" unicode="&#59008;" d="M755.065263 296.690526l-64.673684 111.562106-64.134737-111.562106h47.966316V-128h32.336842v424.690526h48.505263zM973.877895 230.938947l-98.088421 84.07579-9.162106-47.966316c-51.738947-2.155789-120.185263-23.713684-160.067368-111.562105-16.707368-36.648421-28.564211-85.153684-32.336842-148.749474v-134.736842h32.336842v133.12c8.084211 142.821053 61.44 221.507368 154.138947 229.591579l-8.623158-45.810526zM637.574737 123.149474c-37.726316 0-68.446316-33.414737-68.985263-74.913685h-48.505263l64.673684-111.562105 64.673684 111.562105h-48.505263c0.538947 23.713684 16.707368 42.576842 36.648421 42.576843s36.648421-19.941053 36.648421-44.193685V-128h32.336842v174.618947c0 42.037895-30.72 76.530526-68.985263 76.530527zM674.223158 174.888421c-27.486316 50.661053-77.069474 103.477895-169.229474 126.113684l4.311579 48.505263-117.490526-53.894736 105.094737-74.913685 4.311579 47.427369c169.768421-44.193684 173.002105-203.183158 173.002105-210.189474V-128h32.336842v188.092632a272.922947 272.922947 0 0 1-32.336842 114.795789zM599.309474 627.065263l-111.562106-64.673684 111.562106-64.134737v47.966316H1024v32.336842h-424.690526v48.505263zM665.061053 845.877895l-84.07579-98.088421 47.966316-9.162106c2.155789-51.738947 23.713684-120.185263 111.562105-160.067368 36.648421-16.707368 85.153684-28.564211 148.749474-32.336842h134.736842v32.336842h-133.12c-142.821053 8.084211-221.507368 61.44-229.591579 154.138947l45.810526-8.623158zM772.850526 509.574737c0-37.726316 33.414737-68.446316 74.913685-68.985263v-48.505263l111.562105 64.673684-111.562105 64.673684v-48.505263c-23.713684 0.538947-42.576842 16.707368-42.576843 36.648421s19.941053 36.648421 44.193685 36.648421H1024v32.336842h-174.618947c-42.037895 0-76.530526-30.72-76.530527-68.985263zM721.111579 546.223158c-50.661053-27.486316-103.477895-77.069474-126.113684-169.229474l-48.505263 4.311579 53.894736-117.490526 74.913685 105.094737-47.427369 4.311579c44.193684 169.768421 203.183158 173.002105 210.189474 173.002105H1024v32.336842h-188.092632a272.922947 272.922947 0 0 1-114.795789-32.336842zM268.934737 471.309474l64.673684-111.562106 64.134737 111.562106h-47.966316V896h-32.336842v-424.690526h-48.505263zM50.122105 537.061053l98.088421-84.07579 9.162106 47.966316c51.738947 2.155789 120.185263 23.713684 160.067368 111.562105 16.707368 36.648421 28.564211 85.153684 32.336842 148.749474V896h-32.336842v-133.12c-8.084211-142.821053-61.44-221.507368-154.138947-229.591579l8.623158 45.810526zM386.425263 644.850526c37.726316 0 68.446316 33.414737 68.985263 74.913685h48.505263L439.242105 831.326316l-64.673684-111.562105h48.505263c-0.538947-23.713684-16.707368-42.576842-36.648421-42.576843s-36.648421 19.941053-36.648421 44.193685V896h-32.336842v-174.618947c0-42.037895 30.72-76.530526 68.985263-76.530527zM349.776842 593.111579c27.486316-50.661053 77.069474-103.477895 169.229474-126.113684l-4.311579-48.505263 117.490526 53.894736-105.094737 74.913685-4.311579-47.427369c-169.768421 44.193684-173.002105 203.183158-173.002105 210.189474V896h-32.336842v-188.092632a272.922947 272.922947 0 0 1 32.336842-114.795789zM424.690526 140.934737l111.562106 64.673684-111.562106 64.134737v-47.966316H0v-32.336842h424.690526v-48.505263zM358.938947-77.877895l84.07579 98.088421-47.966316 9.162106c-2.155789 51.738947-23.713684 120.185263-111.562105 160.067368-36.648421 16.707368-85.153684 28.564211-148.749474 32.336842H0v-32.336842h133.12c142.821053-8.084211 221.507368-61.44 229.591579-154.138947l-45.810526 8.623158zM251.149474 258.425263c0 37.726316-33.414737 68.446316-74.913685 68.985263v48.505263l-111.562105-64.673684 111.562105-64.673684v48.505263c23.713684-0.538947 42.576842-16.707368 42.576843-36.648421s-19.941053-36.648421-44.193685-36.648421H0v-32.336842h174.618947c42.037895 0 76.530526 30.72 76.530527 68.985263zM302.888421 221.776842c50.661053 27.486316 103.477895 77.069474 126.113684 169.229474l48.505263-4.311579-53.894736 117.490526-74.913685-105.094737 47.427369-4.311579c-44.193684-169.768421-203.183158-173.002105-210.189474-173.002105H0v-32.336842h188.092632a272.922947 272.922947 0 0 1 114.795789 32.336842z"  horiz-adv-x="1024" />

    
    <glyph glyph-name="yonghu" unicode="&#59007;" d="M667.875206 336.448108a301.599165 301.599165 0 1 1-312.553129 0A456.415201 456.415201 0 0 1 55.18344-91.486784a36.513216 36.513216 0 0 1 36.513216-36.513216 36.513216 36.513216 0 0 1 36.513217 36.513216 383.388769 383.388769 0 1 0 766.777537 0 36.513216 36.513216 0 0 1 73.026432 0 456.415201 456.415201 0 0 1-300.138636 427.934892zM283.025909 593.50115a228.572733 228.572733 0 1 0 228.572732-228.572733 228.572733 228.572733 0 0 0-228.572732 228.572733z"  horiz-adv-x="1024" />

    
    <glyph glyph-name="weizhileixing" unicode="&#59006;" d="M397.952607 867.124171H69.88436c-33.72891 0-61.634123-27.662559-61.634123-61.634124v-328.068246c0-33.72891 27.662559-61.634123 61.634123-61.634123H397.952607c33.72891 0 61.634123 27.662559 61.634123 61.634123V805.732701c0 33.72891-27.662559 61.391469-61.634123 61.39147zM585.281517 416.030332h328.068246c33.72891 0 61.634123 27.662559 61.634123 61.634123V805.732701c0 33.72891-27.662559 61.634123-61.634123 61.634124H585.281517c-33.72891 0-61.634123-27.662559-61.634124-61.634124v-328.068246c0-33.971564 27.662559-61.634123 61.634124-61.634123zM881.319431 101.065403l67.215166-116.23128 67.215166 116.23128h-47.802844v169.615166c0 41.008531-33.243602 74.252133-74.252132 74.252132h-293.611375c-41.008531 0-74.252133-33.243602-74.252132-74.252132v-293.611375c0-41.008531 33.243602-74.252133 74.252132-74.252132h293.611375c10.676777 0 19.169668 8.492891 19.169668 19.169668s-8.492891 19.169668-19.169668 19.169668h-293.611375c-19.654976 0-35.912796 16.015166-35.912796 35.912796v293.611375c0 19.654976 16.015166 35.912796 35.912796 35.912796h293.611375c19.654976 0 35.912796-16.015166 35.912796-35.912796v-169.615166h-48.288152zM397.952607 351.969668H69.88436c-33.72891 0-61.634123-27.662559-61.634123-61.634123v-328.068246c0-33.72891 27.662559-61.634123 61.634123-61.634124H397.952607c33.72891 0 61.634123 27.662559 61.634123 61.634124V290.335545c0 33.971564-27.662559 61.634123-61.634123 61.634123z"  horiz-adv-x="1024" />

    
    <glyph glyph-name="wuxianlan" unicode="&#59005;" d="M958.171429 665.6C837.485714 786.285714 680.228571 852.114286 512 852.114286S186.514286 786.285714 65.828571 665.6c-14.628571-14.628571-14.628571-36.571429 0-51.2 14.628571-14.628571 36.571429-14.628571 51.2 0C223.085714 720.457143 362.057143 778.971429 512 778.971429s288.914286-58.514286 391.314286-164.571429c7.314286-7.314286 18.285714-10.971429 25.6-10.971429 10.971429 0 18.285714 3.657143 25.6 10.971429 14.628571 14.628571 14.628571 36.571429 3.657143 51.2zM413.257143 424.228571c54.857143 40.228571 138.971429 40.228571 193.828571 0 7.314286-3.657143 14.628571-7.314286 21.942857-7.314285 10.971429 0 21.942857 3.657143 29.257143 14.628571 10.971429 14.628571 10.971429 40.228571-7.314285 51.2-80.457143 62.171429-204.8 62.171429-285.257143 0-14.628571-10.971429-18.285714-36.571429-7.314286-51.2 18.285714-18.285714 40.228571-21.942857 54.857143-7.314286zM512 694.857143c-95.085714 0-186.514286-32.914286-263.314286-87.771429-14.628571-10.971429-18.285714-36.571429-7.314285-51.2 10.971429-14.628571 36.571429-18.285714 51.2-7.314285 62.171429 47.542857 138.971429 73.142857 215.771428 73.142857 80.457143 0 157.257143-25.6 215.771429-73.142857 7.314286-3.657143 14.628571-7.314286 21.942857-7.314286 10.971429 0 21.942857 3.657143 29.257143 14.628571 10.971429 14.628571 10.971429 40.228571-7.314286 51.2-69.485714 58.514286-160.914286 87.771429-256 87.771429zM618.057143 347.428571H402.285714c-80.457143 0-146.285714-65.828571-146.285714-146.285714v-138.971428c0-80.457143 65.828571-146.285714 146.285714-146.285715h215.771429c80.457143 0 146.285714 65.828571 146.285714 146.285715V201.142857c0 80.457143-62.171429 146.285714-146.285714 146.285714z m73.142857-285.257142c0-40.228571-32.914286-73.142857-73.142857-73.142858H402.285714c-40.228571 0-73.142857 32.914286-73.142857 73.142858V201.142857c0 40.228571 32.914286 73.142857 73.142857 73.142857h215.771429c40.228571 0 73.142857-32.914286 73.142857-73.142857v-138.971428zM512 157.257143m-47.542857 0a47.542857 47.542857 0 1 1 95.085714 0 47.542857 47.542857 0 1 1-95.085714 0Z"  horiz-adv-x="1024" />

    
    <glyph glyph-name="bendi" unicode="&#59003;" d="M760.685714 650.971429h-84.114285C661.942857 749.714286 570.514286 822.857143 457.142857 822.857143H168.228571c-58.514286 0-109.714286-47.542857-109.714285-106.057143V153.6c0-113.371429 91.428571-204.8 204.8-204.8h493.714285c113.371429 0 204.8 91.428571 204.8 204.8v296.228571c3.657143 109.714286-87.771429 201.142857-201.142857 201.142858zM168.228571 753.371429h288.914286c76.8 0 135.314286-43.885714 149.942857-106.057143H128V716.8c0 21.942857 18.285714 36.571429 40.228571 36.571429z m727.771429-603.428572c0-76.8-62.171429-135.314286-135.314286-135.314286H263.314286c-76.8 0-135.314286 62.171429-135.314286 135.314286V581.485714h632.685714c76.8 0 135.314286-62.171429 135.314286-135.314285v-296.228572zM724.114286 226.742857H266.971429c-18.285714 0-32.914286-14.628571-32.914286-32.914286s14.628571-32.914286 32.914286-32.914285h457.142857c18.285714 0 32.914286 14.628571 32.914285 32.914285s-14.628571 32.914286-32.914285 32.914286zM256 285.257143h329.142857c18.285714 0 32.914286 14.628571 32.914286 32.914286s-14.628571 32.914286-32.914286 32.914285H256c-18.285714 0-32.914286-14.628571-32.914286-32.914285s14.628571-32.914286 32.914286-32.914286z"  horiz-adv-x="1024" />

    
    <glyph glyph-name="ganyingkongzhi" unicode="&#58998;" d="M585.142857 526.628571h-146.285714c-40.228571 0-69.485714-32.914286-69.485714-69.485714v-146.285714c0-40.228571 32.914286-69.485714 69.485714-69.485714h146.285714c40.228571 0 69.485714 32.914286 69.485714 69.485714v146.285714c0 36.571429-32.914286 69.485714-69.485714 69.485714zM69.485714 384c0 120.685714 47.542857 234.057143 131.657143 318.171429 14.628571 14.628571 14.628571 36.571429 0 51.2-14.628571 14.628571-36.571429 14.628571-51.2 0C54.857143 654.628571 0 522.971429 0 384s54.857143-270.628571 153.6-365.714286c7.314286-7.314286 14.628571-10.971429 25.6-10.971428 7.314286 0 18.285714 3.657143 25.6 10.971428 14.628571 14.628571 14.628571 36.571429 0 51.2-87.771429 80.457143-135.314286 193.828571-135.314286 314.514286zM760.685714 599.771429c-10.971429 14.628571-32.914286 18.285714-47.542857 7.314285s-18.285714-32.914286-7.314286-47.542857c36.571429-47.542857 58.514286-109.714286 58.514286-175.542857 0-62.171429-21.942857-124.342857-58.514286-175.542857-10.971429-14.628571-7.314286-36.571429 7.314286-47.542857 7.314286-3.657143 14.628571-7.314286 21.942857-7.314286 10.971429 0 21.942857 3.657143 29.257143 14.628571 47.542857 62.171429 73.142857 138.971429 73.142857 215.771429-7.314286 76.8-32.914286 157.257143-76.8 215.771429zM299.885714 607.085714c-14.628571 10.971429-36.571429 7.314286-47.542857-7.314285-47.542857-62.171429-73.142857-138.971429-73.142857-215.771429 0-76.8 25.6-157.257143 73.142857-215.771429 7.314286-7.314286 18.285714-14.628571 29.257143-14.628571 7.314286 0 14.628571 3.657143 21.942857 7.314286 14.628571 10.971429 18.285714 32.914286 7.314286 47.542857-36.571429 47.542857-58.514286 109.714286-58.514286 175.542857 0 62.171429 21.942857 124.342857 58.514286 175.542857 7.314286 14.628571 3.657143 36.571429-10.971429 47.542857zM870.4 749.714286c-14.628571 14.628571-36.571429 14.628571-51.2 0-14.628571-14.628571-14.628571-36.571429 0-51.2 84.114286-84.114286 131.657143-197.485714 131.657143-318.171429 0-120.685714-47.542857-234.057143-131.657143-318.171428-14.628571-14.628571-14.628571-36.571429 0-51.2 7.314286-7.314286 14.628571-10.971429 25.6-10.971429 7.314286 0 18.285714 3.657143 25.6 10.971429 98.742857 98.742857 153.6 226.742857 153.6 365.714285 0 146.285714-54.857143 277.942857-153.6 373.028572z"  horiz-adv-x="1024" />

    
    <glyph glyph-name="huangshan" unicode="&#58999;" d="M512-113.371429c-164.571429 0-296.228571 131.657143-296.228571 296.228572v402.285714C215.771429 749.714286 347.428571 881.371429 512 881.371429s296.228571-131.657143 296.228571-296.228572v-402.285714c0-164.571429-131.657143-296.228571-296.228571-296.228572z m0 921.6c-124.342857 0-223.085714-98.742857-223.085714-223.085714v-402.285714c0-124.342857 98.742857-223.085714 223.085714-223.085714s223.085714 98.742857 223.085714 223.085714v402.285714c0 124.342857-98.742857 223.085714-223.085714 223.085714zM512 640m-109.714286 0a109.714286 109.714286 0 1 1 219.428572 0 109.714286 109.714286 0 1 1-219.428572 0ZM512 384m-109.714286 0a109.714286 109.714286 0 1 1 219.428572 0 109.714286 109.714286 0 1 1-219.428572 0ZM512 128m-109.714286 0a109.714286 109.714286 0 1 1 219.428572 0 109.714286 109.714286 0 1 1-219.428572 0Z"  horiz-adv-x="1024" />

    
    <glyph glyph-name="bujin" unicode="&#59000;" d="M512 863.085714C248.685714 863.085714 32.914286 647.314286 32.914286 384S248.685714-95.085714 512-95.085714c263.314286 0 479.085714 215.771429 479.085714 479.085714S775.314286 863.085714 512 863.085714z m0-885.028571c-223.085714 0-405.942857 182.857143-405.942857 405.942857S288.914286 789.942857 512 789.942857s405.942857-182.857143 405.942857-405.942857-182.857143-405.942857-405.942857-405.942857zM716.8 416.914286l-226.742857 153.6c-40.228571 29.257143-98.742857 0-98.742857-51.2v-310.857143c0-51.2 54.857143-80.457143 98.742857-51.2l226.742857 153.6c36.571429 29.257143 36.571429 84.114286 0 106.057143z"  horiz-adv-x="1024" />

    
    <glyph glyph-name="dingzhouqi" unicode="&#59001;" d="M987.428571 431.542857c-3.657143 18.285714-21.942857 32.914286-40.228571 32.914286-18.285714-3.657143-32.914286-21.942857-32.914286-40.228572 10.971429-69.485714 0-142.628571-29.257143-208.457142-43.885714-98.742857-120.685714-175.542857-219.428571-215.771429-98.742857-40.228571-208.457143-40.228571-310.857143 3.657143-204.8 80.457143-303.542857 318.171429-215.771428 526.628571 43.885714 98.742857 120.685714 175.542857 219.428571 215.771429 98.742857 40.228571 208.457143 40.228571 307.2-3.657143l-58.514286-29.257143 263.314286-87.771428L749.714286 874.057143l-25.6-76.8c-7.314286 3.657143-14.628571 7.314286-25.6 10.971428-117.028571 51.2-245.028571 51.2-365.714286 3.657143-117.028571-47.542857-208.457143-138.971429-259.657143-256-102.4-241.371429 10.971429-522.971429 252.342857-625.371428 58.514286-25.6 124.342857-40.228571 186.514286-40.228572 58.514286 0 120.685714 10.971429 179.2 36.571429 117.028571 47.542857 212.114286 138.971429 259.657143 256 32.914286 76.8 47.542857 164.571429 36.571428 248.685714zM501.028571 625.371429c-21.942857 0-36.571429-14.628571-36.571428-36.571429v-263.314286c0-14.628571 7.314286-25.6 21.942857-32.914285l234.057143-109.714286c3.657143-3.657143 10.971429-3.657143 14.628571-3.657143 14.628571 0 25.6 7.314286 32.914286 21.942857 7.314286 18.285714 0 40.228571-18.285714 47.542857L537.6 347.428571V588.8c0 18.285714-14.628571 36.571429-36.571429 36.571429z"  horiz-adv-x="1024" />

    
    <glyph glyph-name="xitong" unicode="&#59002;" d="M863.085714 533.942857h-3.657143c18.285714 21.942857 29.257143 47.542857 29.257143 76.8s-10.971429 54.857143-32.914285 76.8l-54.857143 54.857143c-40.228571 40.228571-113.371429 40.228571-153.6 0l-3.657143-3.657143c0 58.514286-47.542857 106.057143-106.057143 106.057143h-76.8c-58.514286 0-106.057143-47.542857-106.057143-106.057143v-3.657143c-40.228571 40.228571-109.714286 40.228571-149.942857 0L157.257143 680.228571c-40.228571-40.228571-40.228571-109.714286 0-153.6l3.657143-3.657142c-58.514286 0-106.057143-47.542857-106.057143-106.057143v-76.8c0-58.514286 47.542857-106.057143 106.057143-106.057143h3.657143c-40.228571-43.885714-40.228571-109.714286 0-149.942857L219.428571 29.257143c40.228571-40.228571 109.714286-40.228571 153.6 0l3.657143 3.657143c0-58.514286 47.542857-106.057143 106.057143-106.057143h76.8c58.514286 0 106.057143 47.542857 106.057143 106.057143v3.657143c40.228571-40.228571 109.714286-40.228571 149.942857 0l54.857143 54.857142c21.942857 21.942857 32.914286 47.542857 32.914286 76.8s-10.971429 54.857143-32.914286 76.8l-3.657143 3.657143c58.514286 0 106.057143 47.542857 106.057143 106.057143v76.8c0 54.857143-47.542857 102.4-109.714286 102.4z m36.571429-182.857143c0-18.285714-14.628571-32.914286-32.914286-32.914285h-73.142857l-7.314286-25.6c-3.657143-7.314286-7.314286-18.285714-10.971428-25.6l-10.971429-21.942858 54.857143-54.857142c7.314286-7.314286 10.971429-14.628571 10.971429-25.6 0-10.971429-3.657143-18.285714-10.971429-25.6l-54.857143-54.857143c-14.628571-14.628571-36.571429-14.628571-47.542857 0l-51.2 51.2-25.6-7.314286c-7.314286-3.657143-18.285714-7.314286-25.6-10.971429l-21.942857-7.314285v-76.8c0-18.285714-14.628571-32.914286-32.914286-32.914286h-76.8c-18.285714 0-32.914286 14.628571-32.914286 32.914286v73.142857l-25.6 7.314286c-7.314286 3.657143-18.285714 7.314286-25.6 10.971428l-21.942857 10.971429-54.857143-54.857143c-14.628571-14.628571-36.571429-14.628571-47.542857 0L219.428571 135.314286c-14.628571 14.628571-14.628571 36.571429 0 47.542857l51.2 51.2-14.628571 21.942857c-3.657143 7.314286-7.314286 18.285714-10.971429 25.6l-7.314285 21.942857H160.914286c-18.285714 0-32.914286 14.628571-32.914286 32.914286v76.8c0 18.285714 14.628571 32.914286 32.914286 32.914286h73.142857l7.314286 25.6c3.657143 7.314286 7.314286 18.285714 10.971428 25.6l10.971429 21.942857-54.857143 58.514285c-14.628571 14.628571-14.628571 36.571429 0 47.542858l54.857143 54.857142c14.628571 14.628571 36.571429 14.628571 47.542857 0l51.2-51.2 21.942857 10.971429c7.314286 3.657143 18.285714 7.314286 25.6 10.971429l21.942857 7.314285V735.085714c0 18.285714 14.628571 32.914286 32.914286 32.914286h76.8c18.285714 0 32.914286-14.628571 32.914286-32.914286v-73.142857l25.6-7.314286c7.314286-3.657143 18.285714-7.314286 25.6-10.971428l21.942857-10.971429 54.857143 54.857143c14.628571 14.628571 36.571429 14.628571 47.542857 0L804.571429 632.685714c7.314286-7.314286 10.971429-14.628571 10.971428-25.6 0-10.971429-3.657143-18.285714-10.971428-25.6L753.371429 530.285714l10.971428-21.942857c3.657143-7.314286 7.314286-18.285714 10.971429-25.6l7.314285-21.942857h76.8c18.285714 0 32.914286-14.628571 32.914286-32.914286v-76.8zM512 592.457143c-113.371429 0-208.457143-91.428571-208.457143-208.457143s91.428571-208.457143 208.457143-208.457143 208.457143 91.428571 208.457143 208.457143-95.085714 208.457143-208.457143 208.457143z m0-343.771429c-73.142857 0-135.314286 58.514286-135.314286 135.314286s58.514286 135.314286 135.314286 135.314286 135.314286-58.514286 135.314286-135.314286-62.171429-135.314286-135.314286-135.314286z"  horiz-adv-x="1024" />

    
    <glyph glyph-name="quanhong" unicode="&#59004;" d="M512-113.371429c-164.571429 0-296.228571 131.657143-296.228571 296.228572v402.285714C215.771429 749.714286 347.428571 881.371429 512 881.371429s296.228571-131.657143 296.228571-296.228572v-402.285714c0-164.571429-131.657143-296.228571-296.228571-296.228572z m0 921.6c-124.342857 0-223.085714-98.742857-223.085714-223.085714v-402.285714c0-124.342857 98.742857-223.085714 223.085714-223.085714s223.085714 98.742857 223.085714 223.085714v402.285714c0 124.342857-98.742857 223.085714-223.085714 223.085714zM512 640m-109.714286 0a109.714286 109.714286 0 1 1 219.428572 0 109.714286 109.714286 0 1 1-219.428572 0ZM512 384m-109.714286 0a109.714286 109.714286 0 1 1 219.428572 0 109.714286 109.714286 0 1 1-219.428572 0ZM512 128m-109.714286 0a109.714286 109.714286 0 1 1 219.428572 0 109.714286 109.714286 0 1 1-219.428572 0Z"  horiz-adv-x="1024" />

    
    <glyph glyph-name="tuxingjiemian" unicode="&#58996;" d="M451.764706 414.117647H111.435294c-15.058824 0-30.117647 12.047059-30.117647 30.117647V784.564706c0 15.058824 15.058824 30.117647 30.117647 30.117647H451.764706c18.070588 0 30.117647-15.058824 30.117647-30.117647V444.235294c0-18.070588-15.058824-30.117647-30.117647-30.117647zM912.564706 414.117647H572.235294c-15.058824 0-30.117647 12.047059-30.117647 30.117647V784.564706c0 15.058824 15.058824 30.117647 30.117647 30.117647h340.329412c18.070588 0 30.117647-15.058824 30.117647-30.117647V444.235294c0-18.070588-12.047059-30.117647-30.117647-30.117647zM451.764706-46.682353H111.435294c-15.058824 0-30.117647 15.058824-30.117647 30.117647V323.764706c0 15.058824 15.058824 30.117647 30.117647 30.117647H451.764706c18.070588 0 30.117647-15.058824 30.117647-30.117647v-340.329412c0-18.070588-15.058824-30.117647-30.117647-30.117647zM912.564706-46.682353H572.235294c-15.058824 0-30.117647 15.058824-30.117647 30.117647V323.764706c0 15.058824 15.058824 30.117647 30.117647 30.117647h340.329412c18.070588 0 30.117647-15.058824 30.117647-30.117647v-340.329412c0-18.070588-12.047059-30.117647-30.117647-30.117647z"  horiz-adv-x="1024" />

    
    <glyph glyph-name="wenzijiemian" unicode="&#58997;" d="M42.164706 808.658824h939.670588V655.058824H42.164706zM42.164706 576.752941h764.988235v-153.6H42.164706zM42.164706 344.847059h605.364706v-153.6H42.164706zM42.164706 112.941176h376.470588v-153.6H42.164706z"  horiz-adv-x="1024" />

    
    <glyph glyph-name="hangrenjiankong" unicode="&#58993;" d="M452.87 65.9a27.14 27.14 0 0 0-5.19 0.5 354.05 354.05 0 1 0 319.23 98 27 27 0 1 0-38.32 38 299.84 299.84 0 1 1-270.59-83 27 27 0 0 0-5.13-53.5zM246.29 399.2H130.08a27 27 0 0 0 0 54h116.21a27 27 0 1 0 0-54zM901.34 399.2H785.13a27 27 0 0 0 0 54h116.21a27 27 0 0 0 0-54zM515.71 668.62a27 27 0 0 0-27 27V811.84a27 27 0 1 0 54 0v-116.22a27 27 0 0 0-27-27zM558.69 434.29A107.61 107.61 0 1 0 666.3 541.9a107.73 107.73 0 0 0-107.61-107.61z m0 161.22a53.61 53.61 0 1 1 53.61-53.61 53.67 53.67 0 0 1-53.61 53.61zM338.92-20.9c-44.94 0-77.88 24.9-79.5 26.15a27 27 0 0 0-6.08 36.23l32.23 49a27 27 0 1 0 45.11-29.67L315.05 37c10.61-3.43 24-5.55 38.32-2.33 27.15 6.14 51.77 29.79 73.15 70.29a27 27 0 0 0 47.76-25.21C445 24.28 408-8.68 364.34-18.17a118.84 118.84 0 0 0-25.42-2.73zM659.49 235.44a27 27 0 0 0-9 1.52l-35.63 12.52a27 27 0 0 0 17.91 50.95l30.86-10.85c8.62 0.63 15 3.28 18.89 7.89a25.35 25.35 0 0 1 5.35 12.47c-11.79 7.92-38.52 22.88-61 34.5a27 27 0 1 0 24.78 48c0.73-0.38 18.17-9.4 36.44-19.68 37.35-21 45.58-28.74 49.91-38 5-10.7 4.4-23.6 3.61-30.33a80.67 80.67 0 0 0-11.89-33.7c-14.45-22.78-39.41-35.29-70.23-35.29zM693 306.17z m-4.89 8.56zM641.87-61a85 85 0 0 0-25.63 4.15c-19.94 6.3-46.46 23.6-59.59 70.2a192.25 192.25 0 0 0-7 47.78c0 0.52 0 1 0.05 1.58 0.16 5.13-6.86 22.92-22.43 44.84-10.71 12.86-23 27.37-30 35.47-24.88 3.33-45.35 11.27-61 23.64-16.61 13.15-27.48 30.82-32.3 52.52q-1 4.44-1.62 9.07c-13.21-4.46-27.88-6.17-43.64-5-19.48 1.49-40.28 7.21-61.82 17a27 27 0 0 0-12.74 37.09C352 406.93 352 406.93 352.44 407.71c36.72 62.54 81.35 81.06 112.31 85.57a133.31 133.31 0 0 0 71-9.4c40.32-17.45 64-52.26 66.65-98a176.43 176.43 0 0 0-8.52-63.49l-10.08-67.74 104-118.08q0.64-0.74 1.23-1.5c4.46-5.86 5.06-10.63 6-17.84 0.38-3.08 0.92-7.46 1.55-12.69 1.25-10.37 2.88-24.15 4.51-37.92 3.24-27.51 6.44-55 6.44-55a25.87 25.87 0 0 0 0.18-3c0.07-23.26-10.23-44.75-27.54-57.48a63.84 63.84 0 0 0-38.3-12.14z m-38.18 121.6c0.2-12.81 5.48-58.62 28.83-66 4.09-1.3 11.57-3 15.72 0 3 2.23 5.21 7.28 5.49 12.58-3.81 32.7-9.52 81.28-11.8 99.8l-106 120.3c-0.42 0.48-0.82 1-1.21 1.47a30.58 30.58 0 0 0-5.9 23l12 81a30.28 30.28 0 0 0 1.91 7c0.48 1.39 7.36 21.78 5.64 44.61-1.87 24.86-12.7 40.75-34.08 50a79.58 79.58 0 0 1-41.81 5.52c-27.87-4.06-52.51-23.91-73.25-59-3.09-5.89-30.73-58.73-52.86-101.05a102.5 102.5 0 0 1 16.45-2.69c26.29-2 37 9.77 42.79 18.8 1.51 2.35 3.72 7.69 6.29 13.87 2.69 6.5 6.16 14.85 11 25.06 4.75 10.65 7.7 16.68 15.56 21.13a27 27 0 0 0 37.42-35.62 428.07 428.07 0 0 1-3.74-7.69 218.74 218.74 0 0 1-12.24-34.36c-4.59-17.63-8.14-42.13 1-58.76 7.52-13.75 24.81-21.77 51.39-23.84 11.44-0.89 17.05-7.3 24.82-16.18 3.35-3.83 7.89-9.12 13.48-15.72 9.43-11.14 18.81-22.41 18.9-22.52 0.49-0.6 1-1.21 1.4-1.84v-0.06c12.76-17.89 33.78-51.63 32.8-78.81z m-30.55 74.89z m-2.14 3.79a26.39 26.39 0 0 0 2.18-3.79 26.53 26.53 0 0 1-2.18 3.79z m21.82 180c0-0.09-0.08-0.17-0.11-0.26 0 0.13 0.03 0.22 0.07 0.3z m-49.84 20.8c0-0.09-0.07-0.17-0.1-0.26-0.01 0.13 0.03 0.18 0.06 0.3z"  horiz-adv-x="1024" />

    
    <glyph glyph-name="yindaoicon" unicode="&#58994;" d="M378.88 787.456L156.16 564.736c-40.448-40.96-45.056-102.4-9.216-138.24 8.704-8.704 19.456-15.36 31.232-19.456-15.872-35.84-10.24-76.288 15.36-101.888 14.336-14.336 33.28-22.016 53.76-24.064-7.168-30.72 0.512-61.44 22.016-82.944 10.752-10.752 24.576-17.92 39.424-21.504l-101.376-101.376c-40.96-40.96-41.984-105.472-3.584-143.872 38.4-38.4 103.424-37.376 143.872 3.584l284.16 284.16c2.56-23.552 12.8-46.08 30.208-62.976 14.848-14.848 33.28-24.576 53.248-28.672 56.832-11.264 111.616 26.112 122.368 82.432l51.712 265.728c0.512 2.56 1.024 5.632 1.536 9.216 0.512 2.56 0.512 5.12 1.024 7.68 8.704 38.912 18.944 82.944-18.432 120.32L645.12 841.216c-45.056 45.056-185.344 27.136-266.24-53.76z m237.568 22.016L844.8 581.12c18.944-18.944 16.896-39.936 7.168-81.92l-0.512-1.024c-0.512-2.56-1.024-5.632-1.536-8.704-0.512-3.072-1.024-5.632-1.536-8.192l-51.712-265.728c-6.656-33.792-39.424-55.808-73.216-49.152-11.776 2.56-23.04 8.192-31.744 16.896-14.848 14.848-20.992 35.84-17.408 56.32l19.456 96.768-374.272-374.272c-24.576-24.576-62.464-26.112-84.992-3.584-22.528 22.528-20.992 60.416 3.584 84.992l217.088 217.088-3.072-1.536 3.072 3.072-29.696 29.696-75.776-75.776c-18.944-6.144-38.4-2.56-50.176 9.216-15.872 15.872-15.872 44.032-0.512 67.072l7.68 11.776 71.168 71.168-29.696 29.696-83.456-83.456c-15.872-2.56-30.72 1.536-40.448 11.264-17.92 17.92-15.872 51.2 5.12 75.264l17.92 20.992L314.368 496.64l-29.696 29.696-82.432-82.944c-10.24 1.024-18.944 5.12-25.6 11.776-18.944 18.944-14.848 55.296 9.216 79.36l222.72 222.72c68.608 68.096 182.784 77.312 207.872 52.224z"  horiz-adv-x="1024" />

    
    <glyph glyph-name="yindaoicon1" unicode="&#58995;" d="M645.12-19.456l222.72 222.72c40.448 40.96 45.056 102.4 9.216 138.24-8.704 8.704-19.456 15.36-31.232 19.456 15.872 35.84 10.24 76.288-15.36 101.888-14.336 14.336-33.28 22.016-53.76 24.064 7.168 30.72-0.512 61.44-22.016 82.944-10.752 10.752-24.576 17.92-39.424 21.504l101.376 101.376c40.96 40.96 41.984 105.472 3.584 143.872-38.912 38.912-103.424 37.376-144.384-3.072L391.68 549.376c-2.56 23.552-12.8 46.08-30.208 62.976-14.848 14.848-33.28 24.576-53.248 28.672-56.832 11.264-111.616-26.112-122.368-82.432l-51.712-265.728c-0.512-2.56-1.024-5.632-1.536-9.216-0.512-2.56-0.512-5.12-1.024-7.68-8.704-38.912-18.944-82.944 18.432-120.32l228.352-228.352c45.568-45.568 185.856-27.648 266.752 53.248z m-237.568-22.016L179.2 186.88c-18.944 18.944-16.896 39.936-7.168 81.92l0.512 1.024c0.512 2.56 1.024 5.632 1.536 8.704 0.512 3.072 1.024 5.632 1.536 8.192l51.712 265.728c6.656 33.792 39.424 55.808 73.216 49.152 11.776-2.56 23.04-8.192 31.744-16.896 14.848-14.848 20.992-35.84 17.408-56.32l-19.456-96.768 374.272 374.272c24.576 24.576 62.464 26.112 84.992 3.584 22.528-22.528 20.992-60.416-3.584-84.992l-217.088-217.088 3.072 1.536-3.072-3.072 29.696-29.696 75.776 75.776c18.944 6.144 38.4 2.56 50.176-9.216 15.872-15.872 15.872-44.032 0.512-67.072l-7.68-11.776-71.168-71.168 29.696-29.696 83.456 83.456c15.872 2.56 30.72-1.536 40.448-11.264 17.92-17.92 15.872-51.2-5.12-75.264l-17.92-20.992-67.072-67.584 29.696-29.696 82.432 82.432c10.24-1.024 18.944-5.12 25.6-11.776 18.944-18.944 14.848-55.296-9.216-79.36L615.424 10.24c-68.608-67.584-182.784-76.8-207.872-51.712z"  horiz-adv-x="1024" />

    
    <glyph glyph-name="ziyuan" unicode="&#58992;" d="M1007.065517 476.16a16.516129 16.516129 0 0 1-16.185806 20.48h-206.451613V584.836129a242.126452 242.126452 0 0 1 66.064516 16.516129A267.56129 267.56129 0 0 1 1007.065517 787.654194a16.516129 16.516129 0 0 1-16.185806 20.48h-206.451613V862.967742a33.032258 33.032258 0 0 1-33.032258 33.032258H272.428098a33.032258 33.032258 0 0 1-33.032258-33.032258v-54.833548H32.613905a16.516129 16.516129 0 0 1-16.51613-20.48 267.230968 267.230968 0 0 1 157.233549-186.301936 242.126452 242.126452 0 0 1 66.064516-16.516129v-88.526452H32.613905a16.516129 16.516129 0 0 1-16.185807-20.48 264.258065 264.258065 0 0 1 223.298065-202.818064v-64.412903H32.613905a16.516129 16.516129 0 0 1-16.185807-20.48 264.258065 264.258065 0 0 1 223.298065-202.818065V-94.967742a33.032258 33.032258 0 0 1 33.032258-33.032258h479.298064a33.032258 33.032258 0 0 1 33.032258 33.032258v80.268387A264.258065 264.258065 0 0 1 1007.065517 188.449032a16.516129 16.516129 0 0 1-16.185806 20.48h-206.451613v64.082581A264.258065 264.258065 0 0 1 1007.065517 476.16zM515.215195 88.36129a104.381935 104.381935 0 1 0 104.381935 104.381936 104.381935 104.381935 0 0 0-104.381935-104.381936z m0 259.303226a104.381935 104.381935 0 1 0 104.381935 104.381936 104.381935 104.381935 0 0 0-104.381935-104.381936z m0 259.303226a104.381935 104.381935 0 1 0 104.381935 104.381935 104.381935 104.381935 0 0 0-104.381935-104.051612z"  horiz-adv-x="1024" />

    
    <glyph glyph-name="shipin" unicode="&#58891;" d="M510.414861 854.786378c-208.354939 0-377.263158-169.284425-377.263158-378.104339C133.151703 267.85367199999996 510.414861-105.80804999999998 510.414861-105.80804999999998S887.678019 267.85367199999996 887.678019 476.682039c0 208.819913-168.908219 378.104338-377.263158 378.104339z m0-621.374613C375.593478 233.41176499999995 266.303406 342.70183699999995 266.303406 477.52322s109.290072 244.111455 244.111455 244.111455S754.526316 612.344603 754.526316 477.52322s-109.290072-244.111455-244.111455-244.111455zM523.383414 611.816223l-2.079703 47.520363-47.820483 2.062795v-51.65018S355.662993 600.1073269999999 348.73065 450.664619h320.198143c-10.394287 158.395575-145.545379 161.151604-145.545379 161.151604z m-14.553693-188.010204H396.551133s-6.932343-121.8951 112.278588-130.15896c117.820235 8.952867 112.278588 130.15896 112.278589 130.15896h-112.278589z m-1.039851-88.839662c-18.945585 0-34.306642 12.486671-34.306642 27.889998 0 15.407554 15.361057 27.894225 34.306642 27.894225s34.306642-12.486671 34.306642-27.894225c0-15.403327-15.361057-27.889998-34.306642-27.889998z"  horiz-adv-x="1024" />

    
    <glyph glyph-name="qianwang" unicode="&#58991;" d="M434.176 89.088c-7.168 0-14.336 3.072-19.456 8.192-11.264 11.264-11.264 28.672 0 39.936L661.504 384 414.72 630.784c-11.264 11.264-11.264 28.672 0 39.936s28.672 11.264 39.936 0l267.264-267.264c11.264-11.264 11.264-28.672 0-39.936L454.656 97.28c-6.144-5.12-13.312-8.192-20.48-8.192zM512-107.52C240.64-107.52 20.48 112.64 20.48 384S240.64 875.52 512 875.52s491.52-220.16 491.52-491.52-220.16-491.52-491.52-491.52z m0 955.392C256 847.872 48.128 640 48.128 384S256-79.872 512-79.872 975.872 128 975.872 384 768 847.872 512 847.872z"  horiz-adv-x="1024" />

    
    <glyph glyph-name="van" unicode="&#58987;" d="M722.389329 641.055235a189.942292 189.942292 0 0 1-31.446001 17.5169V713.233306L680.179931 724.207749h1.477329c2.743611 0 5.698269 2.321517 5.698269 9.708162V807.360264A69.012366 69.012366 0 0 1 652.743822 853.790602c-31.657049 20.049464-39.043693 38.410552-144.778235 42.209398h-1.688376c-105.523495-3.798846-104.257214-21.104699-135.914262-42.209398a69.012366 69.012366 0 0 1-34.822754-46.430338v-73.444353c0-7.386645 2.954658-9.497115 5.698269-9.708162H342.504746l-10.130256-10.974443v-54.661171a189.942292 189.942292 0 0 1-32.079142-17.5169 36.722176 36.722176 0 0 1 0-10.974444l31.446001 9.075021v-45.797197l13.718055-17.094806v-38.6216c0-14.562242 22.793075-11.818631 22.793075-11.818631h287.023907s23.215169-2.532564 22.793075 11.818631 0 38.621599 0 38.6216l13.718055 17.094806v45.797197l31.446001-9.075021a36.933223 36.933223 0 0 1-0.844188 10.974444zM345.248357 727.162407v9.708162zM686.722388-86.001649v66.479802c0 8.863974-5.909316 6.753504-5.909316 6.753504h-5.909316v157.230008l10.763397 16.039572v107.211871l-10.763397 13.718054V499.231657a13.29596 13.29596 0 0 1-12.662819 13.718054H360.865834a13.29596 13.29596 0 0 1-12.873867-13.718054V283.963726l-10.763396-17.094806v-107.000824l10.763396-21.104699v-153.431163H342.504746s-5.909316 1.899423-5.909316-6.753504v-71.755976a34.822754 34.822754 0 0 1 34.822753-34.822754h280.692498a34.822754 34.822754 0 0 1 34.822754 34.822754v1.055234a21.104699 21.104699 0 0 1-0.211047 6.120363zM508.598728 525.612531H380.493204v-12.66282h262.33141v12.66282z m0 0M363.609445 784.356142c-1.055235-42.209398 0-112.699093 1.688376-133.381698s5.698269-54.02803 5.698268-54.02803V770.215993c0 32.923331 3.165705 46.641385 34.822754 81.886233a90.961253 90.961253 0 0 1-42.209398-67.746084zM430.933435 781.612531a387.904369 387.904369 0 0 1-38.832646-65.635614s25.536686 37.14427 38.621599 58.248969 63.314097 19.416323 63.314097 19.416323a90.961253 90.961253 0 0 1-63.10305-12.029678zM384.714144 537.220115a369.332234 369.332234 0 0 0 0 52.339654l-4.643034 22.793075s-1.899423-47.485573 0-65.846661 13.718054-17.094806 12.029679-16.672712A22.793075 22.793075 0 0 0 384.714144 537.220115zM637.970533 713.444353a84.418796 84.418796 0 0 1-45.375103 25.95878 396.135202 396.135202 0 0 1-84.418796 9.497114 364.056059 364.056059 0 0 1-77.243199-9.497114A84.418796 84.418796 0 0 1 384.714144 713.444353c-8.44188-11.607585-12.662819-18.150041-8.863974-50.862325A525.929101 525.929101 0 0 1 384.714144 608.342951a84.418796 84.418796 0 0 0 28.280297 5.698269c17.938994 1.266282 84.418796 3.587799 93.28277 4.009893s84.418796-2.954658 102.35779-4.009893a84.418796 84.418796 0 0 0 28.280297-5.698269 524.451772 524.451772 0 0 1 8.863974 54.239077c3.798846 32.712284 0 39.25474-8.863974 50.862325z m0 0M592.384383 781.612531a90.961253 90.961253 0 0 1-63.314097 12.029678s49.596043 1.688376 63.314097-19.416323 38.621599-58.248969 38.621599-58.248969a387.904369 387.904369 0 0 1-38.621599 65.635614zM659.075232 784.356142a90.961253 90.961253 0 0 1-42.209398 67.535037c31.657049-35.244847 34.822754-48.962902 34.822753-81.886233v-173.269579s4.009893 33.556472 5.698269 54.02803 3.587799 90.961253 1.688376 133.592745zM637.970533 589.770816A368.488046 368.488046 0 0 0 637.970533 537.220115a22.793075 22.793075 0 0 0-7.386645-7.386644c-1.688376 0 10.130256-1.688376 12.029679 16.672712s0 65.846661 0 65.846661zM380.282157-87.901072a5.698269 5.698269 0 0 0-5.276175-6.120362 5.698269 5.698269 0 0 0-5.276174 6.120362V466.941467a5.698269 5.698269 0 0 0 5.276174 6.33141 5.698269 5.698269 0 0 0 5.276175-6.33141zM405.818843-87.901072a5.698269 5.698269 0 0 0-5.276175-6.120362 5.698269 5.698269 0 0 0-5.276175 6.120362V466.941467a5.698269 5.698269 0 0 0 5.276175 6.33141 5.698269 5.698269 0 0 0 5.276175-6.33141zM429.8782-87.901072a5.276175 5.276175 0 1 0-10.341303 0V466.941467a5.276175 5.276175 0 1 0 10.341303 0zM454.781745-87.901072a5.276175 5.276175 0 1 0-10.341303 0V466.941467a5.276175 5.276175 0 1 0 10.341303 0zM479.474243-87.901072a5.276175 5.276175 0 1 0-10.341303 0V466.941467a5.276175 5.276175 0 1 0 10.341303 0zM504.377788-87.901072a5.276175 5.276175 0 1 0-10.341303 0v555.053586a5.276175 5.276175 0 1 0 10.341303 0zM642.824614-87.901072a5.276175 5.276175 0 1 1 10.341302 0V466.941467a5.276175 5.276175 0 1 1-10.341302 0zM618.132116-87.901072a5.276175 5.276175 0 1 1 10.341302 0V466.941467a5.276175 5.276175 0 1 1-10.341302 0zM593.228571-87.901072a5.276175 5.276175 0 1 1 10.341302 0V466.941467a5.276175 5.276175 0 1 1-10.341302 0zM568.536073-87.901072a5.276175 5.276175 0 1 1 10.341303 0V466.941467a5.276175 5.276175 0 1 1-10.341303 0zM543.632528-87.901072a5.276175 5.276175 0 1 1 10.341303 0v555.053586a5.276175 5.276175 0 1 1-10.341303 0zM518.728983-87.901072a5.276175 5.276175 0 1 1 10.341303 0v555.053586a5.276175 5.276175 0 1 1-10.341303 0z"  horiz-adv-x="1024" />

    
    <glyph glyph-name="car" unicode="&#58988;" d="M310.582996 176.758569l-8.757431-15.763375v-131.011154l8.757431-15.763375v162.537904zM734.442614 604.121159l-8.75743 3.152675V706.057646L712.724187 720.770128v22.419022h4.203567a5.254458 5.254458 0 0 1 5.604755 5.254458v23.82021c0 35.029721-36.781207 97.032326-126.106994 116.298672A420.356646 420.356646 0 0 1 511.653591 895.918731a420.356646 420.356646 0 0 1-85.12222-7.005944C337.55588 869.646441 300.424377 809.045024 300.424377 772.263818v-24.170508a5.254458 5.254458 0 0 1 5.604755-5.254458H311.984184V720.770128l-12.960996-15.763374v-97.73292l-8.75743-3.152675a15.763374 15.763374 0 0 1-13.311294-16.113671l1.751486-4.553864 18.565752 5.604755v-14.362185l14.712482-15.413077v-601.810599a5.955052 5.955052 0 0 1-7.706538-7.356241v-11.559808c0-30.12556 4.203566-66.556469 207.375945-66.556469s207.375946 35.029721 207.375946 66.556469V-49.883723a5.955052 5.955052 0 0 1-5.955053 5.955052v58.149336l8.407133 15.763375V160.2946l-8.407133 15.763374V559.283117l12.960997 15.763374v14.011888l18.565752-5.604755 1.751486 4.553864a15.763374 15.763374 0 0 1-11.910105 16.113671zM712.724187 403.751158h4.203567v-34.329126h-4.203567zM310.582996 369.422032H306.379429v34.329126h4.203567zM310.582996 192.87224H306.379429v34.329126h4.203567zM712.724187 227.551663h4.203567v-34.329126h-4.203567zM646.167718 860.889011a79.517466 79.517466 0 0 0 40.634476-70.059442v-840.713292c0-10.508916-5.254458-35.029721-46.939825-50.442798 48.691312 16.463969 54.646364 41.685367 54.646364 52.194284V788.727786A80.568357 80.568357 0 0 1 646.167718 860.889011zM649.320393 626.890477h-9.107727v-542.610371a233.998533 233.998533 0 0 0-3.502972-38.882989c8.407133 6.30535 12.610699 41.33507 12.610699 47.64042zM662.28139-49.883723v78.466574h-8.75743v-79.167169c0-29.424965-10.859213-49.041609-52.544581-58.84993 50.442798 10.158619 61.302011 29.775262 61.302011 59.550525zM550.886878 860.889011c63.053497-39.933881 105.089162-169.543847 105.089162-222.088429H662.28139C662.28139 693.446946 624.098994 825.85929 550.886878 860.889011zM336.504989-49.883723V790.829569a79.517466 79.517466 0 0 0 40.634476 70.059442 80.568357 80.568357 0 0 1-48.341015-72.161225v-835.458834c0-10.859213 5.955052-35.029721 54.646364-52.194284-41.685367 16.463969-46.939826 40.284179-46.939825 49.041609zM361.37609 640.552068h5.604756c0 52.544581 42.385962 182.154547 105.089161 222.088429C399.208189 825.85929 361.37609 693.446946 361.37609 640.552068zM373.98679 626.890477v-533.85294c0-5.604755 3.853269-39.583584 11.559807-44.838043a294.249652 294.249652 0 0 0-2.45208 35.029721V626.890477zM368.031737-49.883723v79.167168h-7.005944v-78.466574c0-30.475857 12.610699-50.0925 61.302011-59.550525-43.086556 9.808322-53.595472 29.424965-54.296067 58.849931zM344.561824 613.579184l27.67348-97.382623a2.45208 2.45208 0 0 1 2.45208-1.751487 2.101783 2.101783 0 0 1 2.101783 2.101784s7.356241 18.565752 135.214722 18.565752 134.864424-18.215455 134.864424-18.215455a2.45208 2.45208 0 0 1 2.101783-2.101783 2.45208 2.45208 0 0 1 2.45208 0l27.67348 97.382623a53.94577 53.94577 0 0 1 0 35.02972c-11.559808 38.88299-70.059441 49.041609-166.74147 49.041609S356.471929 687.842191 344.912122 650.710687a53.94577 53.94577 0 0 1-0.350298-37.131503zM365.579657 368.37114v94.229948a1080.666878 1080.666878 0 0 1-36.781207 169.19355l-8.056835-81.969546v-183.555735l37.4818-4.553864a6.655647 6.655647 0 0 1 7.356242 6.655647zM365.22936 257.677223V335.443203a6.655647 6.655647 0 0 1-5.955053 6.655646l-38.88299 4.553864v-93.529354a218.585456 218.585456 0 0 1 2.452081-32.227343l9.458024-155.531959a2.802378 2.802378 0 0 1 5.254458 0l24.520805 151.328393a251.513393 251.513393 0 0 1 3.152675 40.984773zM657.727526 368.37114a6.655647 6.655647 0 0 1 7.356241-6.655647l37.481801 4.553864V549.825092l-8.056835 81.969546a1080.666878 1080.666878 0 0 1-36.781207-169.19355zM662.28139 342.098849a6.655647 6.655647 0 0 1-5.955053-6.655646v-77.76598a251.863691 251.863691 0 0 1 5.955053-39.933881l24.520804-151.328393a2.802378 2.802378 0 0 1 5.254458 0l9.458025 155.531959a218.235159 218.235159 0 0 1 2.45208 32.227343v92.478462zM646.868313 116.507449a2.45208 2.45208 0 0 1-2.101784 0 266.92647 266.92647 0 0 0-131.711749-29.775262 267.627065 267.627065 0 0 0-131.711749 29.775262 2.45208 2.45208 0 0 1-2.101783 0l-22.068724-85.822815c0-7.005944 11.910105-70.059441 154.481067-70.059441s153.780473 61.302011 154.481068 70.059441z"  horiz-adv-x="1024" />

    
    <glyph glyph-name="bus" unicode="&#58989;" d="M612.101033 678.617769l38.714556-8.130056 1.355009 4.065028a3.677883 3.677883 0 0 1-2.1293 4.452174 256.677505 256.677505 0 0 1-34.06881 11.420794 15.872968 15.872968 0 0 1-3.871455 0V805.40794L588.678727 818.570888v1.35501h2.322873a4.065028 4.065028 0 0 1 4.065028 3.871455v30.971645C595.260201 867.544802 572.031468 896 447.564171 896S291.157366 867.544802 291.157366 854.768998v-30.971645a4.065028 4.065028 0 0 1 4.065028-3.871455h3.290737V818.570888l-23.615879-13.550094v-114.20794a15.872968 15.872968 0 0 1-3.871455 0 256.677505 256.677505 0 0 1-34.068809-11.420794 3.677883 3.677883 0 0 1-2.129301-4.452173l1.355009-4.065029 38.714556 8.130057v-8.130057l10.259357-48.393194-3.290737-22.648016a177.119093 177.119093 0 0 1-1.935728-26.713043V-87.349716a34.262382 34.262382 0 0 1 0-6.000757 7.936484 7.936484 0 0 1-6.000756-7.549338 27.100189 27.100189 0 0 1 27.100189-27.100189h284.551985a27.100189 27.100189 0 0 1 27.100189 27.100189 7.936484 7.936484 0 0 1-6.194329 7.742911 34.262382 34.262382 0 0 1 0 6.000756V573.314178a177.119093 177.119093 0 0 1-1.935727 26.713043L602.422394 622.094518l10.259357 48.393195zM447.564171 866.77051H358.907838C366.070031 876.642722 386.782318 886.321361 426.271165 889.03138 384.265872 886.708507 362.392148 876.642722 355.036383 866.77051H327.161902c-10.259357 0-15.872968-6.96862-15.872967-19.357277v-137.436673h5.61361v135.500945c0 12.969376 5.613611 19.357278 15.872968 19.357278h20.712287a14.711531 14.711531 0 0 1-1.548582-4.258602L329.678349 732.043856h4.258601l21.873724 128.14518a14.905104 14.905104 0 0 0 1.548582 4.452174H447.564171zM321.548292 705.717958h-5.420038v-808.359924c0-4.258601 0-6.96862 6.194329-6.96862h3.290737a7.936484 7.936484 0 0 0-4.065028 6.96862zM559.836383 866.77051h-27.874481C524.993282 876.642722 502.732413 886.708507 460.72712 889.03138c38.714556-2.710019 60.201134-12.195085 67.5569-22.454442H447.564171v-2.129301h82.268431a14.905104 14.905104 0 0 0 1.548582-4.452174l22.067297-128.145179h4.258601l-22.648015 128.532325a14.711531 14.711531 0 0 1-1.548582 4.258601h20.90586c10.259357 0 15.872968-6.96862 15.872968-19.357278v-135.500945h5.61361V846.638941c-0.193573 13.162949-5.807183 20.131569-16.06654 20.131569zM565.837139-102.641966a7.936484 7.936484 0 0 0-4.065029-6.96862h3.290738c5.226465 0 6.194329 2.710019 6.194329 6.96862V705.717958h-5.420038zM447.564171 764.37051c-77.429112 0-122.337996-9.872212-127.177316-41.231001a33.681664 33.681664 0 0 1-5.420038-19.357278v-77.429112a2.129301 2.129301 0 0 1 0-1.548582s23.809452 9.872212 130.080908 9.872212 122.144423-9.872212 122.337996-9.872212a1.161437 1.161437 0 0 1 1.355009 0 2.129301 2.129301 0 0 1 0 1.548582v77.429112a33.875236 33.875236 0 0 1-5.420037 19.357278C562.159256 754.498299 524.993282 764.37051 447.564171 764.37051zM297.545267 555.118336a6.96862 6.96862 0 0 1 6.96862 6.968621v147.115311l-5.807183-30.390926-13.162949-88.656333a48.973913 48.973913 0 0 1 0-6.000756v-26.713043a2.516446 2.516446 0 0 1 2.516446-2.516446zM292.705948 523.953119a7.162193 7.162193 0 0 1-7.162193-7.162193v-111.885066a7.162193 7.162193 0 0 1 7.162193-7.162193 16.840832 16.840832 0 0 1 16.840832 16.840832v92.527788a16.840832 16.840832 0 0 1-16.840832 16.840832zM292.705948 364.836295a7.162193 7.162193 0 0 1-7.162193-7.162193v-111.885066a7.162193 7.162193 0 0 1 7.162193-7.162193 16.840832 16.840832 0 0 1 16.840832 16.840832V348.189036a16.840832 16.840832 0 0 1-16.840832 16.647259zM292.705948 205.525898a7.162193 7.162193 0 0 1-7.162193-7.162193v-111.885066a7.162193 7.162193 0 0 1 7.162193-7.162193 16.840832 16.840832 0 0 1 16.840832 16.840832v92.527788a16.840832 16.840832 0 0 1-16.840832 16.840832zM292.705948 42.344045a7.162193 7.162193 0 0 1-7.162193-7.162192v-111.885067a7.162193 7.162193 0 0 1 7.162193-7.162192 16.840832 16.840832 0 0 1 16.840832 16.840831V24.922495a16.840832 16.840832 0 0 1-16.840832 17.42155zM601.45453 590.155009l-12.969376 88.656333L583.065116 709.202268v-147.115311a6.96862 6.96862 0 0 1 6.96862-6.968621h9.872212a2.516446 2.516446 0 0 1 2.516446 2.516447V584.347826a48.78034 48.78034 0 0 1-0.967864 5.807183zM593.518046 523.953119a16.840832 16.840832 0 0 1-16.840832-16.840832v-92.527788a16.840832 16.840832 0 0 1 16.840832-16.840832 7.162193 7.162193 0 0 1 7.162193 7.162193v111.885066a7.162193 7.162193 0 0 1-7.162193 7.162193zM593.518046 364.836295a16.840832 16.840832 0 0 1-16.840832-16.840832v-92.527788a16.840832 16.840832 0 0 1 16.840832-16.840832 7.162193 7.162193 0 0 1 7.162193 7.162193V357.867675a7.162193 7.162193 0 0 1-7.162193 6.96862zM593.518046 205.525898a16.840832 16.840832 0 0 1-16.840832-16.840832v-92.527788a16.840832 16.840832 0 0 1 16.840832-16.840832 7.162193 7.162193 0 0 1 7.162193 7.162193V199.137996a7.162193 7.162193 0 0 1-7.162193 6.387902zM593.518046 42.344045a16.840832 16.840832 0 0 1-16.840832-16.840831v-92.527789a16.840832 16.840832 0 0 1 16.840832-16.840831 7.162193 7.162193 0 0 1 7.162193 7.162192v111.885067a7.162193 7.162193 0 0 1-7.162193 7.162192zM368.586477 558.021928m8.32363 0l134.145935 0q8.323629 0 8.32363-8.323629l0-57.491116q0-8.323629-8.32363-8.323629l-134.145935 0q-8.323629 0-8.32363 8.323629l0 57.491116q0 8.323629 8.32363 8.323629ZM368.586477 69.637807m8.32363 0l134.145935 0q8.323629 0 8.32363-8.323629l0-57.491116q0-8.323629-8.32363-8.323629l-134.145935 0q-8.323629 0-8.32363 8.323629l0 57.491116q0 8.323629 8.32363 8.323629ZM511.056042 313.733081H376.910107a8.130057 8.130057 0 0 1-4.452174-1.355009H370.135059v-2.516446a8.130057 8.130057 0 0 1-1.355009-4.258601v-58.071834a8.323629 8.323629 0 0 1 8.323629-8.32363h134.145936a8.323629 8.323629 0 0 1 8.32363 8.32363v58.071834a8.323629 8.323629 0 0 1-8.517203 8.130056z"  horiz-adv-x="1024" />

    
    <glyph glyph-name="truck" unicode="&#58990;" d="M684.298935 687.085625l29.35986-8.188804a50.331188 50.331188 0 0 1 0 10.3858 5.792081 5.792081 0 0 1-1.797543 2.596451l-27.562317 12.183343V782.754827L669.519142 793.340355v1.198362h2.995904a5.392627 5.392627 0 0 1 5.592354 5.1929V841.075093c0 16.97679-13.980886 54.924907-179.754242 54.924907s-153.789741-37.948118-153.789741-54.924907v-41.343476a5.392627 5.392627 0 0 1 5.392627-5.1929h4.194266v-1.198362l-16.177882-11.184708v-79.890775l-25.964501-11.384435a5.792081 5.792081 0 0 1-1.797543-2.59645 50.331188 50.331188 0 0 1 0-10.385801l27.762044 7.789351V618.579286c-2.196996-5.991808-3.395358-2.396723-3.395358-8.787985V576.436903c0-9.387166 7.589624-8.987712 16.97679-8.987712v-5.192901c0-6.990443 0-12.982251 14.180612-16.976789l-7.78935-17.775698h24.166959l14.779793 14.779794a15.179247 15.179247 0 0 0 3.395358 0h222.096353a15.778428 15.778428 0 0 0 4.793446 0l14.580067-14.580067h24.566413l-7.989078 17.975425c13.181978 3.794812 13.781159 9.78662 13.781159 16.777062v5.1929c9.387166 0 16.97679 0 16.97679 8.987713v34.153306c0 6.391262-1.198362 2.796177-3.395358 8.787985v20.971328l-1.797543 23.368052zM672.115592 171.590404h-12.582797v112.845718h9.986347c9.586893 0 13.581432 7.78935 13.581431 17.575971v46.93583a5.991808 5.991808 0 0 1 3.994539 1.797542 10.984981 10.984981 0 0 1 2.59645 3.595085v1.198362a18.175151 18.175151 0 0 1 1.198362 6.191535c0 7.19017-3.595085 12.982251-8.188804 12.98225V396.68266c0 9.586893-3.794812 17.57597-13.581432 17.575971h-9.586893v97.866198a18.374878 18.374878 0 0 0-10.585528-3.595085H377.718089a18.374878 18.374878 0 0 0-10.585528 3.595085v-97.866198h-10.785255c-9.586893 0-13.581432-7.78935-13.581431-17.575971v-22.169689c-4.59372 0-8.188804-5.792081-8.188805-12.982251a18.175151 18.175151 0 0 1 1.198362-6.191535v-1.198362a10.984981 10.984981 0 0 1 2.59645-3.595085 5.991808 5.991808 0 0 1 3.994539-1.797542v-46.736103c0-9.586893 3.794812-17.57597 13.581432-17.575971h10.785254v-113.045445h-11.783889c-13.181978 0-19.972694-10.785255-19.972694-23.967232v-79.890775a25.165594 25.165594 0 0 1 24.366686-28.361225h7.989078v-122.432611H349.956044a8.188804 8.188804 0 0 1-8.188804-8.188805v-27.36259a8.188804 8.188804 0 0 1 8.188804-8.188804h325.554906a8.188804 8.188804 0 0 1 8.188804 8.188804v26.363956a8.188804 8.188804 0 0 1-8.188804 8.188804h-15.978155v122.632339h9.986347c13.181978 0 19.972694 10.585528 19.972693 23.767505v88.279306c0 11.584162-5.792081 21.171055-17.376243 21.171055zM439.433712 542.882777h145.201482v-34.353033H439.433712zM583.237106 839.876731L609.601061 714.448215a259.645017 259.645017 0 0 1-47.734738 14.779794 250.657304 250.657304 0 0 0 43.141019-13.980886l4.993173-2.59645 3.395358-19.972694h5.592354l-2.59645 14.979521a52.12873 52.12873 0 0 0 10.385801-11.584163V696.273064h6.391261v-12.582797a63.113712 63.113712 0 0 0 2.995905-19.972693v-101.661011c0-5.592354-3.195631-7.19017-8.388532-9.387166 9.187439 1.398089 14.779793 3.395358 14.779793 10.785255v99.863468a56.72245 56.72245 0 0 1-9.387166 32.355763V839.27755c0 7.389897-1.597815 9.187439-10.585527 9.187439h-37.948118l30.158767-3.195631c8.987712-0.998635 11.184708-2.196996 11.184709-9.586893v-132.618685a53.726546 53.726546 0 0 1-10.984982 8.588258L588.230279 840.076458c-2.995904 16.777063-19.972694 34.353033-87.080944 38.347572 63.712893-4.59372 79.291594-22.369417 82.087771-38.547299zM626.178397 559.859567v98.265652h-6.590989v-98.065925c0-3.595085-1.398089-5.1929-4.993174-7.389897h4.194266c6.391262-0.199727 7.389897 1.398089 7.389897 7.19017zM387.304981 836.081919c0 7.389897 1.997269 8.588258 11.184709 9.586893l30.158767 3.195631H391.499247c-9.187439 0-10.585528-1.997269-10.585527-9.187439v-109.849815h6.391261zM388.303616 693.077433h5.592354l29.160133 146.799298c2.995904 16.177882 10.385801 33.953579 74.098693 38.547299C429.846819 874.429491 420.859107 856.054613 418.06293 840.076458zM380.514266 729.427736v-169.568169c0-5.792081 0.998635-7.389897 7.589623-7.389897h4.194266c-3.595085 2.196996-4.993173 3.794812-4.993174 7.389897V729.427736zM670.31805 600.803589h4.194265v-17.775697h-4.194265zM345.162598 600.803589h4.194266v-17.775697h-4.194266zM629.573755 731.225278l-2.596451 1.997269C609.601061 759.386776 579.642021 767.975034 496.156161 767.975034s-87.480398-8.388531-104.457187-34.55276c0 0-1.797542-1.398089-2.396723-1.997269a29.559587 29.559587 0 0 1-6.790716-23.368052l8.987712-77.294324a1.797542 1.797542 0 0 1 0-1.398088 1.797542 1.797542 0 0 1 1.597816 0s-22.369417 9.387166 102.459918 9.387166 129.023601-9.187439 129.223327-9.387166h1.597816a1.797542 1.797542 0 0 1 0 1.398088l8.987712 77.294324A29.559587 29.559587 0 0 1 629.573755 731.225278zM355.748126 696.273064v-75.496782a13.581432 13.581432 0 0 1 9.786619-13.381704h1.398089a3.794812 3.794812 0 0 1 4.59372 3.994538v36.350303a686.860932 686.860932 0 0 1-8.787986 78.492686zM649.546448 647.739419v-36.949483a3.794812 3.794812 0 0 1 4.393993-3.994539h1.398088a13.381705 13.381705 0 0 1 9.187439 13.381705V696.273064l-6.790715 30.358494a721.613419 721.613419 0 0 1-8.188805-78.892139zM429.846819-64.886288a4.993173 4.993173 0 1 0-9.78662 0v519.290033a4.993173 4.993173 0 1 0 9.78662 0zM454.013778-64.886288a4.993173 4.993173 0 1 0-9.78662 0v519.290033a4.993173 4.993173 0 1 0 9.78662 0zM479.179372-64.886288a4.993173 4.993173 0 1 0-9.78662 0v519.290033a4.993173 4.993173 0 1 0 9.78662 0zM504.344966-64.886288a4.993173 4.993173 0 1 0-9.78662 0v519.290033a4.993173 4.993173 0 1 0 9.78662 0zM529.710287-64.886288a4.993173 4.993173 0 1 0-9.78662 0v519.290033a4.993173 4.993173 0 1 0 9.78662 0zM554.676154-64.886288a4.993173 4.993173 0 1 0-9.78662 0v519.290033a4.993173 4.993173 0 1 0 9.78662 0zM595.020995-64.886288a4.993173 4.993173 0 1 1 9.78662 0v519.290033a4.993173 4.993173 0 1 1-9.78662 0zM569.655674-64.886288a4.993173 4.993173 0 1 1 9.78662 0v519.290033a4.993173 4.993173 0 1 1-9.78662 0zM622.783039 487.358689H393.696243v-586.198556H629.573755V487.358689z m-2.396723-577.210844H402.683956V478.970158h217.70236z"  horiz-adv-x="1024" />

    
    <glyph glyph-name="shishi" unicode="&#58986;" d="M512-128C228.894118-128 0 100.894118 0 384S228.894118 896 512 896s512-228.894118 512-512-228.894118-512-512-512z m0 909.552941C292.141176 781.552941 114.447059 603.858824 114.447059 384S292.141176-13.552941 512-13.552941 909.552941 164.141176 909.552941 384 731.858824 781.552941 512 781.552941zM674.635294 215.341176H358.4V570.729412c0 30.117647 24.094118 57.223529 57.223529 57.223529s57.223529-24.094118 57.22353-57.223529v-240.941177h201.788235c30.117647 0 57.223529-24.094118 57.22353-57.223529 0-30.117647-27.105882-57.223529-57.22353-57.22353z"  horiz-adv-x="1024" />

    
    <glyph glyph-name="baogao" unicode="&#58985;" d="M549.888 579.584h235.52c19.456 0 34.816 15.36 34.816 34.816s-15.36 34.816-34.816 34.816h-235.52c-19.456 0-34.816-15.36-34.816-34.816s16.384-34.816 34.816-34.816zM236.544 96.256h325.632c19.456 0 34.816 15.36 34.816 34.816s-15.36 34.816-34.816 34.816H236.544c-19.456 0-34.816-15.36-34.816-34.816s15.36-34.816 34.816-34.816zM236.544 395.264h502.784c19.456 0 34.816 15.36 34.816 34.816s-15.36 34.816-34.816 34.816H236.544c-19.456 0-34.816-15.36-34.816-34.816s15.36-34.816 34.816-34.816zM236.544 245.76h512c19.456 0 34.816 15.36 34.816 34.816s-15.36 34.816-34.816 34.816h-512c-19.456 0-34.816-15.36-34.816-34.816s15.36-34.816 34.816-34.816zM257.024 529.408h135.168c30.72 0 55.296 24.576 55.296 55.296V694.272c0 30.72-24.576 55.296-55.296 55.296H257.024c-30.72 0-55.296-24.576-55.296-55.296v-109.568c0-30.72 24.576-55.296 55.296-55.296zM898.048 885.76H125.952C94.208 885.76 68.608 859.136 68.608 826.368V-66.56c0-32.768 25.6-59.392 57.344-59.392H921.6c19.456 0 34.816 15.36 34.816 34.816V826.368C955.392 859.136 929.792 885.76 898.048 885.76z m-11.264-942.08H137.216V816.128h748.544V-56.32z"  horiz-adv-x="1024" />

    
    <glyph glyph-name="jiaotongfangzhen" unicode="&#58971;" d="M564.48 154.88c-33.28 0-60.16-23.04-67.84-53.76-37.12 1.28-72.96 10.24-107.52 25.6v5.12c0 44.8-37.12 81.92-81.92 81.92-8.96 0-17.92-1.28-25.6-5.12-42.24 51.2-65.28 115.2-65.28 183.04 0 23.04 2.56 44.8 7.68 66.56 33.28 5.12 60.16 33.28 60.16 69.12 0 38.4-32 70.4-70.4 70.4s-70.4-32-70.4-70.4c0-15.36 5.12-30.72 14.08-42.24-7.68-30.72-12.8-61.44-12.8-93.44 0-84.48 30.72-167.68 84.48-232.96-2.56-8.96-5.12-17.92-5.12-28.16 0-44.8 37.12-81.92 81.92-81.92 17.92 0 33.28 5.12 46.08 15.36 47.36-23.04 99.84-34.56 153.6-34.56h12.8c11.52-10.24 26.88-15.36 43.52-15.36 38.4 0 70.4 32 70.4 70.4s-29.44 70.4-67.84 70.4z m-248.32-69.12c-2.56 0-5.12-1.28-7.68-1.28-24.32 0-44.8 19.2-46.08 42.24v3.84c0 25.6 20.48 46.08 46.08 46.08h1.28c20.48 0 37.12-14.08 43.52-33.28 1.28-3.84 2.56-8.96 2.56-12.8-1.28-21.76-17.92-40.96-39.68-44.8zM879.36 551.68c0 44.8-37.12 81.92-81.92 81.92-6.4 0-12.8-1.28-17.92-2.56-67.84 76.8-166.4 122.88-271.36 122.88-66.56 0-131.84-17.92-188.16-52.48-16.64-10.24-21.76-32-11.52-48.64 10.24-16.64 32-21.76 48.64-11.52 46.08 28.16 98.56 42.24 152.32 42.24 83.2 0 161.28-35.84 216.32-96-5.12-10.24-8.96-23.04-8.96-35.84 0-42.24 32-75.52 72.96-80.64 7.68-25.6 11.52-51.2 11.52-79.36 0-81.92-33.28-157.44-92.16-212.48-14.08-12.8-15.36-35.84-1.28-49.92 6.4-7.68 16.64-11.52 25.6-11.52s16.64 2.56 24.32 8.96c72.96 67.84 113.92 163.84 113.92 263.68 0 34.56-5.12 69.12-14.08 101.12 12.8 16.64 21.76 37.12 21.76 60.16z m-38.4-17.92c-6.4-16.64-23.04-28.16-43.52-28.16-8.96 0-16.64 2.56-23.04 6.4-14.08 7.68-24.32 23.04-24.32 40.96v2.56c1.28 24.32 21.76 44.8 46.08 44.8 2.56 0 5.12 0 7.68-1.28 21.76-3.84 38.4-23.04 38.4-46.08 2.56-7.68 1.28-14.08-1.28-19.2zM652.8 413.44L448 551.68c-16.64 11.52-39.68-1.28-39.68-21.76v-276.48c0-20.48 23.04-33.28 39.68-21.76l204.8 138.24c15.36 10.24 15.36 33.28 0 43.52z"  horiz-adv-x="1024" />

    
    </font>
</defs>
</svg>
