<?xml version="1.0" standalone="no"?><!DOCTYPE svg PUBLIC "-//W3C//DTD SVG 1.1//EN" "http://www.w3.org/Graphics/SVG/1.1/DTD/svg11.dtd"><svg t="1553751777621" class="icon" style="backgroundcolor: red" viewBox="0 0 1024 1024" version="1.1" xmlns="http://www.w3.org/2000/svg" p-id="597" xmlns:xlink="http://www.w3.org/1999/xlink" width="200" height="200"><defs><style type="text/css"></style></defs><path d="M70.178434 77.223374h189.355326V14.112459h-126.221831A126.22183 126.22183 0 0 0 7.067519 140.356869v757.398721a126.22183 126.22183 0 0 0 126.24441 126.24441h126.221831v-63.110915H70.178434V77.223374z m138.482735 189.355325a50.827431 50.827431 0 0 0 50.850011 50.850011h706.57129a50.827431 50.827431 0 1 0 0-101.700022H259.53376a50.850011 50.850011 0 0 0-50.872591 50.850011z m757.421301 454.08247H259.53376a50.827431 50.827431 0 1 0 0 101.700022h706.57129a50.827431 50.827431 0 1 0-0.02258-101.700022z m0-252.466241H259.53376a50.827431 50.827431 0 1 0 0 101.700022h706.57129a50.827431 50.827431 0 1 0-0.02258-101.700022z" fill="" p-id="598"></path></svg>