<?xml version="1.0" standalone="no"?><!DOCTYPE svg PUBLIC "-//W3C//DTD SVG 1.1//EN" "http://www.w3.org/Graphics/SVG/1.1/DTD/svg11.dtd"><svg t="1540200138162" class="icon" style="" viewBox="0 0 1024 1024" version="1.1" xmlns="http://www.w3.org/2000/svg" p-id="5265" xmlns:xlink="http://www.w3.org/1999/xlink" width="200" height="200"><defs><style type="text/css"></style></defs><path d="M838.4 947.2H185.6A109.0304 109.0304 0 0 1 76.8 838.3744V257.9712a109.0304 109.0304 0 0 1 108.8-108.8h652.8a109.0304 109.0304 0 0 1 108.8 108.8v580.4032A109.0304 109.0304 0 0 1 838.4 947.2zM185.6 221.696a36.2752 36.2752 0 0 0-36.2752 36.2752v580.4032a36.2752 36.2752 0 0 0 36.2752 36.2752h652.8a36.2752 36.2752 0 0 0 36.2752-36.2752V257.9712A36.2752 36.2752 0 0 0 838.4 221.696H185.6z m145.0752 72.5504a36.2752 36.2752 0 0 1-36.2752-36.2752V112.896a36.2752 36.2752 0 0 1 72.5248 0v145.1008a36.2752 36.2752 0 0 1-36.2752 36.2752z m362.6496 0a36.2752 36.2752 0 0 1-36.2752-36.2752V112.896a36.2752 36.2752 0 0 1 72.5248 0v145.1008a36.2752 36.2752 0 0 1-36.2752 36.2752z m181.3248 145.1008H149.3248a36.2752 36.2752 0 0 1 0-72.5504h725.3248a36.2752 36.2752 0 0 1 0 72.5504z m-616.5248 108.8256h72.5248v72.5504h-72.5248v-72.5504z m145.0752 0h72.5248v72.5504H403.2v-72.5504z m145.0752 0h72.5248v72.5504h-72.5504v-72.5504z m145.0752 0h72.5248v72.5504h-72.5504v-72.5504z m-435.2 145.1008h72.5248v72.5504h-72.5504v-72.5504z m145.0752 0h72.5248v72.5504H403.2v-72.5504z m145.0752 0h72.4992v72.5504h-72.5504v-72.5504z m145.0752 0h72.5248v72.5504h-72.576v-72.5504z m0 0" p-id="5266"></path></svg>