<?xml version="1.0" standalone="no"?><!DOCTYPE svg PUBLIC "-//W3C//DTD SVG 1.1//EN" "http://www.w3.org/Graphics/SVG/1.1/DTD/svg11.dtd"><svg t="1577944069947" class="icon" viewBox="0 0 1408 1024" version="1.1" xmlns="http://www.w3.org/2000/svg" p-id="5037" xmlns:xlink="http://www.w3.org/1999/xlink" width="275" height="200"><defs><style type="text/css"></style></defs><path d="M1353.589231 611.031022h-152.346733a55.093786 55.093786 0 0 1-55.043457-55.026681V76.584389a55.110562 55.110562 0 0 1 55.043457-55.043457h152.346733a55.093786 55.093786 0 0 1 55.043456 55.043457v479.419952a55.07701 55.07701 0 0 1-55.043456 55.026681z m-136.375575-71.014616h120.404416V92.555547h-120.404416zM1177.554183 1023.999547h-141.156856a55.362209 55.362209 0 0 1-50.060858-32.177187l-25.634381-43.752921-390.001597 3.925684-25.567274 40.80027a54.707928 54.707928 0 0 1-49.624671 31.204154H240.808832a55.110562 55.110562 0 0 1-55.043457-55.043457V743.950652a55.362209 55.362209 0 0 1 54.103977-55.02668l231.514692-3.94246a54.959575 54.959575 0 0 1 32.982455 10.267173l15.954382 11.424747h476.450525l14.998126-12.884296a54.993127 54.993127 0 0 1 35.868001-13.303707h130.034085a55.093786 55.093786 0 0 1 55.043456 55.043457v233.427204a55.110562 55.110562 0 0 1-55.160891 55.043457z m-131.678175-71.014615h115.757346v-201.484888h-108.174401l-15.098785 12.901073a55.093786 55.093786 0 0 1-35.868 13.28693H515.120189a54.707928 54.707928 0 0 1-32.042976-10.28395l-15.836947-11.324088-210.460275 3.573379v193.331544h229.467967l25.516946-40.682835a54.775034 54.775034 0 0 1 49.054272-31.204155l408.740866-4.110224h0.536845a55.211221 55.211221 0 0 1 50.077635 32.177187z m-11.038889-232.269631zM1002.710261 637.05126H519.096202a55.093786 55.093786 0 0 1-55.043457-55.043457V55.043457A55.110562 55.110562 0 0 1 519.096202 0h483.614059a55.093786 55.093786 0 0 1 55.043457 55.043457v526.964346a55.093786 55.093786 0 0 1-55.043457 55.043457zM535.067361 566.036645h451.671742V71.014615H535.067361zM1002.710261 71.014615z" p-id="5038"></path><path d="M848.736215 445.615452H673.070248c-26.506755 0-47.259195-22.497189-47.259194-51.201655v-143.924966c0-28.234727 21.205404-51.184879 47.259194-51.184879h175.665967c26.506755 0 47.275971 22.480412 47.275971 51.184879v143.958519c0 28.670914-20.769217 51.168102-47.275971 51.168102z m-151.910546-71.014615h128.171902v-104.299046h-128.171902z m151.910546-104.299046zM320.983376 607.004679H55.093786A55.093786 55.093786 0 0 1 0.050329 551.961222V76.584389a55.110562 55.110562 0 0 1 55.043457-55.043457h265.88959a55.110562 55.110562 0 0 1 55.043457 55.043457v475.376833a55.093786 55.093786 0 0 1-55.043457 55.043457z m-249.968761-71.014615h234.047932V92.555547H71.014615z m249.968761-443.434517z" p-id="5039"></path></svg>