<?xml version="1.0" encoding="utf-8"?>
<!-- Generator: Adobe Illustrator 21.1.0, SVG Export Plug-In . SVG Version: 6.00 Build 0)  -->
<svg version="1.1" id="图层_1" xmlns="http://www.w3.org/2000/svg" xmlns:xlink="http://www.w3.org/1999/xlink" x="0px" y="0px"
	 viewBox="0 0 28 28" style="enable-background:new 0 0 28 28;" xml:space="preserve">
<style type="text/css">
	.st0{display:none;}
	.st1{display:inline;}
	.st2{fill:#606266;}
</style>
<g class="st0">
	<g class="st1">
		<path class="st2" d="M16,17.9h-4c-1.1,0-1.9-0.9-1.9-1.9v-4c0-1.1,0.9-1.9,1.9-1.9h4c1.1,0,1.9,0.9,1.9,1.9v4
			C17.9,17,17,17.9,16,17.9z"/>
	</g>
	<g class="st1">
		<path class="st2" d="M23.1,24.3c-0.2,0-0.5-0.1-0.7-0.3c-0.4-0.4-0.4-1,0-1.4c2.3-2.3,3.6-5.4,3.6-8.7c0-3.3-1.3-6.4-3.6-8.7
			c-0.4-0.4-0.4-1,0-1.4c0.4-0.4,1-0.4,1.4,0c2.7,2.7,4.2,6.2,4.2,10c0,3.8-1.5,7.4-4.2,10C23.6,24.2,23.4,24.3,23.1,24.3z
			 M4.9,24.3c-0.2,0-0.5-0.1-0.7-0.3C1.5,21.4,0,17.8,0,14c0-3.8,1.5-7.4,4.2-10c0.4-0.4,1-0.4,1.4,0c0.4,0.4,0.4,1,0,1.4
			C3.2,7.6,1.9,10.7,1.9,14c0,3.3,1.3,6.4,3.6,8.7c0.4,0.4,0.4,1,0,1.4C5.4,24.2,5.1,24.3,4.9,24.3z M20,20.3
			c-0.2,0-0.4-0.1-0.6-0.2c-0.4-0.3-0.5-0.9-0.2-1.3c1-1.3,1.6-3,1.6-4.8c0-1.7-0.6-3.4-1.6-4.8c-0.3-0.4-0.2-1,0.2-1.3
			c0.4-0.3,1-0.2,1.3,0.2c1.3,1.7,2,3.8,2,5.9c0,2.1-0.7,4.3-2,5.9C20.6,20.2,20.3,20.3,20,20.3z M7.6,20.3c-0.3,0-0.6-0.1-0.8-0.4
			c-1.3-1.7-2-3.8-2-5.9c0-2.1,0.7-4.3,2-5.9c0.3-0.4,0.9-0.5,1.3-0.2c0.4,0.3,0.5,0.9,0.2,1.3c-1,1.3-1.6,3-1.6,4.8
			c0,1.7,0.6,3.4,1.6,4.8c0.3,0.4,0.2,1-0.2,1.3C8,20.2,7.8,20.3,7.6,20.3z"/>
	</g>
</g>
<g>
	<path class="st2" d="M27,12.7c-0.1-0.5-0.6-0.9-1.1-0.9c-0.5,0.1-0.9,0.6-0.9,1.1c0.3,1.9,0,3.9-0.8,5.7c-1.2,2.7-3.3,4.8-6,5.9
		c-2.7,1.1-5.7,1.1-8.5-0.1C4.1,22.2,1.4,15.7,3.8,10c1.2-2.7,3.3-4.8,6-5.9c2.7-1.1,5.7-1.1,8.4,0.1L16.6,5l7.2,2.4l-3.3-6.8
		l-0.7,2.1c-0.2-0.1-0.4-0.2-0.7-0.3C15.9,1,12.4,1,9.1,2.3C5.9,3.6,3.4,6.1,2,9.3c-2.8,6.6,0.3,14.3,6.9,17.1
		c1.6,0.7,3.4,1.1,5.1,1.1c1.6,0,3.3-0.3,4.9-1c3.2-1.3,5.8-3.8,7.1-7C26.9,17.4,27.3,15,27,12.7z"/>
	<path class="st2" d="M13.7,7.4c-0.6,0-1,0.4-1,1v7.2c0,0.4,0.2,0.7,0.6,0.9l6.4,3c0.1,0.1,0.3,0.1,0.4,0.1c0.4,0,0.7-0.2,0.9-0.6
		c0.2-0.5,0-1.1-0.5-1.3l-5.8-2.7V8.4C14.7,7.9,14.3,7.4,13.7,7.4z"/>
</g>
</svg>
