<?xml version="1.0" standalone="no"?><!DOCTYPE svg PUBLIC "-//W3C//DTD SVG 1.1//EN" "http://www.w3.org/Graphics/SVG/1.1/DTD/svg11.dtd"><svg t="1609222456984" class="icon" viewBox="0 0 1249 1024" version="1.1" xmlns="http://www.w3.org/2000/svg" p-id="6530" xmlns:xlink="http://www.w3.org/1999/xlink" width="243.9453125" height="200"><defs><style type="text/css"></style></defs><path d="M690.683303 121.752661m-72.901285 0a72.901284 72.901284 0 1 0 145.802569 0 72.901284 72.901284 0 1 0-145.802569 0Z" fill="#606266" p-id="6531"></path><path d="M859.40844 387.053211h-91.314495a34.571743 34.571743 0 0 1-30.062385-17.661651l-57.494312-102.21211a79.665321 79.665321 0 0 0-84.926239-57.870092h-6.012477l-193.150826 70.646605a34.195963 34.195963 0 0 0-22.922568 32.317065v150.311926a34.195963 34.195963 0 0 0 34.195963 34.195963 34.571743 34.571743 0 0 0 34.571743-34.195963V371.646239A33.820183 33.820183 0 0 1 465.966972 338.201835a34.195963 34.195963 0 0 1 45.469358 39.83266l-125.510458 541.498716a34.571743 34.571743 0 0 0 33.444403 42.087339A33.820183 33.820183 0 0 0 450.93578 939.449541l89.059816-251.020917a34.195963 34.195963 0 0 1 61.25211-8.642936l44.342019 65.009908a37.577982 37.577982 0 0 1 5.636697 19.540551v168.349358a34.571743 34.571743 0 0 0 34.571743 34.195963h4.133578a34.195963 34.195963 0 0 0 34.195963-34.195963v-232.983487a32.692844 32.692844 0 0 0-3.757798-15.782752l-89.059816-174.361835a33.444404 33.444404 0 0 1-3.006239-22.546789l18.413211-87.180917c0-15.406972 10.146055-10.146055 10.146055-10.146055l27.056147 51.481835a33.820183 33.820183 0 0 0 30.438165 18.78899h145.051009a34.571743 34.571743 0 0 0 34.195964-34.571743v-4.133578a34.195963 34.195963 0 0 0-34.195964-34.195963zM217.952294 0H43.966239A43.966239 43.966239 0 0 0 0 43.966239v167.222018a43.966239 43.966239 0 0 0 87.932477 0V87.932477H217.952294A43.966239 43.966239 0 0 0 217.952294 0zM1205.125872 0h-167.222019a43.966239 43.966239 0 0 0 0 87.932477h123.25578V217.952294a43.966239 43.966239 0 0 0 87.932477 0V43.966239A43.966239 43.966239 0 0 0 1205.125872 0zM1205.125872 768.469725a43.966239 43.966239 0 0 0-43.966239 43.966238v123.25578h-130.019816a44.342018 44.342018 0 0 0 0 88.308257h173.986055a43.966239 43.966239 0 0 0 43.966238-43.966239v-167.597798a43.966239 43.966239 0 0 0-43.966238-43.966238zM211.188257 935.691743H87.932477v-129.644037a43.966239 43.966239 0 0 0-87.932477 0v173.986055a43.966239 43.966239 0 0 0 43.966239 43.966239h167.222018a44.342018 44.342018 0 0 0 0-88.308257z" fill="#606266" p-id="6532"></path></svg>