<?xml version="1.0" standalone="no"?><!DOCTYPE svg PUBLIC "-//W3C//DTD SVG 1.1//EN" "http://www.w3.org/Graphics/SVG/1.1/DTD/svg11.dtd"><svg t="1578280757539" class="icon" viewBox="0 0 1024 1024" version="1.1" xmlns="http://www.w3.org/2000/svg" p-id="2124" xmlns:xlink="http://www.w3.org/1999/xlink" width="200" height="200"><defs><style type="text/css"></style></defs><path d="M798.75584 912.50176c-120.4736 0-218.48576-98.01216-218.48576-218.48576s98.01216-218.49088 218.48576-218.49088c120.46848 0 218.48064 98.01728 218.48064 218.49088s-98.01216 218.48576-218.48064 218.48576z m0-375.53664c-86.59456 0-157.04576 70.4512-157.04576 157.05088 0 86.59456 70.4512 157.04576 157.04576 157.04576 86.58944 0 157.04064-70.4512 157.04064-157.04576 0-86.59968-70.4512-157.05088-157.04064-157.05088z" fill="" p-id="2125"></path><path d="M911.86176 724.28544h-137.26208v-137.25184h39.21408v98.04288h98.048z" fill="" p-id="2126"></path><path d="M919.54176 731.96544h-152.62208v-152.61184h54.57408v98.03776h98.04288v54.57408z m-137.26208-15.36h121.90208v-23.84896h-98.04288v-98.03776h-23.85408v121.88672z" fill="#060001" p-id="2127"></path><path d="M493.38368 749.3632m-40.8064 0a40.8064 40.8064 0 1 0 81.6128 0 40.8064 40.8064 0 1 0-81.6128 0Z" fill="#1E2525" p-id="2128"></path><path d="M547.06688 621.27104c0 29.65504-24.02304 53.69344-53.68832 53.69344-29.65504 0-53.68832-24.0384-53.68832-53.69344v-256.4096c0-29.65504 24.03328-53.69856 53.68832-53.69856 29.66016 0 53.68832 24.04352 53.68832 53.69856v256.4096z" fill="#1E2525" p-id="2129"></path><path d="M592.49152 854.99392l-519.02464 0.46592L492.70784 127.81056l192 331.8784a284.0064 284.0064 0 0 1 54.7072-26.02496l-195.42528-337.80224c-12.14464-20.98688-30.84288-33.024-51.29728-33.024-20.49024 0-39.19872 12.06784-51.32288 33.12128L20.16256 827.01824c-12.11392 21.0176-13.18912 43.23328-2.94912 60.94848 10.24 17.72032 30.00832 27.87328 54.25664 27.87328h0.0768l571.8272-0.512a286.63808 286.63808 0 0 1-50.88256-60.33408z m-521.02144 30.65856v-26.54208l0.02048-0.0512-0.02048 26.59328z" fill="" p-id="2130"></path></svg>