<?xml version="1.0" standalone="no"?><!DOCTYPE svg PUBLIC "-//W3C//DTD SVG 1.1//EN" "http://www.w3.org/Graphics/SVG/1.1/DTD/svg11.dtd"><svg t="1577943761165" class="icon" viewBox="0 0 1024 1024" version="1.1" xmlns="http://www.w3.org/2000/svg" p-id="2882" xmlns:xlink="http://www.w3.org/1999/xlink" width="200" height="200"><defs><style type="text/css"></style></defs><path d="M663.857292 663.526559c-50.786584 50.824745-101.738534 95.047553-151.316671 132.814708-51.696099-39.395379-102.539925-83.95528-151.361192-132.814708-49.336447-49.387329-94.017193-100.536447-132.827429-151.424795 38.962882-51.174559 83.624547-102.272795 132.827429-151.526559 49.13928-49.177441 100.123031-93.826385 151.189465-132.782907 51.072795 38.880199 102.342758 83.599106 151.488398 132.782907 50.818385 50.869267 95.022112 101.89754 132.770186 151.54564-38.975602 51.219081-83.592745 102.171031-132.770186 151.405714m-572.575006 270.145193c-36.011727-36.043528-31.012571-115.45759 13.712695-217.857591 21.077863-48.287006 49.781665-98.933665 84.680348-150.127304 37.748075 48.312447 80.228174 96.434087 126.568944 142.819379 46.041839 46.08 93.877267 88.502857 142.59041 126.664348-170.282932 116.042733-315.970783 150.133665-367.552397 98.501168m887.000248-243.336746c-25.059379-57.382161-60.034385-117.664596-102.819776-178.214161 28.296745-40.050484 53.216199-80.12641 74.268621-119.604472a31.826683 31.826683 0 0 0-13.070311-43.039802 31.763081 31.763081 0 0 0-43.001639 13.083031c-16.841938 31.578634-36.35518 63.615205-58.221715 95.73446-37.856199-48.356969-80.368099-96.376845-126.645267-142.692174-46.474335-46.518857-94.513292-89.024398-142.641292-126.708869 51.136398-34.917764 101.725814-63.640646 149.949218-84.73759 102.323677-44.769789 181.655056-49.762584 217.660422-13.712696 14.520447 14.526807 22.432596 36.253416 23.520199 64.562882 0.667826 17.554286 15.449043 31.279702 32.965167 30.560994a31.782161 31.782161 0 0 0 30.535553-32.996969c-1.710907-44.852472-15.87518-80.88328-42.092124-107.106584-56.31364-56.377242-158.618236-56.224596-288.042932 0.407056-57.375801 25.09754-117.664596 60.142509-178.201441 103.016944C384.629665 58.450683 260.013317 4.553938 166.295056 3.186484h-0.477019a31.788522 31.788522 0 0 0-31.76308 31.336945 31.794882 31.794882 0 0 0 31.305142 32.26554c76.844522 1.119404 182.653615 46.626981 293.258336 122.212174-48.248845 37.843478-96.166957 80.349019-142.374162 126.600745-46.308969 46.34713-88.846311 94.398807-126.71523 142.793938C124.037565 362.597764 81.379379 270.336 70.299826 195.564919a31.820323 31.820323 0 0 0-36.10077-26.802087 31.801242 31.801242 0 0 0-26.776646 36.132572C20.49272 293.016646 71.68 401.509764 149.688447 511.968199 106.845814 572.549565 71.832646 632.908323 46.760547 690.328646c-56.58077 129.558261-56.720696 231.958261-0.413417 288.310062 28.080497 28.118658 67.603081 42.168447 116.233541 42.168447 48.865789 0 106.934857-14.202435 171.809391-42.588223 120.183255-52.567453 253.144248-148.365516 374.402385-269.725416 46.308969-46.353491 88.763627-94.271602 126.613466-142.641292 115.902807 170.403776 149.930137 316.180671 98.354882 367.813167-36.227975 36.234335-116.068174 31.018932-219.123279-14.367801a31.782161 31.782161 0 0 0-41.888597 16.301317 31.833043 31.833043 0 0 0 16.294957 41.926758c65.54872 28.856447 124.15205 43.294211 173.424894 43.287851 48.605019 0 88.133963-14.056149 116.22082-42.168448 56.31364-56.364522 56.167354-158.751801-0.407056-288.310062M514.792149 384.356174c70.102658 0 127.115925 57.07687 127.115926 127.23041 0 70.15354-57.019627 127.217689-127.115926 127.217689-70.089938 0-127.096845-57.064149-127.096845-127.217689s57.006907-127.23041 127.096845-127.23041z m0 190.832894c35.044969 0 63.564323-28.532075 63.564323-63.602484 0-35.08313-28.519354-63.621565-63.564323-63.621565s-63.545242 28.538435-63.545242 63.615205c0 35.08313 28.506634 63.608845 63.551602 63.608844zM44.489938 120.374062a41.328894 41.328894 0 0 1-41.309814-41.341615 41.328894 41.328894 0 0 1 41.309814-41.347975 41.328894 41.328894 0 0 1 41.309814 41.341615 41.328894 41.328894 0 0 1-41.309814 41.354335zM924.729242 276.22559a41.328894 41.328894 0 0 1 41.309814-41.347975 41.328894 41.328894 0 0 1 41.309814 41.341615 41.328894 41.328894 0 0 1-41.309814 41.354335 41.322534 41.322534 0 0 1-41.309814-41.347975z m-320.957217 582.045416a41.328894 41.328894 0 0 1 41.309814 41.347975 41.322534 41.322534 0 0 1-41.309814 41.347976 41.328894 41.328894 0 0 1-41.309814-41.341615 41.328894 41.328894 0 0 1 41.309814-41.354336z" fill="" p-id="2883"></path></svg>