<?xml version="1.0" standalone="no"?><!DOCTYPE svg PUBLIC "-//W3C//DTD SVG 1.1//EN" "http://www.w3.org/Graphics/SVG/1.1/DTD/svg11.dtd"><svg t="1578365691434" class="icon" viewBox="0 0 1024 1024" version="1.1" xmlns="http://www.w3.org/2000/svg" p-id="4907" xmlns:xlink="http://www.w3.org/1999/xlink" width="200" height="200"><defs><style type="text/css"></style></defs><path d="M475.428571 475.428571 0 475.428571 0 0l475.428571 0L475.428571 475.428571zM394.971429 80.457143 80.457143 80.457143l0 314.514286 314.514286 0L394.971429 80.457143z" p-id="4908"></path><path d="M1024 475.428571 548.571429 475.428571 548.571429 0 1024 0 1024 475.428571zM943.542857 80.457143 629.028571 80.457143l0 314.514286 314.514286 0L943.542857 80.457143z" p-id="4909"></path><path d="M475.428571 1024 0 1024 0 548.571429l475.428571 0L475.428571 1024zM394.971429 629.028571 80.457143 629.028571l0 314.514286 314.514286 0L394.971429 629.028571z" p-id="4910"></path><path d="M1024 1024 548.571429 1024 548.571429 548.571429 1024 548.571429 1024 1024zM943.542857 629.028571 629.028571 629.028571l0 314.514286 314.514286 0L943.542857 629.028571z" p-id="4911"></path></svg>