<?xml version="1.0" standalone="no"?><!DOCTYPE svg PUBLIC "-//W3C//DTD SVG 1.1//EN" "http://www.w3.org/Graphics/SVG/1.1/DTD/svg11.dtd"><svg t="1577241136470" class="icon" viewBox="0 0 1024 1024" version="1.1" xmlns="http://www.w3.org/2000/svg" p-id="1551" xmlns:xlink="http://www.w3.org/1999/xlink" width="200" height="200"><defs><style type="text/css"></style></defs><path d="M452.87 830.1a27.14 27.14 0 0 1-5.19-0.5 354.05 354.05 0 1 1 319.23-98 27 27 0 1 1-38.32-38 299.84 299.84 0 1 0-270.59 83 27 27 0 0 1-5.13 53.5z" p-id="1552"></path><path d="M246.29 496.8H130.08a27 27 0 0 1 0-54h116.21a27 27 0 1 1 0 54zM901.34 496.8H785.13a27 27 0 0 1 0-54h116.21a27 27 0 0 1 0 54zM515.71 227.38a27 27 0 0 1-27-27V84.16a27 27 0 1 1 54 0v116.22a27 27 0 0 1-27 27zM558.69 461.71A107.61 107.61 0 1 1 666.3 354.1a107.73 107.73 0 0 1-107.61 107.61z m0-161.22a53.61 53.61 0 1 0 53.61 53.61 53.67 53.67 0 0 0-53.61-53.61zM338.92 916.9c-44.94 0-77.88-24.9-79.5-26.15a27 27 0 0 1-6.08-36.23l32.23-49a27 27 0 1 1 45.11 29.67L315.05 859c10.61 3.43 24 5.55 38.32 2.33 27.15-6.14 51.77-29.79 73.15-70.29a27 27 0 0 1 47.76 25.21C445 871.72 408 904.68 364.34 914.17a118.84 118.84 0 0 1-25.42 2.73zM659.49 660.56a27 27 0 0 1-9-1.52l-35.63-12.52a27 27 0 0 1 17.91-50.95l30.86 10.85c8.62-0.63 15-3.28 18.89-7.89a25.35 25.35 0 0 0 5.35-12.47c-11.79-7.92-38.52-22.88-61-34.5a27 27 0 1 1 24.78-48c0.73 0.38 18.17 9.4 36.44 19.68 37.35 21 45.58 28.74 49.91 38 5 10.7 4.4 23.6 3.61 30.33a80.67 80.67 0 0 1-11.89 33.7c-14.45 22.78-39.41 35.29-70.23 35.29zM693 589.83z m-4.89-8.56z" p-id="1553"></path><path d="M641.87 957a85 85 0 0 1-25.63-4.15c-19.94-6.3-46.46-23.6-59.59-70.2a192.25 192.25 0 0 1-7-47.78c0-0.52 0-1 0.05-1.58 0.16-5.13-6.86-22.92-22.43-44.84-10.71-12.86-23-27.37-30-35.47-24.88-3.33-45.35-11.27-61-23.64-16.61-13.15-27.48-30.82-32.3-52.52q-1-4.44-1.62-9.07c-13.21 4.46-27.88 6.17-43.64 5-19.48-1.49-40.28-7.21-61.82-17a27 27 0 0 1-12.74-37.09C352 489.07 352 489.07 352.44 488.29c36.72-62.54 81.35-81.06 112.31-85.57a133.31 133.31 0 0 1 71 9.4c40.32 17.45 64 52.26 66.65 98a176.43 176.43 0 0 1-8.52 63.49l-10.08 67.74 104 118.08q0.64 0.74 1.23 1.5c4.46 5.86 5.06 10.63 6 17.84 0.38 3.08 0.92 7.46 1.55 12.69 1.25 10.37 2.88 24.15 4.51 37.92 3.24 27.51 6.44 55 6.44 55a25.87 25.87 0 0 1 0.18 3c0.07 23.26-10.23 44.75-27.54 57.48a63.84 63.84 0 0 1-38.3 12.14z m-38.18-121.6c0.2 12.81 5.48 58.62 28.83 66 4.09 1.3 11.57 3 15.72 0 3-2.23 5.21-7.28 5.49-12.58-3.81-32.7-9.52-81.28-11.8-99.8l-106-120.3c-0.42-0.48-0.82-1-1.21-1.47a30.58 30.58 0 0 1-5.9-23l12-81a30.28 30.28 0 0 1 1.91-7c0.48-1.39 7.36-21.78 5.64-44.61-1.87-24.86-12.7-40.75-34.08-50a79.58 79.58 0 0 0-41.81-5.52c-27.87 4.06-52.51 23.91-73.25 59-3.09 5.89-30.73 58.73-52.86 101.05a102.5 102.5 0 0 0 16.45 2.69c26.29 2 37-9.77 42.79-18.8 1.51-2.35 3.72-7.69 6.29-13.87 2.69-6.5 6.16-14.85 11-25.06 4.75-10.65 7.7-16.68 15.56-21.13a27 27 0 0 1 37.42 35.62 428.07 428.07 0 0 0-3.74 7.69 218.74 218.74 0 0 0-12.24 34.36c-4.59 17.63-8.14 42.13 1 58.76 7.52 13.75 24.81 21.77 51.39 23.84 11.44 0.89 17.05 7.3 24.82 16.18 3.35 3.83 7.89 9.12 13.48 15.72 9.43 11.14 18.81 22.41 18.9 22.52 0.49 0.6 1 1.21 1.4 1.84v0.06c12.76 17.89 33.78 51.63 32.8 78.81z m-30.55-74.89z m-2.14-3.79a26.39 26.39 0 0 1 2.18 3.79 26.53 26.53 0 0 0-2.18-3.79z m21.82-180c0 0.09-0.08 0.17-0.11 0.26 0-0.13 0.03-0.22 0.07-0.3z m-49.84-20.8c0 0.09-0.07 0.17-0.1 0.26-0.01-0.13 0.03-0.18 0.06-0.3z" p-id="1554"></path></svg>