<?xml version="1.0" standalone="no"?><!DOCTYPE svg PUBLIC "-//W3C//DTD SVG 1.1//EN" "http://www.w3.org/Graphics/SVG/1.1/DTD/svg11.dtd"><svg t="1540200090044" class="icon" style="" viewBox="0 0 1024 1024" version="1.1" xmlns="http://www.w3.org/2000/svg" p-id="4552" xmlns:xlink="http://www.w3.org/1999/xlink" width="200" height="200"><defs><style type="text/css"></style></defs><path d="M573.44 1024H363.52C163.84 1024 0 885.76 0 716.8V0h501.76c199.68 0 363.52 138.24 363.52 307.2v291.84c0 15.36-15.36 30.72-30.72 30.72s-30.72-10.24-30.72-30.72V307.2c0-138.24-133.12-245.76-302.08-245.76H61.44V716.8c0 138.24 133.12 245.76 302.08 245.76h209.92c15.36 0 30.72 10.24 30.72 30.72s-15.36 30.72-30.72 30.72z" fill="" p-id="4553"></path><path d="M655.36 312.32H209.92c-15.36 0-30.72-15.36-30.72-30.72s15.36-30.72 30.72-30.72h445.44c15.36 0 30.72 15.36 30.72 30.72s-15.36 30.72-30.72 30.72zM588.8 501.76H204.8c-15.36 0-25.6-15.36-25.6-30.72s10.24-30.72 25.6-30.72h384c15.36 0 25.6 15.36 25.6 30.72s-10.24 30.72-25.6 30.72zM517.12 691.2H199.68c-10.24 0-20.48-15.36-20.48-30.72s10.24-30.72 20.48-30.72h317.44c10.24 0 20.48 15.36 20.48 30.72s-5.12 30.72-20.48 30.72zM844.8 1024c-102.4 0-179.2-81.92-179.2-179.2 0-102.4 81.92-179.2 179.2-179.2 102.4 0 179.2 81.92 179.2 179.2S942.08 1024 844.8 1024z m0-302.08c-66.56 0-117.76 51.2-117.76 117.76s51.2 117.76 117.76 117.76 117.76-51.2 117.76-117.76-51.2-117.76-117.76-117.76z" fill="" p-id="4554"></path><path d="M819.2 870.4v-179.2h51.2V819.2h92.16v51.2z" fill="" p-id="4555"></path></svg>