<svg xmlns="http://www.w3.org/2000/svg" width="11.03" height="8" viewBox="0 0 11.03 8">
  <defs>
    <style>
      .cls-1 {
        fill: #1890ff;
        fill-rule: evenodd;
      }
    </style>
  </defs>
  <path id="上合" class="cls-1" d="M4066.5,3750.04a0.318,0.318,0,0,1,.2.08l5.16,4.18a0.41,0.41,0,0,1,.07.53,0.318,0.318,0,0,1-.48.08l-4.95-4.01-4.96,4.01a0.318,0.318,0,0,1-.48-0.08,0.4,0.4,0,0,1,.08-0.53l5.15-4.18A0.344,0.344,0,0,1,4066.5,3750.04Zm0-3.04a0.306,0.306,0,0,1,.2.07l5.16,4.18a0.41,0.41,0,0,1,.07.53,0.318,0.318,0,0,1-.48.08l-4.95-4.01-4.96,4.01a0.318,0.318,0,0,1-.48-0.08,0.4,0.4,0,0,1,.08-0.53l5.15-4.18A0.332,0.332,0,0,1,4066.5,3747Z" transform="translate(-4060.97 -3747)"/>
</svg>
