<?xml version="1.0" encoding="utf-8"?>
<!-- Generator: Adobe Illustrator 21.1.0, SVG Export Plug-In . SVG Version: 6.00 Build 0)  -->
<svg version="1.1" id="图层_1" xmlns="http://www.w3.org/2000/svg" xmlns:xlink="http://www.w3.org/1999/xlink" x="0px" y="0px"
	 viewBox="0 0 28 28" style="enable-background:new 0 0 28 28;" xml:space="preserve">
<style type="text/css">
	.st0{display:none;}
	.st1{display:inline;fill:#606266;}
	.st2{display:inline;}
	.st3{fill:#515151;}
	.st4{fill:#FF3C3C;}
	.st5{fill:#A8A8A8;}
	.st6{fill:#F7B500;}
	.st7{fill:#606266;}
</style>
<g class="st0">
	<path class="st1" d="M16,10.1h-4c-1.1,0-1.9,0.9-1.9,1.9v4c0,1.1,0.9,1.9,1.9,1.9h4c1.1,0,1.9-0.9,1.9-1.9v-4
		C17.9,11,17,10.1,16,10.1z"/>
	<path class="st1" d="M1.9,14c0-3.3,1.3-6.4,3.6-8.7c0.4-0.4,0.4-1,0-1.4c-0.4-0.4-1-0.4-1.4,0C1.5,6.6,0,10.2,0,14
		c0,3.8,1.5,7.4,4.2,10c0.2,0.2,0.4,0.3,0.7,0.3c0.2,0,0.5-0.1,0.7-0.3c0.4-0.4,0.4-1,0-1.4C3.2,20.4,1.9,17.3,1.9,14z"/>
	<path class="st1" d="M20.8,8.1c-0.3-0.4-0.9-0.5-1.3-0.2c-0.4,0.3-0.5,0.9-0.2,1.3c1,1.3,1.6,3,1.6,4.8c0,1.7-0.6,3.4-1.6,4.8
		c-0.3,0.4-0.2,1,0.2,1.3c0.2,0.1,0.4,0.2,0.6,0.2c0.3,0,0.6-0.1,0.8-0.4c1.3-1.7,2-3.8,2-5.9C22.7,11.9,22,9.7,20.8,8.1z"/>
	<path class="st1" d="M8.2,7.9c-0.4-0.3-1-0.2-1.3,0.2c-1.3,1.7-2,3.8-2,5.9c0,2.1,0.7,4.3,2,5.9c0.2,0.2,0.5,0.4,0.8,0.4
		c0.2,0,0.4-0.1,0.6-0.2c0.4-0.3,0.5-0.9,0.2-1.3c-1-1.3-1.6-3-1.6-4.8c0-1.7,0.6-3.4,1.6-4.8C8.7,8.8,8.6,8.2,8.2,7.9z"/>
	<path class="st1" d="M23.8,4c-0.4-0.4-1-0.4-1.4,0c-0.4,0.4-0.4,1,0,1.4c2.3,2.3,3.6,5.4,3.6,8.7c0,3.3-1.3,6.4-3.6,8.7
		c-0.4,0.4-0.4,1,0,1.4c0.2,0.2,0.4,0.3,0.7,0.3c0.2,0,0.5-0.1,0.7-0.3c2.7-2.7,4.2-6.2,4.2-10C28,10.2,26.5,6.6,23.8,4z"/>
</g>
<g class="st0">
	<path class="st1" d="M27,12.7c-0.1-0.5-0.6-0.9-1.1-0.9c-0.5,0.1-0.9,0.6-0.9,1.1c0.3,1.9,0,3.9-0.8,5.7c-1.2,2.7-3.3,4.8-6,5.9
		c-2.7,1.1-5.7,1.1-8.5-0.1C4.1,22.2,1.4,15.7,3.8,10c1.2-2.7,3.3-4.8,6-5.9c2.7-1.1,5.7-1.1,8.4,0.1L16.6,5l7.2,2.4l-3.3-6.8
		l-0.7,2.1c-0.2-0.1-0.4-0.2-0.7-0.3C15.9,1,12.4,1,9.1,2.3C5.9,3.6,3.4,6.1,2,9.3c-2.8,6.6,0.3,14.3,6.9,17.1
		c1.6,0.7,3.4,1.1,5.1,1.1c1.6,0,3.3-0.3,4.9-1c3.2-1.3,5.8-3.8,7.1-7C26.9,17.4,27.3,15,27,12.7z"/>
	<path class="st1" d="M13.7,7.4c-0.6,0-1,0.4-1,1v7.2c0,0.4,0.2,0.7,0.6,0.9l6.4,3c0.1,0.1,0.3,0.1,0.4,0.1c0.4,0,0.7-0.2,0.9-0.6
		c0.2-0.5,0-1.1-0.5-1.3l-5.8-2.7V8.4C14.7,7.9,14.3,7.4,13.7,7.4z"/>
</g>
<g class="st0">
	<path class="st1" d="M14,0.9C6.8,0.9,0.9,6.8,0.9,14S6.8,27.1,14,27.1c7.2,0,13.1-5.9,13.1-13.1S21.2,0.9,14,0.9z M14,25.1
		c-6.1,0-11.1-5-11.1-11.1S7.9,2.9,14,2.9c6.1,0,11.1,5,11.1,11.1S20.1,25.1,14,25.1z"/>
	<path class="st1" d="M19.6,13.1l-6.2-4.2c-1.1-0.8-2.7,0-2.7,1.4v8.5c0,1.4,1.5,2.2,2.7,1.4l6.2-4.2C20.6,15.2,20.6,13.7,19.6,13.1
		z"/>
</g>
<g class="st0">
	<g class="st2">
		<path class="st3" d="M14,27.6c-4.5,0-8.1-3.6-8.1-8.1v-11C5.9,4,9.5,0.4,14,0.4c4.5,0,8.1,3.6,8.1,8.1v11
			C22.1,24,18.5,27.6,14,27.6z M14,2.4c-3.4,0-6.1,2.7-6.1,6.1v11c0,3.4,2.7,6.1,6.1,6.1s6.1-2.7,6.1-6.1v-11
			C20.1,5.1,17.4,2.4,14,2.4z"/>
	</g>
	<g class="st2">
		<circle class="st4" cx="14" cy="7" r="3"/>
	</g>
	<g class="st2">
		<circle class="st5" cx="14" cy="14" r="3"/>
	</g>
	<g class="st2">
		<circle class="st5" cx="14" cy="21" r="3"/>
	</g>
</g>
<g class="st0">
	<g class="st2">
		<path class="st3" d="M14,27.6c-4.5,0-8.1-3.6-8.1-8.1v-11C5.9,4,9.5,0.4,14,0.4s8.1,3.6,8.1,8.1v11C22.1,24,18.5,27.6,14,27.6z
			 M14,2.4c-3.4,0-6.1,2.7-6.1,6.1v11c0,3.4,2.7,6.1,6.1,6.1s6.1-2.7,6.1-6.1v-11C20.1,5.1,17.4,2.4,14,2.4z"/>
	</g>
	<g class="st2">
		<circle class="st5" cx="14" cy="7" r="3"/>
	</g>
	<g class="st2">
		<circle class="st6" cx="14" cy="14" r="3"/>
	</g>
	<g class="st2">
		<circle class="st5" cx="14" cy="21" r="3"/>
	</g>
</g>
<g class="st0">
	<path class="st1" d="M23.6,9.9h-0.1c0.5-0.6,0.8-1.3,0.8-2.1c0-0.8-0.3-1.5-0.9-2.1l-1.5-1.5c-1.1-1.1-3.1-1.1-4.2,0l-0.1,0.1
		c0-1.6-1.3-2.9-2.9-2.9h-2.1c-1.6,0-2.9,1.3-2.9,2.9v0.1c-1.1-1.1-3-1.1-4.1,0L4.3,5.9c-1.1,1.1-1.1,3,0,4.2l0.1,0.1
		c-1.6,0-2.9,1.3-2.9,2.9v2.1c0,1.6,1.3,2.9,2.9,2.9h0.1c-1.1,1.2-1.1,3,0,4.1l1.5,1.5c1.1,1.1,3,1.1,4.2,0l0.1-0.1
		c0,1.6,1.3,2.9,2.9,2.9h2.1c1.6,0,2.9-1.3,2.9-2.9v-0.1c1.1,1.1,3,1.1,4.1,0l1.5-1.5c0.6-0.6,0.9-1.3,0.9-2.1
		c0-0.8-0.3-1.5-0.9-2.1l-0.1-0.1c1.6,0,2.9-1.3,2.9-2.9v-2.1C26.6,11.2,25.3,9.9,23.6,9.9z M24.6,14.9c0,0.5-0.4,0.9-0.9,0.9h-2
		l-0.2,0.7c-0.1,0.2-0.2,0.5-0.3,0.7l-0.3,0.6l1.5,1.5c0.2,0.2,0.3,0.4,0.3,0.7c0,0.3-0.1,0.5-0.3,0.7l-1.5,1.5
		c-0.4,0.4-1,0.4-1.3,0l-1.4-1.4L17.5,21c-0.2,0.1-0.5,0.2-0.7,0.3l-0.6,0.2v2.1c0,0.5-0.4,0.9-0.9,0.9h-2.1c-0.5,0-0.9-0.4-0.9-0.9
		v-2l-0.7-0.2c-0.2-0.1-0.5-0.2-0.7-0.3l-0.6-0.3l-1.5,1.5c-0.4,0.4-1,0.4-1.3,0l-1.5-1.5c-0.4-0.4-0.4-1,0-1.3l1.4-1.4L7,17.5
		c-0.1-0.2-0.2-0.5-0.3-0.7l-0.2-0.6H4.4c-0.5,0-0.9-0.4-0.9-0.9v-2.1c0-0.5,0.4-0.9,0.9-0.9h2l0.2-0.7c0.1-0.2,0.2-0.5,0.3-0.7
		l0.3-0.6L5.7,8.7c-0.4-0.4-0.4-1,0-1.3l1.5-1.5c0.4-0.4,1-0.4,1.3,0l1.4,1.4L10.5,7c0.2-0.1,0.5-0.2,0.7-0.3l0.6-0.2V4.4
		c0-0.5,0.4-0.9,0.9-0.9h2.1c0.5,0,0.9,0.4,0.9,0.9v2l0.7,0.2c0.2,0.1,0.5,0.2,0.7,0.3l0.6,0.3l1.5-1.5c0.4-0.4,1-0.4,1.3,0l1.5,1.5
		c0.2,0.2,0.3,0.4,0.3,0.7c0,0.3-0.1,0.5-0.3,0.7l-1.4,1.4l0.3,0.6c0.1,0.2,0.2,0.5,0.3,0.7l0.2,0.6h2.1c0.5,0,0.9,0.4,0.9,0.9V14.9
		z"/>
	<path class="st1" d="M14,8.3c-3.1,0-5.7,2.5-5.7,5.7s2.5,5.7,5.7,5.7s5.7-2.5,5.7-5.7S17.1,8.3,14,8.3z M14,17.7
		c-2,0-3.7-1.6-3.7-3.7s1.6-3.7,3.7-3.7s3.7,1.6,3.7,3.7S16,17.7,14,17.7z"/>
</g>
<g>
	<path class="st7" d="M23.6,10.7c-0.5,0-1.1,0.1-1.5,0.4c-0.5-0.9-1.5-1.5-2.7-1.5c-0.5,0-0.9,0.1-1.3,0.2C17.6,8.7,16.4,8,15.2,8
		c-0.4,0-0.8,0.1-1.1,0.2V6.6c0-1.6-1.4-2.9-3.1-2.9C9.2,3.7,7.9,5,7.9,6.6v8.5L6.5,14c-1.2-1-3.2-1-4.3,0.1
		c-0.6,0.6-0.9,1.3-0.9,2.1c0,0.8,0.4,1.5,1,2.1l5.8,4.9c0.5,0.7,3.2,4,9.2,4c0.4,0,0.8,0,1.2,0c7.8-0.5,8.2-5.6,8.2-5.8
		c0,0,0,0,0-0.1v-7.6C26.7,12,25.3,10.7,23.6,10.7z M24.7,21.2c0,0.3-0.6,3.6-6.3,4c-6.2,0.4-8.6-3-8.6-3.2
		c-0.1-0.1-0.1-0.2-0.2-0.2l-5.9-5c-0.2-0.2-0.3-0.4-0.3-0.6c0-0.2,0.1-0.4,0.3-0.6c0.2-0.2,0.5-0.3,0.8-0.3c0.3,0,0.6,0.1,0.8,0.3
		l3,2.5c0.3,0.3,0.7,0.3,1.1,0.1c0.4-0.2,0.6-0.5,0.6-0.9V6.6c0-0.5,0.5-0.9,1.1-0.9c0.6,0,1.1,0.4,1.1,0.9v4.3v4.7c0,0.6,0.4,1,1,1
		s1-0.4,1-1v-4.7c0-0.5,0.5-0.9,1.1-0.9c0.6,0,1.1,0.4,1.1,0.9l0,0.1c0,0,0,0.1,0,0.1l0,4.6v1c0,0.6,0.4,1,1,1s1-0.4,1-1v-4.6l0,0
		c0-0.4,0.9-0.5,1.1-0.5c0.6,0,1.1,0.4,1.1,0.9l0,1.1c0,0,0,0,0,0l0,3c0,0.6,0.4,1,1,1c0,0,0,0,0,0c0.6,0,1-0.4,1-1l0-3.1
		c0-0.5,0.5-0.9,1.1-0.9c0.6,0,1.1,0.4,1.1,0.9V21.2z"/>
	<path class="st7" d="M6.1,8.5c0.2,0.1,0.4,0.2,0.6,0.2c0.3,0,0.6-0.1,0.8-0.4c0.3-0.4,0.3-1.1-0.2-1.4C6.9,6.6,6.5,6.1,6.5,5.4
		c0-1.2,1.9-2.6,4.7-2.6s4.7,1.4,4.7,2.6c0,0.2,0,0.4-0.1,0.5c-0.2,0.5,0,1.1,0.5,1.3c0.5,0.2,1.1,0,1.3-0.5
		c0.2-0.4,0.3-0.9,0.3-1.3c0-2.6-2.9-4.6-6.7-4.6s-6.7,2-6.7,4.6C4.5,6.5,5.1,7.6,6.1,8.5z"/>
</g>
</svg>
