<?xml version="1.0" standalone="no"?><!DOCTYPE svg PUBLIC "-//W3C//DTD SVG 1.1//EN" "http://www.w3.org/Graphics/SVG/1.1/DTD/svg11.dtd"><svg t="1577943240008" class="icon" viewBox="0 0 1024 1024" version="1.1" xmlns="http://www.w3.org/2000/svg" p-id="2025" xmlns:xlink="http://www.w3.org/1999/xlink" width="200" height="200"><defs><style type="text/css"></style></defs><path d="M484.059429 483.913143H242.541714A241.737143 241.737143 0 0 1 1.024 242.395429 241.737143 241.737143 0 0 1 242.541714 0.877714a241.737143 241.737143 0 0 1 241.517715 241.517715v241.517714zM242.541714 108.251429a134.217143 134.217143 0 0 0 0 268.361142h134.217143V242.395429A134.436571 134.436571 0 0 0 242.541714 108.251429z m538.916572 375.734857H539.940571V242.395429A241.737143 241.737143 0 0 1 781.458286 0.877714a241.737143 241.737143 0 0 1 241.517714 241.517715 241.737143 241.737143 0 0 1-241.517714 241.517714zM647.387429 376.539429h134.217142a134.363429 134.363429 0 0 0 134.217143-134.217143 134.363429 134.363429 0 0 0-268.580571 0.073143v134.144h0.146286z m-404.845715 644.096A241.737143 241.737143 0 0 1 1.024 778.971429 241.737143 241.737143 0 0 1 242.541714 537.6h241.517715v241.517714a241.737143 241.737143 0 0 1-241.517715 241.590857z m0-375.661715a134.363429 134.363429 0 0 0-134.217143 134.217143c0 73.947429 60.269714 134.217143 134.217143 134.217143a134.363429 134.363429 0 0 0 134.217143-134.217143V644.973714H242.541714z m538.916572 375.661715a241.737143 241.737143 0 0 1-241.517715-241.590858V537.6h241.517715a241.737143 241.737143 0 0 1 241.517714 241.517714 241.737143 241.737143 0 0 1-241.517714 241.590857zM647.387429 644.973714v134.217143c0 73.947429 60.196571 134.217143 134.217142 134.217143a134.363429 134.363429 0 0 0 134.217143-134.217143 134.436571 134.436571 0 0 0-134.217143-134.217143H647.314286z" fill="" p-id="2026"></path></svg>