<svg xmlns="http://www.w3.org/2000/svg" width="11" height="8" viewBox="0 0 11 8">
  <defs>
    <style>
      .cls-1 {
        fill: #1890ff;
        fill-rule: evenodd;
      }
    </style>
  </defs>
  <path id="下拉" class="cls-1" d="M2091.49,3751.95a0.332,0.332,0,0,1-.21-0.07l-5.14-4.18a0.4,0.4,0,0,1-.07-0.53,0.317,0.317,0,0,1,.48-0.08l4.94,4.01,4.94-4.01a0.319,0.319,0,0,1,.48.08,0.412,0.412,0,0,1-.08.53l-5.14,4.18A0.306,0.306,0,0,1,2091.49,3751.95Zm0,3.05a0.332,0.332,0,0,1-.21-0.07l-5.14-4.18a0.4,0.4,0,0,1-.07-0.53,0.325,0.325,0,0,1,.48-0.09l4.94,4.02,4.94-4.02a0.328,0.328,0,0,1,.48.09,0.413,0.413,0,0,1-.08.53l-5.14,4.18A0.306,0.306,0,0,1,2091.49,3755Z" transform="translate(-2086 -3747)"/>
</svg>
