<?xml version="1.0" encoding="utf-8"?>
<!-- Generator: Adobe Illustrator 23.0.0, SVG Export Plug-In . SVG Version: 6.00 Build 0)  -->
<svg version="1.1" id="图层_1" xmlns="http://www.w3.org/2000/svg" xmlns:xlink="http://www.w3.org/1999/xlink" x="0px" y="0px"
	 viewBox="0 0 28 28" style="enable-background:new 0 0 28 28;" xml:space="preserve">
<style type="text/css">
	.st0{display:none;}
	.st1{display:inline;}
	.st2{fill:#606266;}
</style>
<g class="st0">
	<g class="st1">
		<path class="st2" d="M16,17.9h-4c-1.1,0-1.9-0.9-1.9-1.9v-4c0-1.1,0.9-1.9,1.9-1.9h4c1.1,0,1.9,0.9,1.9,1.9v4
			C17.9,17,17,17.9,16,17.9z"/>
	</g>
	<g class="st1">
		<path class="st2" d="M23.1,24.3c-0.2,0-0.5-0.1-0.7-0.3c-0.4-0.4-0.4-1,0-1.4c2.3-2.3,3.6-5.4,3.6-8.7s-1.3-6.4-3.6-8.7
			c-0.4-0.4-0.4-1,0-1.4s1-0.4,1.4,0c2.7,2.7,4.2,6.2,4.2,10s-1.5,7.4-4.2,10C23.6,24.2,23.4,24.3,23.1,24.3z M4.9,24.3
			c-0.2,0-0.5-0.1-0.7-0.3C1.5,21.4,0,17.8,0,14S1.5,6.6,4.2,4c0.4-0.4,1-0.4,1.4,0s0.4,1,0,1.4C3.2,7.6,1.9,10.7,1.9,14
			s1.3,6.4,3.6,8.7c0.4,0.4,0.4,1,0,1.4C5.4,24.2,5.1,24.3,4.9,24.3z M20,20.3c-0.2,0-0.4-0.1-0.6-0.2c-0.4-0.3-0.5-0.9-0.2-1.3
			c1-1.3,1.6-3,1.6-4.8c0-1.7-0.6-3.4-1.6-4.8c-0.3-0.4-0.2-1,0.2-1.3c0.4-0.3,1-0.2,1.3,0.2c1.3,1.7,2,3.8,2,5.9s-0.7,4.3-2,5.9
			C20.6,20.2,20.3,20.3,20,20.3z M7.6,20.3c-0.3,0-0.6-0.1-0.8-0.4c-1.3-1.7-2-3.8-2-5.9s0.7-4.3,2-5.9c0.3-0.4,0.9-0.5,1.3-0.2
			s0.5,0.9,0.2,1.3c-1,1.3-1.6,3-1.6,4.8c0,1.7,0.6,3.4,1.6,4.8c0.3,0.4,0.2,1-0.2,1.3C8,20.2,7.8,20.3,7.6,20.3z"/>
	</g>
</g>
<g>
	<path class="st2" d="M16.7,5.5c1.1,0,2-0.9,2-2c0-1.1-0.9-2-2-2s-2,0.9-2,2C14.7,4.6,15.6,5.5,16.7,5.5z"/>
	<path class="st2" d="M21.4,10.9h-2.6c-0.3,0-0.7-0.2-0.8-0.5l-1.6-2.9c-0.7-1.7-2-1.7-2.4-1.6c-0.1,0-0.1,0-0.2,0L8.4,7.9
		C8.1,8.1,7.8,8.4,7.8,8.8v4.3c0,0.5,0.4,1,1,1h0c0.5,0,1-0.4,1-1v-2.6c0-0.4,0.2-0.8,0.6-0.9l0,0c0.7-0.3,1.5,0.4,1.3,1.1L8.2,25.9
		c-0.1,0.6,0.3,1.2,0.9,1.2c0.4,0,0.8-0.3,0.9-0.6l2.5-7c0.3-0.7,1.3-0.9,1.7-0.2l1.2,1.8c0.1,0.2,0.2,0.3,0.2,0.5v4.7
		c0,0.5,0.4,1,1,1h0.1c0.5,0,1-0.4,1-1v-6.5c0-0.2,0-0.3-0.1-0.4L15,14.4c-0.1-0.2-0.1-0.4-0.1-0.6l0.5-2.4c0-0.4,0.3-0.3,0.3-0.3
		l0.8,1.5c0.2,0.3,0.5,0.5,0.9,0.5h4.1c0.5,0,1-0.4,1-1v-0.1C22.4,11.4,22,10.9,21.4,10.9z"/>
</g>
</svg>
