<svg xmlns="http://www.w3.org/2000/svg" viewBox="0 0 24.53 21.2"><defs><style>.cls-1{fill:#606266;}</style></defs><title>自适应_1</title><g id="图层_2" data-name="图层 2"><g id="图层_1-2" data-name="图层 1"><path class="cls-1" d="M10.09,0H2.55A2.55,2.55,0,0,0,0,2.55v16.1A2.55,2.55,0,0,0,2.55,21.2h7.54a2.55,2.55,0,0,0,2.55-2.55V2.55A2.55,2.55,0,0,0,10.09,0Zm.55,18.65a.54.54,0,0,1-.55.55H2.55A.55.55,0,0,1,2,18.65V2.55A.55.55,0,0,1,2.55,2h7.54a.55.55,0,0,1,.55.55Z"/><path class="cls-1" d="M20.64,1.31a1,1,0,1,0-1.4,1.42,11.06,11.06,0,0,1,0,15.74,1,1,0,0,0,1.4,1.43,13.05,13.05,0,0,0,0-18.59Z"/><path class="cls-1" d="M18.2,5.08A1,1,0,0,0,16.62,6.3a7.18,7.18,0,0,1,0,8.6,1,1,0,0,0,.18,1.4,1,1,0,0,0,.61.21,1,1,0,0,0,.79-.39,9.16,9.16,0,0,0,0-11Z"/><rect class="cls-1" x="13.89" y="9.09" width="2" height="3.03" rx="0.94"/></g></g></svg>