<?xml version="1.0" encoding="utf-8"?>
<!-- Generator: Adobe Illustrator 23.0.0, SVG Export Plug-In . SVG Version: 6.00 Build 0)  -->
<svg version="1.1" id="图层_1" xmlns="http://www.w3.org/2000/svg" xmlns:xlink="http://www.w3.org/1999/xlink" x="0px" y="0px"
	 viewBox="0 0 28 28" style="enable-background:new 0 0 28 28;" xml:space="preserve">
<style type="text/css">
	.st0{display:none;}
	.st1{display:inline;fill:#606266;}
	.st2{fill:#606266;}
</style>
<g class="st0">
	<path class="st1" d="M16,10.1h-4c-1.1,0-1.9,0.9-1.9,1.9v4c0,1.1,0.9,1.9,1.9,1.9h4c1.1,0,1.9-0.9,1.9-1.9v-4
		C17.9,11,17,10.1,16,10.1z"/>
	<path class="st1" d="M1.9,14c0-3.3,1.3-6.4,3.6-8.7c0.4-0.4,0.4-1,0-1.4s-1-0.4-1.4,0C1.5,6.6,0,10.2,0,14s1.5,7.4,4.2,10
		c0.2,0.2,0.4,0.3,0.7,0.3c0.2,0,0.5-0.1,0.7-0.3c0.4-0.4,0.4-1,0-1.4C3.2,20.4,1.9,17.3,1.9,14z"/>
	<path class="st1" d="M20.8,8.1c-0.3-0.4-0.9-0.5-1.3-0.2S19,8.8,19.3,9.2c1,1.3,1.6,3,1.6,4.8c0,1.7-0.6,3.4-1.6,4.8
		c-0.3,0.4-0.2,1,0.2,1.3c0.2,0.1,0.4,0.2,0.6,0.2c0.3,0,0.6-0.1,0.8-0.4c1.3-1.7,2-3.8,2-5.9C22.7,11.9,22,9.7,20.8,8.1z"/>
	<path class="st1" d="M8.2,7.9c-0.4-0.3-1-0.2-1.3,0.2c-1.3,1.7-2,3.8-2,5.9s0.7,4.3,2,5.9c0.2,0.2,0.5,0.4,0.8,0.4
		c0.2,0,0.4-0.1,0.6-0.2c0.4-0.3,0.5-0.9,0.2-1.3c-1-1.3-1.6-3-1.6-4.8c0-1.7,0.6-3.4,1.6-4.8C8.7,8.8,8.6,8.2,8.2,7.9z"/>
	<path class="st1" d="M23.8,4c-0.4-0.4-1-0.4-1.4,0s-0.4,1,0,1.4c2.3,2.3,3.6,5.4,3.6,8.7s-1.3,6.4-3.6,8.7c-0.4,0.4-0.4,1,0,1.4
		c0.2,0.2,0.4,0.3,0.7,0.3c0.2,0,0.5-0.1,0.7-0.3c2.7-2.7,4.2-6.2,4.2-10C28,10.2,26.5,6.6,23.8,4z"/>
</g>
<g class="st0">
	<path class="st1" d="M27,12.7c-0.1-0.5-0.6-0.9-1.1-0.9c-0.5,0.1-0.9,0.6-0.9,1.1c0.3,1.9,0,3.9-0.8,5.7c-1.2,2.7-3.3,4.8-6,5.9
		c-2.7,1.1-5.7,1.1-8.5-0.1C4.1,22.2,1.4,15.7,3.8,10c1.2-2.7,3.3-4.8,6-5.9s5.7-1.1,8.4,0.1L16.6,5l7.2,2.4l-3.3-6.8l-0.7,2.1
		c-0.2-0.1-0.4-0.2-0.7-0.3C15.9,1,12.4,1,9.1,2.3C5.9,3.6,3.4,6.1,2,9.3c-2.8,6.6,0.3,14.3,6.9,17.1c1.6,0.7,3.4,1.1,5.1,1.1
		c1.6,0,3.3-0.3,4.9-1c3.2-1.3,5.8-3.8,7.1-7C26.9,17.4,27.3,15,27,12.7z"/>
	<path class="st1" d="M13.7,7.4c-0.6,0-1,0.4-1,1v7.2c0,0.4,0.2,0.7,0.6,0.9l6.4,3c0.1,0.1,0.3,0.1,0.4,0.1c0.4,0,0.7-0.2,0.9-0.6
		c0.2-0.5,0-1.1-0.5-1.3L14.7,15V8.4C14.7,7.9,14.3,7.4,13.7,7.4z"/>
</g>
<g>
	<path class="st2" d="M14,4c0.7,0,1.3,0.1,1.9,0.2l-1.9,1.1l7.6,1.1L17,0.2l0,2.4c-1-0.3-2-0.4-3-0.4C7.5,2.2,2.3,7.4,2.3,13.9
		c0,1.8,0.4,3.5,1.2,5.1c0.2,0.3,0.5,0.5,0.8,0.5c0.1,0,0.3,0,0.4-0.1c0.4-0.2,0.6-0.8,0.4-1.2c-0.7-1.4-1-2.8-1-4.3
		C4.1,8.4,8.5,4,14,4z"/>
	<path class="st2" d="M25,9.8c-0.2-0.5-0.7-0.7-1.2-0.5c-0.5,0.2-0.7,0.7-0.5,1.2c0.4,1.1,0.6,2.3,0.6,3.5c0,5.5-4.5,9.9-9.9,9.9
		c-0.4,0-0.7,0-1.1-0.1l1.8-1.2L7,22.1l5.2,5.7L12,25.4c0.7,0.1,1.3,0.2,2,0.2c6.5,0,11.7-5.3,11.7-11.7C25.7,12.5,25.5,11.1,25,9.8
		z"/>
	<path class="st2" d="M18,10.3h-8c-0.5,0-0.9,0.4-0.9,0.9c0,0.5,0.4,0.9,0.9,0.9h8c0.5,0,0.9-0.4,0.9-0.9
		C18.9,10.7,18.5,10.3,18,10.3z"/>
	<path class="st2" d="M18,13h-8c-0.5,0-0.9,0.4-0.9,0.9c0,0.5,0.4,0.9,0.9,0.9h8c0.5,0,0.9-0.4,0.9-0.9C18.9,13.4,18.5,13,18,13z"/>
	<path class="st2" d="M18,15.7h-8c-0.5,0-0.9,0.4-0.9,0.9c0,0.5,0.4,0.9,0.9,0.9h8c0.5,0,0.9-0.4,0.9-0.9
		C18.9,16.1,18.5,15.7,18,15.7z"/>
</g>
</svg>
