<svg 
 xmlns="http://www.w3.org/2000/svg"
 xmlns:xlink="http://www.w3.org/1999/xlink"
 width="59.5px" height="59.5px">
<path fill-rule="evenodd"  stroke="rgb(0, 160, 233)" stroke-width="1px" stroke-linecap="butt" stroke-linejoin="miter" fill="none"
 d="M29.500,0.500 C45.516,0.500 58.500,13.484 58.500,29.500 C58.500,45.516 45.516,58.500 29.500,58.500 C13.484,58.500 0.500,45.516 0.500,29.500 C0.500,13.484 13.484,0.500 29.500,0.500 Z"/>
<path fill-rule="evenodd"  fill="rgb(0, 160, 233)"
 d="M46.495,41.606 L44.275,44.493 L37.034,38.997 C34.535,41.452 31.103,42.971 27.320,42.971 C19.695,42.971 13.492,36.808 13.492,29.233 C13.492,21.658 19.695,15.495 27.320,15.495 C34.944,15.495 41.147,21.658 41.147,29.233 C41.147,31.744 40.462,34.098 39.273,36.125 L46.495,41.606 ZM27.320,19.128 C21.711,19.128 17.148,23.661 17.148,29.233 C17.148,34.805 21.711,39.338 27.320,39.338 C32.928,39.338 37.491,34.805 37.491,29.233 C37.491,23.661 32.928,19.128 27.320,19.128 ZM29.711,28.461 L26.551,36.915 L21.632,31.155 L19.093,31.155 L19.093,28.041 L23.083,28.041 L25.476,30.844 L29.107,21.134 L32.930,27.782 L35.547,27.782 L35.547,30.896 L31.111,30.896 L29.711,28.461 Z"/>
</svg>
