<svg 
 xmlns="http://www.w3.org/2000/svg"
 xmlns:xlink="http://www.w3.org/1999/xlink"
 width="59.5px" height="59.5px">
<path fill-rule="evenodd"  stroke="rgb(0, 160, 233)" stroke-width="1px" stroke-linecap="butt" stroke-linejoin="miter" fill="none"
 d="M29.500,0.500 C45.516,0.500 58.500,13.484 58.500,29.500 C58.500,45.516 45.516,58.500 29.500,58.500 C13.484,58.500 0.500,45.516 0.500,29.500 C0.500,13.484 13.484,0.500 29.500,0.500 Z"/>
<path fill-rule="evenodd"  fill="rgb(0, 160, 233)"
 d="M45.205,26.149 L41.972,26.149 C41.819,26.149 41.674,26.181 41.541,26.236 L40.827,24.514 C40.959,24.459 41.084,24.380 41.191,24.272 L43.480,21.984 C43.915,21.549 44.155,20.970 44.155,20.354 C44.155,19.739 43.915,19.160 43.480,18.726 L41.284,16.525 C40.412,15.657 38.896,15.656 38.029,16.526 L36.355,18.202 C35.559,17.772 34.727,17.427 33.864,17.168 L33.864,14.801 C33.864,13.530 32.832,12.498 31.563,12.498 L28.456,12.498 C27.186,12.498 26.154,13.530 26.154,14.801 L26.154,17.168 C25.292,17.427 24.460,17.772 23.666,18.202 L21.991,16.525 C21.120,15.657 19.604,15.656 18.737,16.526 L16.539,18.727 C15.643,19.624 15.643,21.084 16.539,21.982 L18.213,23.658 C17.784,24.453 17.439,25.285 17.179,26.149 L14.814,26.149 C13.544,26.149 12.512,27.182 12.512,28.452 L12.512,31.562 C12.512,32.832 13.544,33.865 14.814,33.865 L17.179,33.865 C17.439,34.728 17.784,35.561 18.213,36.356 L16.539,38.033 C15.643,38.930 15.643,40.390 16.539,41.289 L18.737,43.486 C19.604,44.358 21.120,44.357 21.991,43.487 L23.666,41.812 C24.460,42.242 25.292,42.588 26.154,42.846 L26.154,45.213 C26.154,46.483 27.186,47.516 28.456,47.516 L31.563,47.516 C32.832,47.516 33.864,46.483 33.864,45.213 L33.864,42.846 C34.727,42.588 35.559,42.242 36.355,41.812 L38.029,43.486 C38.896,44.358 40.412,44.357 41.284,43.487 L43.480,41.290 C43.915,40.855 44.155,40.276 44.155,39.660 C44.155,39.045 43.915,38.466 43.480,38.032 L41.805,36.356 C42.237,35.559 42.582,34.726 42.839,33.865 L45.205,33.865 C46.474,33.865 47.506,32.832 47.506,31.562 L47.506,28.452 C47.506,27.182 46.474,26.149 45.205,26.149 ZM30.009,35.048 C27.246,35.048 25.007,32.807 25.007,30.042 C25.007,27.278 27.246,25.036 30.009,25.036 C32.771,25.036 35.011,27.278 35.011,30.042 C35.011,32.807 32.771,35.048 30.009,35.048 Z"/>
</svg>
