<svg 
 xmlns="http://www.w3.org/2000/svg"
 xmlns:xlink="http://www.w3.org/1999/xlink"
 width="59.5px" height="59.5px">
<path fill-rule="evenodd"  stroke="rgb(0, 160, 233)" stroke-width="1px" stroke-linecap="butt" stroke-linejoin="miter" fill="none"
 d="M29.500,0.500 C45.516,0.500 58.500,13.484 58.500,29.500 C58.500,45.516 45.516,58.500 29.500,58.500 C13.484,58.500 0.500,45.516 0.500,29.500 C0.500,13.484 13.484,0.500 29.500,0.500 Z"/>
<path fill-rule="evenodd"  fill="rgb(0, 160, 233)"
 d="M45.159,37.280 L31.772,13.476 C31.014,12.128 28.902,12.130 28.144,13.476 L14.758,37.280 C14.379,37.953 14.379,38.757 14.758,39.431 C15.137,40.103 15.815,40.506 16.572,40.506 L43.344,40.506 C44.101,40.506 44.780,40.103 45.158,39.431 C45.537,38.757 45.537,37.953 45.159,37.280 ZM29.958,36.897 C28.794,36.897 27.850,35.928 27.850,34.733 C27.850,33.538 28.794,32.569 29.958,32.569 C31.122,32.569 32.066,33.538 32.066,34.733 C32.066,35.928 31.122,36.897 29.958,36.897 ZM32.353,22.718 L31.071,30.619 C30.980,31.177 30.510,31.586 29.958,31.586 C29.407,31.586 28.936,31.177 28.846,30.619 L27.563,22.718 C27.316,21.199 28.458,19.815 29.958,19.815 C31.458,19.815 32.600,21.199 32.353,22.718 Z"/>
</svg>
