<?xml version="1.0" standalone="no"?><!DOCTYPE svg PUBLIC "-//W3C//DTD SVG 1.1//EN" "http://www.w3.org/Graphics/SVG/1.1/DTD/svg11.dtd"><svg t="1540199360125" class="icon" style="" viewBox="0 0 1024 1024" version="1.1" xmlns="http://www.w3.org/2000/svg" p-id="2485" xmlns:xlink="http://www.w3.org/1999/xlink" width="200" height="200"><defs><style type="text/css"></style></defs><path d="M264.192 432.128H337.92v73.728h-73.728zM264.192 543.744H337.92v73.728h-73.728zM379.904 543.744v73.728h77.824c20.48 0 36.864-16.384 36.864-36.864s-16.384-36.864-36.864-36.864h-77.824zM942.08 666.624s0-1.024 0 0c-1.024-18.432-16.384-31.744-33.792-31.744-18.432 0-33.792 15.36-33.792 33.792 0 2.048 0 4.096 1.024 5.12v10.24c0 87.04-70.656 156.672-156.672 156.672s-156.672-70.656-156.672-156.672 70.656-156.672 156.672-156.672c28.672 0 55.296 8.192 78.848 21.504 5.12 4.096 12.288 6.144 19.456 6.144 18.432 0 33.792-15.36 33.792-33.792 0-12.288-6.144-22.528-15.36-28.672V491.52c-33.792-20.48-73.728-32.768-115.712-32.768-123.904 0-225.28 100.352-225.28 225.28 0 123.904 100.352 225.28 225.28 225.28 123.904 0 225.28-100.352 225.28-225.28-2.048-6.144-2.048-12.288-3.072-17.408z" p-id="2486"></path><path d="M880.64 583.68m-33.792 0a33.792 33.792 0 1 0 67.584 0 33.792 33.792 0 1 0-67.584 0Z" p-id="2487"></path><path d="M563.2 470.016c0-20.48-16.384-36.864-36.864-36.864H379.904v73.728h145.408c20.48 0 37.888-17.408 37.888-36.864z" p-id="2488"></path><path d="M457.728 762.88H244.736c-31.744 0-56.32-25.6-56.32-56.32V365.568h607.232v65.536c0 19.456 16.384 35.84 35.84 35.84s35.84-16.384 35.84-35.84V280.576c0-70.656-57.344-128-128-128H244.736c-70.656 0-128 57.344-128 128v424.96c0 70.656 57.344 128 128 128h212.992c19.456 0 35.84-16.384 35.84-35.84s-16.384-34.816-35.84-34.816zM188.416 280.576c0-31.744 25.6-56.32 56.32-56.32h493.568c31.744 0 56.32 25.6 56.32 56.32v12.288H188.416v-12.288z" p-id="2489"></path><path d="M793.6 666.624h-49.152v-48.128c0-20.48-16.384-36.864-36.864-36.864s-36.864 16.384-36.864 36.864v121.856h122.88c20.48 0 36.864-16.384 36.864-36.864s-16.384-36.864-36.864-36.864z" p-id="2490"></path></svg>