<svg 
 xmlns="http://www.w3.org/2000/svg"
 xmlns:xlink="http://www.w3.org/1999/xlink"
 width="59.5px" height="59.5px">
<path fill-rule="evenodd"  stroke="rgb(0, 160, 233)" stroke-width="1px" stroke-linecap="butt" stroke-linejoin="miter" fill="none"
 d="M29.500,0.500 C45.516,0.500 58.500,13.484 58.500,29.500 C58.500,45.516 45.516,58.500 29.500,58.500 C13.484,58.500 0.500,45.516 0.500,29.500 C0.500,13.484 13.484,0.500 29.500,0.500 Z"/>
<path fill-rule="evenodd"  fill="rgb(0, 160, 233)"
 d="M29.177,42.294 L29.177,43.084 C29.177,44.417 28.109,45.502 26.797,45.502 L22.838,45.502 C21.526,45.502 20.459,44.417 20.459,43.084 L20.459,42.294 L15.489,42.294 L15.489,39.850 L20.459,39.850 L20.459,39.060 C20.459,37.727 21.526,36.642 22.838,36.642 L26.797,36.642 C28.109,36.642 29.177,37.727 29.177,39.060 L29.177,39.850 L44.497,39.850 L44.497,42.294 L29.177,42.294 ZM39.596,32.518 C39.596,33.851 38.529,34.935 37.217,34.935 L33.258,34.935 C31.946,34.935 30.878,33.851 30.878,32.518 L30.878,31.728 L15.489,31.728 L15.489,29.284 L30.878,29.284 L30.878,28.494 C30.878,27.160 31.946,26.076 33.258,26.076 L37.217,26.076 C38.529,26.076 39.596,27.160 39.596,28.494 L39.596,29.284 L44.497,29.284 L44.497,31.728 L39.596,31.728 L39.596,32.518 ZM29.177,21.951 C29.177,23.284 28.109,24.369 26.797,24.369 L22.838,24.369 C21.526,24.369 20.459,23.284 20.459,21.951 L20.459,21.161 L15.489,21.161 L15.489,18.717 L20.459,18.717 L20.459,17.928 C20.459,16.594 21.526,15.509 22.838,15.509 L26.797,15.509 C28.109,15.509 29.177,16.594 29.177,17.928 L29.177,18.717 L44.497,18.717 L44.497,21.161 L29.177,21.161 L29.177,21.951 Z"/>
</svg>
