<svg 
 xmlns="http://www.w3.org/2000/svg"
 xmlns:xlink="http://www.w3.org/1999/xlink"
 width="59.5px" height="59.5px">
<path fill-rule="evenodd"  stroke="rgb(0, 160, 233)" stroke-width="1px" stroke-linecap="butt" stroke-linejoin="miter" fill="none"
 d="M29.500,0.500 C45.516,0.500 58.500,13.484 58.500,29.500 C58.500,45.516 45.516,58.500 29.500,58.500 C13.484,58.500 0.500,45.516 0.500,29.500 C0.500,13.484 13.484,0.500 29.500,0.500 Z"/>
<path fill-rule="evenodd"  fill-opacity="0.361" fill="rgb(0, 160, 233)"
 d="M43.722,24.500 C46.913,24.500 49.500,27.186 49.500,30.500 C49.500,33.814 46.913,36.500 43.722,36.500 C40.531,36.500 37.944,33.814 37.944,30.500 C37.944,27.186 40.531,24.500 43.722,24.500 Z"/>
<path fill-rule="evenodd"  fill="rgb(0, 160, 233)"
 d="M29.500,24.500 C32.691,24.500 35.278,27.186 35.278,30.500 C35.278,33.814 32.691,36.500 29.500,36.500 C26.309,36.500 23.722,33.814 23.722,30.500 C23.722,27.186 26.309,24.500 29.500,24.500 Z"/>
<path fill-rule="evenodd"  fill-opacity="0.361" fill="rgb(0, 160, 233)"
 d="M15.278,24.500 C18.469,24.500 21.056,27.186 21.056,30.500 C21.056,33.814 18.469,36.500 15.278,36.500 C12.087,36.500 9.500,33.814 9.500,30.500 C9.500,27.186 12.087,24.500 15.278,24.500 Z"/>
</svg>
