<svg 
 xmlns="http://www.w3.org/2000/svg"
 xmlns:xlink="http://www.w3.org/1999/xlink"
 width="59.5px" height="59.5px">
<path fill-rule="evenodd"  stroke="rgb(0, 160, 233)" stroke-width="1px" stroke-linecap="butt" stroke-linejoin="miter" fill="none"
 d="M29.500,0.500 C45.516,0.500 58.500,13.484 58.500,29.500 C58.500,45.516 45.516,58.500 29.500,58.500 C13.484,58.500 0.500,45.516 0.500,29.500 C0.500,13.484 13.484,0.500 29.500,0.500 Z"/>
<path fill-rule="evenodd"  fill="rgb(0, 160, 233)"
 d="M46.500,26.427 L46.500,23.664 L42.532,23.664 L42.532,22.375 C42.532,18.566 39.434,15.468 35.625,15.468 L34.337,15.468 L34.337,11.500 L31.573,11.500 L31.573,15.468 L26.428,15.468 L26.428,11.500 L23.664,11.500 L23.664,15.468 L22.376,15.468 C18.567,15.468 15.468,18.566 15.468,22.375 L15.468,23.664 L11.500,23.664 L11.500,26.427 L15.468,26.427 L15.468,31.573 L11.500,31.573 L11.500,34.337 L15.468,34.337 L15.468,35.625 C15.468,39.434 18.567,42.532 22.376,42.532 L23.664,42.532 L23.664,46.500 L26.428,46.500 L26.428,42.532 L31.573,42.532 L31.573,46.500 L34.337,46.500 L34.337,42.532 L35.625,42.532 C39.434,42.532 42.532,39.434 42.532,35.625 L42.532,34.337 L46.500,34.337 L46.500,31.573 L42.532,31.573 L42.532,26.427 L46.500,26.427 ZM34.591,31.367 C34.591,33.145 33.145,34.591 31.367,34.591 L26.634,34.591 C24.856,34.591 23.410,33.145 23.410,31.367 L23.410,26.633 C23.410,24.855 24.856,23.409 26.634,23.409 L31.367,23.409 C33.145,23.409 34.591,24.855 34.591,26.633 L34.591,31.367 Z"/>
</svg>
