<svg 
 xmlns="http://www.w3.org/2000/svg"
 xmlns:xlink="http://www.w3.org/1999/xlink"
 width="77px" height="77px">
<defs>
<filter filterUnits="userSpaceOnUse" id="Filter_0" x="0px" y="0px" width="77px" height="77px"  >
                <feOffset in="SourceAlpha" dx="0" dy="3" />
                <feGaussianBlur result="blurOut" stdDeviation="2.449" />
                <feFlood flood-color="rgb(39, 39, 39)" result="floodOut" />
                <feComposite operator="atop" in="floodOut" in2="blurOut" />
                <feComponentTransfer><feFuncA type="linear" slope="0.25"/></feComponentTransfer>
                <feMerge>
    <feMergeNode/>
    <feMergeNode in="SourceGraphic"/>
  </feMerge>
            </filter>

</defs>
<g filter="url(#Filter_0)">
<path fill-rule="evenodd"  fill="rgb(64, 158, 255)"
 d="M37.999,1.999 C56.224,1.999 70.998,16.774 70.998,34.999 C70.998,53.225 56.224,67.999 37.999,67.999 C19.773,67.999 4.999,53.225 4.999,34.999 C4.999,16.774 19.773,1.999 37.999,1.999 Z"/>
</g>
<path fill-rule="evenodd"  fill="rgb(255, 255, 255)"
 d="M49.501,47.994 L26.490,47.994 C25.662,47.994 24.990,47.328 24.990,46.508 C24.990,45.687 25.662,45.022 26.490,45.022 L49.501,45.022 C50.329,45.022 51.001,45.687 51.001,46.508 C51.001,47.328 50.329,47.994 49.501,47.994 ZM36.376,43.323 C36.321,43.389 36.260,43.447 36.196,43.503 C36.188,43.510 36.182,43.518 36.174,43.525 C36.076,43.607 35.966,43.671 35.850,43.725 C35.821,43.739 35.792,43.750 35.761,43.762 C35.649,43.807 35.531,43.841 35.409,43.857 C35.401,43.858 35.393,43.862 35.385,43.863 L35.367,43.866 L35.367,43.866 L35.365,43.866 L27.486,44.784 C27.427,44.791 27.369,44.794 27.311,44.794 C26.969,44.794 26.635,44.678 26.367,44.462 C26.054,44.211 25.854,43.844 25.818,43.445 L25.085,35.619 C25.085,35.618 25.085,35.617 25.085,35.617 C25.085,35.616 25.085,35.616 25.085,35.614 L25.083,35.599 C25.082,35.592 25.085,35.585 25.085,35.577 C25.075,35.454 25.084,35.333 25.104,35.213 C25.110,35.182 25.115,35.151 25.123,35.120 C25.152,34.997 25.193,34.876 25.253,34.764 C25.258,34.755 25.265,34.747 25.270,34.738 C25.312,34.665 25.356,34.593 25.411,34.527 L38.094,19.009 C38.558,18.441 39.219,18.085 39.957,18.008 C40.692,17.930 41.416,18.143 41.990,18.603 L48.648,23.945 C49.222,24.405 49.581,25.060 49.658,25.791 C49.736,26.521 49.523,27.236 49.057,27.805 L36.376,43.323 ZM28.662,41.655 L31.501,41.324 L30.256,40.326 L28.398,38.835 L28.662,41.655 ZM40.280,21.055 L28.685,35.242 L33.722,39.283 L34.988,40.298 L46.583,26.111 L40.280,21.055 Z"/>
</svg>
