<svg 
 xmlns="http://www.w3.org/2000/svg"
 xmlns:xlink="http://www.w3.org/1999/xlink"
 width="77px" height="77px">
<defs>
<filter filterUnits="userSpaceOnUse" id="Filter_0" x="0px" y="0px" width="77px" height="77px"  >
                <feOffset in="SourceAlpha" dx="0" dy="3" />
                <feGaussianBlur result="blurOut" stdDeviation="2.449" />
                <feFlood flood-color="rgb(23, 115, 51)" result="floodOut" />
                <feComposite operator="atop" in="floodOut" in2="blurOut" />
                <feComponentTransfer><feFuncA type="linear" slope="0.25"/></feComponentTransfer>
                <feMerge>
    <feMergeNode/>
    <feMergeNode in="SourceGraphic"/>
  </feMerge>
            </filter>

</defs>
<g filter="url(#Filter_0)">
<path fill-rule="evenodd"  fill="rgb(83, 199, 118)"
 d="M37.998,1.999 C56.224,1.999 70.999,16.774 70.999,34.999 C70.999,53.225 56.224,67.999 37.998,67.999 C19.773,67.999 4.999,53.225 4.999,34.999 C4.999,16.774 19.773,1.999 37.998,1.999 Z"/>
</g>
<path fill-rule="evenodd"  fill="rgb(255, 255, 255)"
 d="M35.567,46.399 C34.971,46.399 34.388,46.196 33.915,45.820 L24.556,38.367 C23.395,37.442 23.193,35.738 24.105,34.562 C25.018,33.385 26.699,33.180 27.860,34.105 L35.106,39.875 L47.496,23.732 C48.401,22.551 50.082,22.338 51.247,23.257 C52.413,24.176 52.623,25.879 51.716,27.060 L37.678,45.352 C37.241,45.921 36.599,46.291 35.892,46.378 C35.784,46.392 35.675,46.399 35.567,46.399 Z"/>
</svg>
