<?xml version="1.0" standalone="no"?><!DOCTYPE svg PUBLIC "-//W3C//DTD SVG 1.1//EN" "http://www.w3.org/Graphics/SVG/1.1/DTD/svg11.dtd"><svg t="1610521221193" class="icon" viewBox="0 0 1024 1024" version="1.1" xmlns="http://www.w3.org/2000/svg" p-id="6706" xmlns:xlink="http://www.w3.org/1999/xlink" width="200" height="200"><defs><style type="text/css"></style></defs><path d="M293.925926 663.703704h18.962963v56.888889H293.925926v-56.888889z m0 75.851852h18.962963v56.888888H293.925926v-56.888888z m0 75.851851h18.962963v56.888889H293.925926v-56.888889z m0 75.851852h18.962963v56.888889H293.925926v-56.888889z m0 75.851852h18.962963v56.888889H293.925926v-56.888889z" fill="#CBD3DB" p-id="6707"></path><path d="M388.740741 663.703704h18.962963v56.888889h-18.962963v-56.888889z m0 75.851852h18.962963v56.888888h-18.962963v-56.888888z m0 75.851851h18.962963v56.888889h-18.962963v-56.888889z m0 75.851852h18.962963v56.888889h-18.962963v-56.888889z m0 75.851852h18.962963v56.888889h-18.962963v-56.888889z" fill="#CBD3DB" p-id="6708"></path><path d="M635.259259 1024h-18.962963V682.666667h18.962963v341.333333z" fill="#CBD3DB" p-id="6709"></path><path d="M521.481481 1024h-18.962962V682.666667h18.962962v341.333333z" fill="#CBD3DB" p-id="6710"></path><path d="M730.074074 1024h-18.962963V682.666667h18.962963v341.333333z" fill="#CBD3DB" p-id="6711"></path><path d="M199.111111 1024H180.148148V663.703704h18.962963v360.296296z" fill="#CBD3DB" p-id="6712"></path><path d="M843.851852 1024h-18.962963V663.703704h18.962963v360.296296z" fill="#CBD3DB" p-id="6713"></path><path d="M824.888889 663.703704v18.962963H502.518519v-18.962963h322.37037z" fill="#CBD3DB" p-id="6714"></path><path d="M730.074074 360.296296h-18.962963v-56.888889h18.962963v56.888889z m0-75.851852h-18.962963v-56.888888h18.962963v56.888888z m0-75.851851h-18.962963V151.703704h18.962963v56.888889z m0-75.851852h-18.962963V75.851852h18.962963v56.888889z m0-75.851852h-18.962963V0h18.962963v56.888889z" fill="#CBD3DB" p-id="6715"></path><path d="M635.259259 360.296296h-18.962963v-56.888889h18.962963v56.888889z m0-75.851852h-18.962963v-56.888888h18.962963v56.888888z m0-75.851851h-18.962963V151.703704h18.962963v56.888889z m0-75.851852h-18.962963V75.851852h18.962963v56.888889z m0-75.851852h-18.962963V0h18.962963v56.888889z" fill="#CBD3DB" p-id="6716"></path><path d="M388.740741 0h18.962963v341.333333h-18.962963V0z" fill="#CBD3DB" p-id="6717"></path><path d="M502.518519 0h18.962962v341.333333h-18.962962V0z" fill="#CBD3DB" p-id="6718"></path><path d="M293.925926 0h18.962963v341.333333H293.925926V0z" fill="#CBD3DB" p-id="6719"></path><path d="M824.888889 0h18.962963v360.296296h-18.962963V0z" fill="#CBD3DB" p-id="6720"></path><path d="M180.148148 0h18.962963v360.296296H180.148148V0z" fill="#CBD3DB" p-id="6721"></path><path d="M199.111111 360.296296v-18.962963h322.37037v18.962963H199.111111z" fill="#CBD3DB" p-id="6722"></path><path d="M578.37037 436.148148h37.925926v151.703704h-37.925926v-151.703704z m-56.888889 0h37.925926v151.703704h-37.925926v-151.703704z m-56.888888 0h37.925926v151.703704h-37.925926v-151.703704z m-56.888889 0h37.925926v151.703704h-37.925926v-151.703704z m-56.888889 0h37.925926v151.703704H350.814815v-151.703704z m-56.888889 0h37.925926v151.703704H293.925926v-151.703704z m-56.888889 0h37.925926v151.703704H237.037037v-151.703704z m-56.888889 0h37.925926v151.703704H180.148148v-151.703704z m455.111111 0h37.925926v151.703704h-37.925926v-151.703704z m56.888889 0h37.925926v151.703704h-37.925926v-151.703704z m56.888889 0h37.925926v151.703704h-37.925926v-151.703704z m56.888889 0h37.925926v151.703704h-37.925926v-151.703704z" fill="#303133" p-id="6723"></path></svg>