<?xml version="1.0" encoding="utf-8"?>
<!-- Generator: Adobe Illustrator 23.0.0, SVG Export Plug-In . SVG Version: 6.00 Build 0)  -->
<svg version="1.1" id="人行道" xmlns="http://www.w3.org/2000/svg" xmlns:xlink="http://www.w3.org/1999/xlink" x="0px" y="0px"
	 viewBox="0 0 252 252" style="enable-background:new 0 0 252 252;" xml:space="preserve">
<style type="text/css">
	.st0{fill-rule:evenodd;clip-rule:evenodd;fill:#005BAC;}
	.st1{opacity:0.9;}
	.st2{fill:#606060;}
</style>
<g id="西">
	<g>
		<rect y="225" class="st0" width="16" height="4"/>
		<rect y="217" class="st0" width="16" height="4"/>
		<rect y="209" class="st0" width="16" height="4"/>
		<rect y="201" class="st0" width="16" height="4"/>
		<rect y="193" class="st0" width="16" height="4"/>
		<rect y="185" class="st0" width="16" height="4"/>
		<rect y="177" class="st0" width="16" height="4"/>
		<rect y="168" class="st0" width="16" height="4"/>
		<rect y="160" class="st0" width="16" height="4"/>
		<rect y="152" class="st0" width="16" height="4"/>
		<rect y="144" class="st0" width="16" height="4"/>
		<rect y="136" class="st0" width="16" height="4"/>
	</g>
	<g>
		<rect y="128" class="st0" width="16" height="4"/>
		<rect y="120" class="st0" width="16" height="4"/>
	</g>
	<g>
		<rect y="112" class="st0" width="16" height="4"/>
		<rect y="104" class="st0" width="16" height="4"/>
		<rect y="96" class="st0" width="16" height="4"/>
		<rect y="88" class="st0" width="16" height="4"/>
		<rect y="80" class="st0" width="16" height="4"/>
		<rect y="71" class="st0" width="16" height="4"/>
		<rect y="63" class="st0" width="16" height="4"/>
		<rect y="55" class="st0" width="16" height="4"/>
		<rect y="47" class="st0" width="16" height="4"/>
		<rect y="39" class="st0" width="16" height="4"/>
		<rect y="31" class="st0" width="16" height="4"/>
		<rect y="23" class="st0" width="16" height="4"/>
	</g>
</g>
<g id="东">
	<g>
		<rect x="236" y="225" class="st0" width="16" height="4"/>
		<rect x="236" y="217" class="st0" width="16" height="4"/>
		<rect x="236" y="209" class="st0" width="16" height="4"/>
		<rect x="236" y="201" class="st0" width="16" height="4"/>
		<rect x="236" y="193" class="st0" width="16" height="4"/>
		<rect x="236" y="185" class="st0" width="16" height="4"/>
		<rect x="236" y="177" class="st0" width="16" height="4"/>
		<rect x="236" y="168" class="st0" width="16" height="4"/>
		<rect x="236" y="160" class="st0" width="16" height="4"/>
		<rect x="236" y="152" class="st0" width="16" height="4"/>
		<rect x="236" y="144" class="st0" width="16" height="4"/>
		<rect x="236" y="136" class="st0" width="16" height="4"/>
	</g>
	<g>
		<rect x="236" y="128" class="st0" width="16" height="4"/>
		<rect x="236" y="120" class="st0" width="16" height="4"/>
	</g>
	<g>
		<rect x="236" y="112" class="st0" width="16" height="4"/>
		<rect x="236" y="104" class="st0" width="16" height="4"/>
		<rect x="236" y="96" class="st0" width="16" height="4"/>
		<rect x="236" y="88" class="st0" width="16" height="4"/>
		<rect x="236" y="80" class="st0" width="16" height="4"/>
		<rect x="236" y="71" class="st0" width="16" height="4"/>
		<rect x="236" y="63" class="st0" width="16" height="4"/>
		<rect x="236" y="55" class="st0" width="16" height="4"/>
		<rect x="236" y="47" class="st0" width="16" height="4"/>
		<rect x="236" y="39" class="st0" width="16" height="4"/>
		<rect x="236" y="31" class="st0" width="16" height="4"/>
		<rect x="236" y="23" class="st0" width="16" height="4"/>
	</g>
</g>
<g id="北">
	<g>
		<rect x="225" class="st0" width="4" height="16"/>
		<rect x="217" class="st0" width="4" height="16"/>
		<rect x="209" class="st0" width="4" height="16"/>
		<rect x="201" class="st0" width="4" height="16"/>
		<rect x="193" class="st0" width="4" height="16"/>
		<rect x="185" class="st0" width="4" height="16"/>
		<rect x="177" class="st0" width="4" height="16"/>
		<rect x="168" class="st0" width="4" height="16"/>
		<rect x="160" class="st0" width="4" height="16"/>
		<rect x="152" class="st0" width="4" height="16"/>
		<rect x="144" class="st0" width="4" height="16"/>
		<rect x="136" class="st0" width="4" height="16"/>
	</g>
	<g>
		<rect x="128" class="st0" width="4" height="16"/>
		<rect x="120" class="st0" width="4" height="16"/>
	</g>
	<g>
		<rect x="112" class="st0" width="4" height="16"/>
		<rect x="104" class="st0" width="4" height="16"/>
		<rect x="96" class="st0" width="4" height="16"/>
		<rect x="88" class="st0" width="4" height="16"/>
		<rect x="80" class="st0" width="4" height="16"/>
		<rect x="71" class="st0" width="4" height="16"/>
		<rect x="63" class="st0" width="4" height="16"/>
		<rect x="55" class="st0" width="4" height="16"/>
		<rect x="47" class="st0" width="4" height="16"/>
		<rect x="39" class="st0" width="4" height="16"/>
		<rect x="31" class="st0" width="4" height="16"/>
		<rect x="23" class="st0" width="4" height="16"/>
	</g>
</g>
<g id="南">
	<g>
		<rect x="225" y="236" class="st0" width="4" height="16"/>
		<rect x="217" y="236" class="st0" width="4" height="16"/>
		<rect x="209" y="236" class="st0" width="4" height="16"/>
		<rect x="201" y="236" class="st0" width="4" height="16"/>
		<rect x="193" y="236" class="st0" width="4" height="16"/>
		<rect x="185" y="236" class="st0" width="4" height="16"/>
		<rect x="177" y="236" class="st0" width="4" height="16"/>
		<rect x="168" y="236" class="st0" width="4" height="16"/>
		<rect x="160" y="236" class="st0" width="4" height="16"/>
		<rect x="152" y="236" class="st0" width="4" height="16"/>
		<rect x="144" y="236" class="st0" width="4" height="16"/>
		<rect x="136" y="236" class="st0" width="4" height="16"/>
	</g>
	<g>
		<rect x="128" y="236" class="st0" width="4" height="16"/>
		<rect x="120" y="236" class="st0" width="4" height="16"/>
	</g>
	<g>
		<rect x="112" y="236" class="st0" width="4" height="16"/>
		<rect x="104" y="236" class="st0" width="4" height="16"/>
		<rect x="96" y="236" class="st0" width="4" height="16"/>
		<rect x="88" y="236" class="st0" width="4" height="16"/>
		<rect x="80" y="236" class="st0" width="4" height="16"/>
		<rect x="71" y="236" class="st0" width="4" height="16"/>
		<rect x="63" y="236" class="st0" width="4" height="16"/>
		<rect x="55" y="236" class="st0" width="4" height="16"/>
		<rect x="47" y="236" class="st0" width="4" height="16"/>
		<rect x="39" y="236" class="st0" width="4" height="16"/>
		<rect x="31" y="236" class="st0" width="4" height="16"/>
		<rect x="23" y="236" class="st0" width="4" height="16"/>
	</g>
</g>
<g id="斜向行人过街">
	<rect x="78" y="164" transform="matrix(0.7071 -0.7071 0.7071 0.7071 -98.1528 106.9619)" class="st0" width="4" height="16"/>
	<rect x="83.7" y="158.3" transform="matrix(0.7071 -0.7071 0.7071 0.7071 -92.496 109.3051)" class="st0" width="4" height="16"/>
	<rect x="89.4" y="152.6" transform="matrix(0.7071 -0.7071 0.7071 0.7071 -86.8391 111.6482)" class="st0" width="4" height="16"/>
	<rect x="95" y="147" transform="matrix(0.7071 -0.7071 0.7071 0.7071 -81.1823 113.9914)" class="st0" width="4" height="16"/>
	<rect x="55.4" y="186.6" transform="matrix(0.7071 -0.7071 0.7071 0.7071 -120.7803 97.5894)" class="st0" width="4" height="16"/>
	<rect x="61.1" y="180.9" transform="matrix(0.7071 -0.7071 0.7071 0.7071 -115.1234 99.9325)" class="st0" width="4" height="16"/>
	
		<rect x="66.7" y="175.3" transform="matrix(0.7071 -0.7071 0.7071 0.7071 -109.4666 102.2757)" class="st0" width="4" height="16"/>
	
		<rect x="72.4" y="169.6" transform="matrix(0.7071 -0.7071 0.7071 0.7071 -103.8097 104.6188)" class="st0" width="4" height="16"/>
	<rect x="49.8" y="192.2" transform="matrix(0.7071 -0.7071 0.7071 0.7071 -126.4371 95.2462)" class="st0" width="4" height="16"/>
	<rect x="27.1" y="214.9" transform="matrix(0.7071 -0.7071 0.7071 0.7071 -149.0645 85.8736)" class="st0" width="4" height="16"/>
	<rect x="32.8" y="209.2" transform="matrix(0.7071 -0.7071 0.7071 0.7071 -143.4077 88.2168)" class="st0" width="4" height="16"/>
	<rect x="38.4" y="203.6" transform="matrix(0.7071 -0.7071 0.7071 0.7071 -137.7508 90.5599)" class="st0" width="4" height="16"/>
	<rect x="44.1" y="197.9" transform="matrix(0.7071 -0.7071 0.7071 0.7071 -132.094 92.9031)" class="st0" width="4" height="16"/>
	
		<rect x="100.7" y="141.3" transform="matrix(0.7071 -0.7071 0.7071 0.7071 -75.5254 116.3345)" class="st0" width="4" height="16"/>
	
		<rect x="106.3" y="135.7" transform="matrix(0.7071 -0.7071 0.7071 0.7071 -69.8686 118.6777)" class="st0" width="4" height="16"/>
	<rect x="112" y="130" transform="matrix(0.7071 -0.7071 0.7071 0.7071 -64.2117 121.0208)" class="st0" width="4" height="16"/>
	
		<rect x="118.3" y="123.7" transform="matrix(0.7071 -0.7071 0.7071 0.7071 -57.8478 123.6569)" class="st0" width="4" height="16"/>
	<rect x="124" y="118" transform="matrix(0.7071 -0.7071 0.7071 0.7071 -52.1909 126)" class="st0" width="4" height="16"/>
	
		<rect x="129.7" y="112.3" transform="matrix(0.7071 -0.7071 0.7071 0.7071 -46.5341 128.3431)" class="st0" width="4" height="16"/>
	
		<rect x="135.3" y="106.7" transform="matrix(0.7071 -0.7071 0.7071 0.7071 -40.8772 130.6863)" class="st0" width="4" height="16"/>
	<rect x="141" y="101" transform="matrix(0.7071 -0.7071 0.7071 0.7071 -35.2203 133.0294)" class="st0" width="4" height="16"/>
	<rect x="146.6" y="95.4" transform="matrix(0.7071 -0.7071 0.7071 0.7071 -29.5635 135.3726)" class="st0" width="4" height="16"/>
	<rect x="152.3" y="89.7" transform="matrix(0.7071 -0.7071 0.7071 0.7071 -23.9066 137.7157)" class="st0" width="4" height="16"/>
	<rect x="157.9" y="84.1" transform="matrix(0.7071 -0.7071 0.7071 0.7071 -18.2498 140.0589)" class="st0" width="4" height="16"/>
	<rect x="163.6" y="78.4" transform="matrix(0.7071 -0.7071 0.7071 0.7071 -12.5929 142.402)" class="st0" width="4" height="16"/>
	<rect x="169.3" y="72.7" transform="matrix(0.7071 -0.7071 0.7071 0.7071 -6.9361 144.7452)" class="st0" width="4" height="16"/>
	<rect x="174.9" y="67.1" transform="matrix(0.7071 -0.7071 0.7071 0.7071 -1.2792 147.0883)" class="st0" width="4" height="16"/>
	<rect x="180.6" y="61.4" transform="matrix(0.7071 -0.7071 0.7071 0.7071 4.3776 149.4315)" class="st0" width="4" height="16"/>
	<rect x="186.9" y="55.1" transform="matrix(0.7071 -0.7071 0.7071 0.7071 10.7416 152.0675)" class="st0" width="4" height="16"/>
	<rect x="192.6" y="49.4" transform="matrix(0.7071 -0.7071 0.7071 0.7071 16.3984 154.4106)" class="st0" width="4" height="16"/>
	<rect x="198.2" y="43.8" transform="matrix(0.7071 -0.7071 0.7071 0.7071 22.0553 156.7538)" class="st0" width="4" height="16"/>
	<rect x="203.9" y="38.1" transform="matrix(0.7071 -0.7071 0.7071 0.7071 27.7122 159.0969)" class="st0" width="4" height="16"/>
	<rect x="209.6" y="32.4" transform="matrix(0.7071 -0.7071 0.7071 0.7071 33.369 161.4401)" class="st0" width="4" height="16"/>
	<rect x="215.2" y="26.8" transform="matrix(0.7071 -0.7071 0.7071 0.7071 39.0259 163.7832)" class="st0" width="4" height="16"/>
	<rect x="220.9" y="21.1" transform="matrix(0.7071 -0.7071 0.7071 0.7071 44.6827 166.1264)" class="st0" width="4" height="16"/>
</g>
<g id="斜向行人过街1">
	<rect x="72" y="78" transform="matrix(0.7071 -0.7071 0.7071 0.7071 -33.1529 80.0381)" class="st0" width="16" height="4"/>
	<rect x="77.7" y="83.7" transform="matrix(0.7071 -0.7071 0.7071 0.7071 -35.496 85.6949)" class="st0" width="16" height="4"/>
	<rect x="83.4" y="89.4" transform="matrix(0.7071 -0.7071 0.7071 0.7071 -37.8391 91.3518)" class="st0" width="16" height="4"/>
	<rect x="89" y="95" transform="matrix(0.7071 -0.7071 0.7071 0.7071 -40.1823 97.0086)" class="st0" width="16" height="4"/>
	<rect x="49.4" y="55.4" transform="matrix(0.7071 -0.7071 0.7071 0.7071 -23.7803 57.4106)" class="st0" width="16" height="4"/>
	<rect x="55.1" y="61.1" transform="matrix(0.7071 -0.7071 0.7071 0.7071 -26.1234 63.0675)" class="st0" width="16" height="4"/>
	<rect x="60.7" y="66.7" transform="matrix(0.7071 -0.7071 0.7071 0.7071 -28.4666 68.7243)" class="st0" width="16" height="4"/>
	<rect x="66.4" y="72.4" transform="matrix(0.7071 -0.7071 0.7071 0.7071 -30.8097 74.3812)" class="st0" width="16" height="4"/>
	<rect x="43.8" y="49.8" transform="matrix(0.7071 -0.7071 0.7071 0.7071 -21.4371 51.7538)" class="st0" width="16" height="4"/>
	<rect x="21.1" y="27.1" transform="matrix(0.7071 -0.7071 0.7071 0.7071 -12.0645 29.1264)" class="st0" width="16" height="4"/>
	<rect x="26.8" y="32.8" transform="matrix(0.7071 -0.7071 0.7071 0.7071 -14.4077 34.7832)" class="st0" width="16" height="4"/>
	<rect x="32.4" y="38.4" transform="matrix(0.7071 -0.7071 0.7071 0.7071 -16.7508 40.4401)" class="st0" width="16" height="4"/>
	<rect x="38.1" y="44.1" transform="matrix(0.7071 -0.7071 0.7071 0.7071 -19.094 46.0969)" class="st0" width="16" height="4"/>
	<rect x="94.7" y="100.7" transform="matrix(0.7071 -0.7071 0.7071 0.7071 -42.5254 102.6655)" class="st0" width="16" height="4"/>
	
		<rect x="100.3" y="106.3" transform="matrix(0.7071 -0.7071 0.7071 0.7071 -44.8686 108.3223)" class="st0" width="16" height="4"/>
	<rect x="106" y="112" transform="matrix(0.7071 -0.7071 0.7071 0.7071 -47.2117 113.9792)" class="st0" width="16" height="4"/>
	
		<rect x="112.3" y="118.3" transform="matrix(0.7071 -0.7071 0.7071 0.7071 -49.8478 120.3431)" class="st0" width="16" height="4"/>
	<rect x="118" y="124" transform="matrix(0.7071 -0.7071 0.7071 0.7071 -52.1909 126)" class="st0" width="16" height="4"/>
	
		<rect x="123.7" y="129.7" transform="matrix(0.7071 -0.7071 0.7071 0.7071 -54.5341 131.6569)" class="st0" width="16" height="4"/>
	
		<rect x="129.3" y="135.3" transform="matrix(0.7071 -0.7071 0.7071 0.7071 -56.8772 137.3137)" class="st0" width="16" height="4"/>
	<rect x="135" y="141" transform="matrix(0.7071 -0.7071 0.7071 0.7071 -59.2203 142.9706)" class="st0" width="16" height="4"/>
	
		<rect x="140.6" y="146.6" transform="matrix(0.7071 -0.7071 0.7071 0.7071 -61.5635 148.6274)" class="st0" width="16" height="4"/>
	
		<rect x="146.3" y="152.3" transform="matrix(0.7071 -0.7071 0.7071 0.7071 -63.9066 154.2843)" class="st0" width="16" height="4"/>
	
		<rect x="151.9" y="157.9" transform="matrix(0.7071 -0.7071 0.7071 0.7071 -66.2498 159.9411)" class="st0" width="16" height="4"/>
	<rect x="157.6" y="163.6" transform="matrix(0.7071 -0.7071 0.7071 0.7071 -68.5929 165.598)" class="st0" width="16" height="4"/>
	
		<rect x="163.3" y="169.3" transform="matrix(0.7071 -0.7071 0.7071 0.7071 -70.9361 171.2548)" class="st0" width="16" height="4"/>
	
		<rect x="168.9" y="174.9" transform="matrix(0.7071 -0.7071 0.7071 0.7071 -73.2792 176.9117)" class="st0" width="16" height="4"/>
	
		<rect x="174.6" y="180.6" transform="matrix(0.7071 -0.7071 0.7071 0.7071 -75.6224 182.5685)" class="st0" width="16" height="4"/>
	
		<rect x="180.9" y="186.9" transform="matrix(0.7071 -0.7071 0.7071 0.7071 -78.2584 188.9325)" class="st0" width="16" height="4"/>
	
		<rect x="186.6" y="192.6" transform="matrix(0.7071 -0.7071 0.7071 0.7071 -80.6016 194.5894)" class="st0" width="16" height="4"/>
	
		<rect x="192.2" y="198.2" transform="matrix(0.7071 -0.7071 0.7071 0.7071 -82.9447 200.2462)" class="st0" width="16" height="4"/>
	
		<rect x="197.9" y="203.9" transform="matrix(0.7071 -0.7071 0.7071 0.7071 -85.2878 205.9031)" class="st0" width="16" height="4"/>
	<rect x="203.6" y="209.6" transform="matrix(0.7071 -0.7071 0.7071 0.7071 -87.631 211.5599)" class="st0" width="16" height="4"/>
	
		<rect x="209.2" y="215.2" transform="matrix(0.7071 -0.7071 0.7071 0.7071 -89.9741 217.2168)" class="st0" width="16" height="4"/>
	
		<rect x="214.9" y="220.9" transform="matrix(0.7071 -0.7071 0.7071 0.7071 -92.3173 222.8736)" class="st0" width="16" height="4"/>
</g>
<g id="路段行人过街-东西" class="st1">
	<g>
		<rect x="37.9" y="97.9" class="st2" width="4" height="56.3"/>
	</g>
	<g>
		<rect x="30.1" y="97.9" class="st2" width="4" height="56.3"/>
	</g>
	<g>
		<rect x="22.5" y="97.9" class="st2" width="4" height="56.3"/>
	</g>
	<g>
		<rect x="45.7" y="97.9" class="st2" width="4" height="56.3"/>
	</g>
	<g>
		<rect x="53.5" y="97.9" class="st2" width="4" height="56.3"/>
	</g>
	<g>
		<rect x="61.3" y="97.9" class="st2" width="4" height="56.3"/>
	</g>
	<g>
		<rect x="69.1" y="97.9" class="st2" width="4" height="56.3"/>
	</g>
	<g>
		<rect x="76.9" y="97.9" class="st2" width="4" height="56.3"/>
	</g>
	<g>
		<rect x="84.7" y="97.9" class="st2" width="4" height="56.3"/>
	</g>
	<g>
		<rect x="92.5" y="97.9" class="st2" width="4" height="56.3"/>
	</g>
	<g>
		<rect x="100.3" y="97.9" class="st2" width="4" height="56.3"/>
	</g>
	<g>
		<rect x="108.1" y="97.9" class="st2" width="4" height="56.3"/>
	</g>
	<g>
		<rect x="116" y="97.9" class="st2" width="4" height="56.3"/>
	</g>
	<g>
		<rect x="123.8" y="97.9" class="st2" width="4" height="56.3"/>
	</g>
	<g>
		<rect x="131.6" y="97.9" class="st2" width="4" height="56.3"/>
	</g>
	<g>
		<rect x="139.4" y="97.9" class="st2" width="4" height="56.3"/>
	</g>
	<g>
		<rect x="147.2" y="97.9" class="st2" width="4" height="56.3"/>
	</g>
	<g>
		<rect x="155" y="97.9" class="st2" width="4" height="56.3"/>
	</g>
	<g>
		<rect x="162.8" y="97.9" class="st2" width="4" height="56.3"/>
	</g>
	<g>
		<rect x="170.6" y="97.9" class="st2" width="4" height="56.3"/>
	</g>
	<g>
		<rect x="178.4" y="97.9" class="st2" width="4" height="56.3"/>
	</g>
	<g>
		<rect x="186.2" y="97.9" class="st2" width="4" height="56.3"/>
	</g>
	<g>
		<rect x="194" y="97.9" class="st2" width="4" height="56.3"/>
	</g>
	<g>
		<rect x="201.8" y="97.9" class="st2" width="4" height="56.3"/>
	</g>
	<g>
		<rect x="209.6" y="97.9" class="st2" width="4" height="56.3"/>
		<rect x="217.6" y="97.9" class="st2" width="4" height="56.3"/>
		<rect x="225.5" y="97.9" class="st2" width="4" height="56.3"/>
	</g>
</g>
<g id="路段行人过街-南北" class="st1">
	<g>
		<rect x="97.9" y="37.9" class="st2" width="56.3" height="4"/>
	</g>
	<g>
		<rect x="97.9" y="30.1" class="st2" width="56.3" height="4"/>
	</g>
	<g>
		<rect x="97.9" y="22.5" class="st2" width="56.3" height="4"/>
	</g>
	<g>
		<rect x="97.9" y="45.7" class="st2" width="56.3" height="4"/>
	</g>
	<g>
		<rect x="97.9" y="53.5" class="st2" width="56.3" height="4"/>
	</g>
	<g>
		<rect x="97.9" y="61.3" class="st2" width="56.3" height="4"/>
	</g>
	<g>
		<rect x="97.9" y="69.1" class="st2" width="56.3" height="4"/>
	</g>
	<g>
		<rect x="97.9" y="76.9" class="st2" width="56.3" height="4"/>
	</g>
	<g>
		<rect x="97.9" y="84.7" class="st2" width="56.3" height="4"/>
	</g>
	<g>
		<rect x="97.9" y="92.5" class="st2" width="56.3" height="4"/>
	</g>
	<g>
		<rect x="97.9" y="100.3" class="st2" width="56.3" height="4"/>
	</g>
	<g>
		<rect x="97.9" y="108.1" class="st2" width="56.3" height="4"/>
	</g>
	<g>
		<rect x="97.9" y="116" class="st2" width="56.3" height="4"/>
	</g>
	<g>
		<rect x="97.9" y="123.8" class="st2" width="56.3" height="4"/>
	</g>
	<g>
		<rect x="97.9" y="131.6" class="st2" width="56.3" height="4"/>
	</g>
	<g>
		<rect x="97.9" y="139.4" class="st2" width="56.3" height="4"/>
	</g>
	<g>
		<rect x="97.9" y="147.2" class="st2" width="56.3" height="4"/>
	</g>
	<g>
		<rect x="97.9" y="155" class="st2" width="56.3" height="4"/>
	</g>
	<g>
		<rect x="97.9" y="162.8" class="st2" width="56.3" height="4"/>
	</g>
	<g>
		<rect x="97.9" y="170.6" class="st2" width="56.3" height="4"/>
	</g>
	<g>
		<rect x="97.9" y="178.4" class="st2" width="56.3" height="4"/>
	</g>
	<g>
		<rect x="97.9" y="186.2" class="st2" width="56.3" height="4"/>
	</g>
	<g>
		<rect x="97.9" y="194" class="st2" width="56.3" height="4"/>
	</g>
	<g>
		<rect x="97.9" y="201.8" class="st2" width="56.3" height="4"/>
	</g>
	<g>
		<rect x="97.9" y="209.6" class="st2" width="56.3" height="4"/>
		<rect x="97.9" y="217.6" class="st2" width="56.3" height="4"/>
		<rect x="97.9" y="225.5" class="st2" width="56.3" height="4"/>
	</g>
</g>
</svg>
