<?xml version="1.0" standalone="no"?><!DOCTYPE svg PUBLIC "-//W3C//DTD SVG 1.1//EN" "http://www.w3.org/Graphics/SVG/1.1/DTD/svg11.dtd"><svg t="1610521210944" class="icon" viewBox="0 0 1579 1024" version="1.1" xmlns="http://www.w3.org/2000/svg" p-id="6565" xmlns:xlink="http://www.w3.org/1999/xlink" width="308.3984375" height="200"><defs><style type="text/css"></style></defs><path d="M1024 848.457143v-29.257143h87.771429v29.257143h-87.771429z m117.028571 0v-29.257143h87.771429v29.257143h-87.771429z m117.028572 0v-29.257143h87.771428v29.257143h-87.771428z m117.028571 0v-29.257143h87.771429v29.257143h-87.771429z m117.028572 0v-29.257143h87.771428v29.257143h-87.771428z" fill="#CBD3DB" p-id="6566"></path><path d="M1024 702.171429v-29.257143h87.771429v29.257143h-87.771429z m117.028571 0v-29.257143h87.771429v29.257143h-87.771429z m117.028572 0v-29.257143h87.771428v29.257143h-87.771428z m117.028571 0v-29.257143h87.771429v29.257143h-87.771429z m117.028572 0v-29.257143h87.771428v29.257143h-87.771428z" fill="#CBD3DB" p-id="6567"></path><path d="M1579.885714 321.828571v29.257143H1053.257143v-29.257143h526.628571z" fill="#CBD3DB" p-id="6568"></path><path d="M1579.885714 497.371429v29.257142H1053.257143v-29.257142h526.628571z" fill="#CBD3DB" p-id="6569"></path><path d="M1579.885714 175.542857v29.257143H1053.257143V175.542857h526.628571z" fill="#CBD3DB" p-id="6570"></path><path d="M1579.885714 994.742857v29.257143H1024v-29.257143h555.885714z" fill="#CBD3DB" p-id="6571"></path><path d="M1579.885714 0v29.257143H1024V0h555.885714z" fill="#CBD3DB" p-id="6572"></path><path d="M1024 29.257143h29.257143v497.371428h-29.257143V29.257143z" fill="#CBD3DB" p-id="6573"></path><path d="M555.885714 175.542857v29.257143h-87.771428V175.542857h87.771428z m-117.028571 0v29.257143h-87.771429V175.542857h87.771429z m-117.028572 0v29.257143H234.057143V175.542857h87.771428zM204.8 175.542857v29.257143H117.028571V175.542857h87.771429zM87.771429 175.542857v29.257143H0V175.542857h87.771429z" fill="#CBD3DB" p-id="6574"></path><path d="M555.885714 321.828571v29.257143h-87.771428v-29.257143h87.771428z m-117.028571 0v29.257143h-87.771429v-29.257143h87.771429z m-117.028572 0v29.257143H234.057143v-29.257143h87.771428z m-117.028571 0v29.257143H117.028571v-29.257143h87.771429z m-117.028571 0v29.257143H0v-29.257143h87.771429z" fill="#CBD3DB" p-id="6575"></path><path d="M0 702.171429v-29.257143h526.628571v29.257143H0z" fill="#CBD3DB" p-id="6576"></path><path d="M0 526.628571v-29.257142h526.628571v29.257142H0z" fill="#CBD3DB" p-id="6577"></path><path d="M0 848.457143v-29.257143h526.628571v29.257143H0z" fill="#CBD3DB" p-id="6578"></path><path d="M0 29.257143V0h555.885714v29.257143H0z" fill="#CBD3DB" p-id="6579"></path><path d="M0 1024v-29.257143h555.885714v29.257143H0z" fill="#CBD3DB" p-id="6580"></path><path d="M555.885714 994.742857h-29.257143V497.371429h29.257143v497.371428z" fill="#CBD3DB" p-id="6581"></path><path d="M672.914286 351.085714h234.057143v58.514286h-234.057143v-58.514286z m0 87.771429h234.057143v58.514286h-234.057143v-58.514286z m0 87.771428h234.057143v58.514286h-234.057143v-58.514286z m0 87.771429h234.057143v58.514286h-234.057143v-58.514286z m0 87.771429h234.057143v58.514285h-234.057143v-58.514285z m0 87.771428h234.057143v58.514286h-234.057143v-58.514286z m0 87.771429h234.057143v58.514285h-234.057143v-58.514285z m0 87.771428h234.057143v58.514286h-234.057143v-58.514286z m0-702.171428h234.057143v58.514285h-234.057143V263.314286z m0-87.771429h234.057143v58.514286h-234.057143V175.542857z m0-87.771428h234.057143v58.514285h-234.057143V87.771429z m0-87.771429h234.057143v58.514286h-234.057143V0z" fill="#303133" p-id="6582"></path></svg>