<?xml version="1.0" standalone="no"?><!DOCTYPE svg PUBLIC "-//W3C//DTD SVG 1.1//EN" "http://www.w3.org/Graphics/SVG/1.1/DTD/svg11.dtd"><svg t="1610604019739" class="icon" viewBox="0 0 1024 1024" version="1.1" xmlns="http://www.w3.org/2000/svg" p-id="6421" xmlns:xlink="http://www.w3.org/1999/xlink" width="200" height="200"><defs><style type="text/css"></style></defs><path d="M560.761905 0h48.761905v170.666667h-48.761905V0z m73.142857 0h48.761905v170.666667h-48.761905V0z m73.142857 0h48.761905v170.666667h-48.761905V0z m73.142857 0h48.761905v170.666667h-48.761905V0z" fill="#CBD3DB" p-id="6422"></path><path d="M195.047619 0h48.761905v170.666667H195.047619V0z m73.142857 0h48.761905v170.666667h-48.761905V0z m73.142857 0h48.761905v170.666667h-48.761905V0z m73.142857 0h48.761905v170.666667h-48.761905V0z" fill="#CBD3DB" p-id="6423"></path><path d="M560.761905 853.333333h48.761905v170.666667h-48.761905v-170.666667z m73.142857 0h48.761905v170.666667h-48.761905v-170.666667z m73.142857 0h48.761905v170.666667h-48.761905v-170.666667z m73.142857 0h48.761905v170.666667h-48.761905v-170.666667z" fill="#CBD3DB" p-id="6424"></path><path d="M195.047619 853.333333h48.761905v170.666667H195.047619v-170.666667z m73.142857 0h48.761905v170.666667h-48.761905v-170.666667z m73.142857 0h48.761905v170.666667h-48.761905v-170.666667z m73.142857 0h48.761905v170.666667h-48.761905v-170.666667z" fill="#CBD3DB" p-id="6425"></path><path d="M853.333333 560.761905h170.666667v48.761905h-170.666667v-48.761905z m0 73.142857h170.666667v48.761905h-170.666667v-48.761905z m0 73.142857h170.666667v48.761905h-170.666667v-48.761905z m0 73.142857h170.666667v48.761905h-170.666667v-48.761905z" fill="#CBD3DB" p-id="6426"></path><path d="M853.333333 195.047619h170.666667v48.761905h-170.666667V195.047619z m0 73.142857h170.666667v48.761905h-170.666667v-48.761905z m0 73.142857h170.666667v48.761905h-170.666667v-48.761905z m0 73.142857h170.666667v48.761905h-170.666667v-48.761905z" fill="#CBD3DB" p-id="6427"></path><path d="M0 560.761905h170.666667v48.761905H0v-48.761905z m0 73.142857h170.666667v48.761905H0v-48.761905z m0 73.142857h170.666667v48.761905H0v-48.761905z m0 73.142857h170.666667v48.761905H0v-48.761905z" fill="#303133" p-id="6428"></path><path d="M0 195.047619h170.666667v48.761905H0V195.047619z m0 73.142857h170.666667v48.761905H0v-48.761905z m0 73.142857h170.666667v48.761905H0v-48.761905z m0 73.142857h170.666667v48.761905H0v-48.761905z" fill="#CBD3DB" p-id="6429"></path></svg>