<?xml version="1.0" standalone="no"?><!DOCTYPE svg PUBLIC "-//W3C//DTD SVG 1.1//EN" "http://www.w3.org/Graphics/SVG/1.1/DTD/svg11.dtd"><svg t="1610604066100" class="icon" viewBox="0 0 1024 1024" version="1.1" xmlns="http://www.w3.org/2000/svg" p-id="7603" xmlns:xlink="http://www.w3.org/1999/xlink" width="200" height="200"><defs><style type="text/css"></style></defs><path d="M342.662587 540.341586l140.995827 140.995827-40.162447 40.447288-140.995828-140.995828z m-60.386092 60.386091l140.995828 140.995828-40.162448 40.447288L242.114047 641.174965zM221.890403 661.113769l140.995828 140.995828-40.447288 40.447288-140.995828-140.995828z m-60.386091 60.670932l140.995827 140.995828-40.447288 40.162447-140.995827-140.995827z m-60.386092 60.386092L242.114047 923.16662l-40.447288 40.162448-140.995827-140.995827z m-60.386092 60.386092l140.710987 140.995827-40.162447 40.162448-140.995828-140.995828zM581.073713 302.215299l140.995828 140.995828-40.447288 40.162447-140.995827-140.995827z m60.386092-60.386092l140.995828 140.995828-40.447288 40.162448-140.995828-140.995828z m60.386092-60.386092l140.995828 140.995828-40.447288 40.162448-140.995828-140.995828z m60.386092-60.670931l140.995827 140.995827-40.162447 40.447288-140.995828-140.995828z m60.386092-60.386092l140.995827 140.995827-40.162448 40.447288-140.995827-140.995827zM883.004172 0l140.995828 140.995828-40.162448 40.447287-140.995827-140.995827z" fill="#CBD3DB" p-id="7604"></path><path d="M450.901808 601.012517l139.571627-139.856467 39.877608 39.877608-139.571627 139.856467z m59.816412 59.816412l139.571627-139.856467 39.877608 40.162448-139.571627 139.571627z m59.816411 59.816412l139.571628-139.571628 39.877607 39.877608-139.571627 139.571628z m59.816412 59.816411l139.571627-139.571627 39.877608 39.877608-139.571627 139.571627z m59.816412 59.816412l139.571627-139.571627 39.877608 39.877608-139.571627 139.571627z m59.816411 59.816412l139.571628-139.571627 39.877608 39.877607-139.571628 139.571628z m59.816412 59.816411l139.571627-139.571627 39.877608 39.877608-139.571627 139.571627zM391.370236 540.911266l139.286788-139.571628 39.877607 39.877608-139.286787 139.856467z m-59.816411-59.816412l139.571627-139.571627 39.592768 39.877607-139.286787 139.571628z m-59.816412-59.816412l139.571627-139.571627 39.877608 39.877608-139.571627 139.571627z m-59.816412-59.816411l139.571628-139.571628 39.877607 39.877608-139.571627 139.571627z m-59.816411-59.816412l139.571627-139.571627 39.877608 39.877607-139.571628 139.571628z m-59.816412-59.816412l139.571627-139.571627 39.877608 39.877608-139.571627 139.571627z m-59.816412-59.816411l139.571628-139.571628 39.877607 39.877608-139.571627 139.571627z" fill="#303133" p-id="7605"></path></svg>