<?xml version="1.0" standalone="no"?><!DOCTYPE svg PUBLIC "-//W3C//DTD SVG 1.1//EN" "http://www.w3.org/Graphics/SVG/1.1/DTD/svg11.dtd"><svg t="1610604060893" class="icon" viewBox="0 0 1024 1024" version="1.1" xmlns="http://www.w3.org/2000/svg" p-id="7477" xmlns:xlink="http://www.w3.org/1999/xlink" width="200" height="200"><defs><style type="text/css"></style></defs><path d="M540.460415 681.612577l140.864683-140.864683 40.534531 40.247053-141.152161 140.864682z m60.370579 60.370579l141.152162-140.864683 40.247052 40.247052-141.152162 140.864683z m60.370578 60.370578l141.152162-140.864683 40.247052 40.247052-140.864683 141.152162z m60.658057 60.658057l140.864683-141.152162 40.247052 40.247053-140.864682 141.152161z m60.370579 60.370578l140.864683-141.152161 40.247052 40.247052-140.864683 141.152162z m60.370578 60.370579l140.864683-140.864683 40.247052 40.247052-140.864683 140.864683z m-540.172936-540.460416l140.864682-140.864682 40.247053 40.247052-140.864683 140.864683z m-60.370579-60.370578l140.864683-140.864683 40.247052 40.247052-140.864683 140.864683z m-60.370578-60.370578l140.864683-141.152162 40.247052 40.247052-140.864683 141.152162z m-60.370578-60.370579l140.864682-141.152161 40.247053 40.247052-140.864683 141.152162z m-60.370579-60.658057l140.864683-140.864683 40.247052 40.247052-140.864683 141.152162z m-60.370578-60.370578l140.864683-140.864683 40.247052 40.247052-140.864683 140.864683z" fill="#CBD3DB" p-id="7478"></path><path d="M431.793375 451.341943l140.864682 141.152161-40.247052 40.247053-140.864683-141.152162z m-60.370579 60.370578l140.864683 141.152162-40.247052 40.247052-140.864683-141.152162z m-60.370578 60.370578l140.864683 141.152162-40.247053 40.247052-140.864682-140.864682z m-60.370578 60.658058l140.864682 140.864682-40.247052 40.247053-140.864683-140.864683z m-60.370579 60.370578l140.864683 140.864683-40.247052 40.247052-140.864683-140.864683z m-60.370578 60.370578l140.864683 140.864683-40.247053 40.247052-140.864682-140.864682z m-60.370578 60.370579l140.864682 140.864682-40.247052 40.247053-140.577204-140.864683z m422.594048-422.881528l140.864683 141.152162-40.247053 40.247052-140.864682-141.152161z m60.370578-60.370578l140.864683 140.864683-40.247052 40.534531-140.864683-141.152162z m60.370578-60.370578l140.577204 140.864683-39.959573 40.247052-140.864683-140.864683z m60.370579-60.370579l140.577204 140.864683-40.247053 40.247052-140.577203-140.864682z m60.083099-60.370578l140.864683 140.864683-40.247052 40.247052-140.577204-140.864683z m60.370579-60.370578L934.594048 229.983156l-40.247052 40.247052-140.864683-140.864683zM854.099944 28.747894l140.864683 140.864683-40.247053 40.247052-140.864682-140.864682z" fill="#303133" p-id="7479"></path></svg>